<svg width="32" height="32" viewBox="0 0 32 32" fill="none" xmlns="http://www.w3.org/2000/svg">
<path d="M30.9643 28.3805C31.0119 28.2683 31.0119 28.1362 30.9643 28.0239C30.9366 27.9671 30.9075 27.9117 30.8613 27.8734L28.0433 25.0564C27.8557 24.8689 27.5637 24.8689 27.3761 25.0564C27.1885 25.2439 27.1885 25.5358 27.3761 25.7233L29.3961 27.7427H24.4261V7.54034C24.4261 7.27752 24.22 7.07019 23.9558 7.07019H3.75664V2.10328L5.77669 4.1226C5.87049 4.21637 5.99336 4.26391 6.10566 4.26391C6.21796 4.26391 6.35007 4.21637 6.43463 4.1226C6.62223 3.93507 6.62223 3.64319 6.43463 3.45565L3.61663 0.63867C3.61663 0.63867 3.52283 0.56339 3.46602 0.535657C3.35372 0.488114 3.22161 0.488114 3.10931 0.535657C3.0525 0.563391 2.99701 0.592446 2.9587 0.63867L0.140703 3.45565C-0.0469009 3.64319 -0.0469009 3.93506 0.140703 4.1226C0.328306 4.31014 0.62029 4.31014 0.807897 4.1226L2.82794 2.10328V28.2023C2.82794 28.4651 3.03404 28.6724 3.29826 28.6724H29.4067L27.3866 30.6917C27.199 30.8793 27.199 31.1711 27.3866 31.3587C27.4804 31.4525 27.6033 31.5 27.7156 31.5C27.8279 31.5 27.96 31.4525 28.0445 31.3587L30.8625 28.5417C30.8625 28.5417 30.9378 28.4479 30.9656 28.3912L30.9643 28.3805ZM9.75056 27.732L23.4851 14.0025V22.3794L18.1213 27.7412H9.74143L9.75056 27.732ZM3.7564 13.6827L9.43061 8.01049H18.1305L3.76554 22.3703V13.6735L3.7564 13.6827ZM8.09636 8.01049L3.7564 12.3489V8.01049H8.09636ZM3.7564 23.7027L19.4556 8.01049H23.4864V12.6684L8.41597 27.732H3.7564V23.7027ZM19.4556 27.732L23.4864 23.7027V27.732H19.4556ZM23.4851 3.78435C23.4851 3.52153 23.6912 3.3142 23.9554 3.3142H26.7734C27.5529 3.3142 28.1831 3.94284 28.1831 4.72336V7.54034C28.1831 7.80315 27.977 8.01049 27.7127 8.01049C27.4498 8.01049 27.2424 7.80446 27.2424 7.54034V4.72336C27.2424 4.46055 27.0363 4.25321 26.7721 4.25321H23.9541C23.6912 4.25321 23.4838 4.04718 23.4838 3.78306L23.4851 3.78435ZM15.9703 3.78435C15.9703 3.52153 16.1764 3.3142 16.4406 3.3142H20.1978C20.4608 3.3142 20.6682 3.53078 20.6682 3.78435C20.6682 4.03791 20.4621 4.2545 20.1978 4.2545H16.4406C16.1777 4.2545 15.9703 4.03791 15.9703 3.78435ZM8.45419 3.78435C8.45419 3.52153 8.66029 3.3142 8.92451 3.3142H12.6817C12.9446 3.3142 13.152 3.53078 13.152 3.78435C13.152 4.03791 12.9459 4.2545 12.6817 4.2545H8.92451C8.6616 4.2545 8.45419 4.03791 8.45419 3.78435ZM28.1829 18.8095V22.5653C28.1829 22.8281 27.9662 23.0355 27.7125 23.0355C27.4589 23.0355 27.2422 22.8295 27.2422 22.5653V18.8095C27.2422 18.5467 27.4589 18.3393 27.7125 18.3393C27.9662 18.3393 28.1829 18.5454 28.1829 18.8095ZM28.1829 11.2961V15.0519C28.1829 15.3147 27.9662 15.5221 27.7125 15.5221C27.4589 15.5221 27.2422 15.316 27.2422 15.0519V11.2961C27.2422 11.0333 27.4589 10.8259 27.7125 10.8259C27.9662 10.8259 28.1829 11.0319 28.1829 11.2961Z" fill="#2E4683"/>
</svg>
