<svg viewBox="0 0 233 218" fill="none" xmlns="http://www.w3.org/2000/svg">
<rect width="233" height="185" rx="4" fill="white"/>
<path d="M19.3036 39L16.2436 25.28H18.5636L20.3636 34.08C20.4036 34.3067 20.4436 34.5867 20.4836 34.92C20.5369 35.24 20.5769 35.5333 20.6036 35.8C20.6436 36.0533 20.6636 36.18 20.6636 36.18H20.7436C20.7436 36.18 20.7569 36.06 20.7836 35.82C20.8103 35.58 20.8436 35.2933 20.8836 34.96C20.9369 34.6267 20.9903 34.3333 21.0436 34.08L22.6636 25.28H25.4236L27.0836 34.08C27.1236 34.3067 27.1636 34.5867 27.2036 34.92C27.2569 35.2533 27.2969 35.5467 27.3236 35.8C27.3503 36.0533 27.3636 36.18 27.3636 36.18H27.4436C27.4436 36.18 27.4569 36.06 27.4836 35.82C27.5236 35.5667 27.5636 35.28 27.6036 34.96C27.6569 34.6267 27.7103 34.3333 27.7636 34.08L29.5836 25.28H31.5836L28.5236 39H26.0636L24.2636 30.06C24.2236 29.8733 24.1836 29.6533 24.1436 29.4C24.1036 29.1467 24.0703 28.9 24.0436 28.66C24.0169 28.42 23.9903 28.2267 23.9636 28.08C23.9503 27.92 23.9436 27.84 23.9436 27.84H23.8636C23.8636 27.84 23.8503 27.9267 23.8236 28.1C23.8103 28.26 23.7836 28.46 23.7436 28.7C23.7169 28.94 23.6836 29.1867 23.6436 29.44C23.6169 29.68 23.5836 29.8867 23.5436 30.06L21.7836 39H19.3036ZM34.1664 39.24C33.9264 39.24 33.6464 39.2 33.3264 39.12C33.0197 39.04 32.7264 38.9 32.4464 38.7C32.1664 38.4867 31.9331 38.1867 31.7464 37.8C31.5731 37.4133 31.4864 36.9067 31.4864 36.28C31.4864 35.32 31.7131 34.58 32.1664 34.06C32.6197 33.54 33.2397 33.18 34.0264 32.98C34.8264 32.7667 35.7331 32.66 36.7464 32.66V31.46C36.7464 31.06 36.6597 30.72 36.4864 30.44C36.3264 30.16 35.9797 30.02 35.4464 30.02C34.9131 30.02 34.5464 30.16 34.3464 30.44C34.1597 30.72 34.0664 31.0133 34.0664 31.32V31.6H31.9664C31.9531 31.5333 31.9464 31.4667 31.9464 31.4C31.9464 31.3333 31.9464 31.2533 31.9464 31.16C31.9464 30.2533 32.2664 29.54 32.9064 29.02C33.5464 28.5 34.3931 28.24 35.4464 28.24C36.6197 28.24 37.4864 28.5067 38.0464 29.04C38.6064 29.5733 38.8864 30.32 38.8864 31.28V36.72C38.8864 36.9733 38.9464 37.1533 39.0664 37.26C39.1864 37.3667 39.3131 37.42 39.4464 37.42H39.9864V38.92C39.8664 38.9867 39.6997 39.0533 39.4864 39.12C39.2731 39.1867 39.0064 39.22 38.6864 39.22C38.2197 39.22 37.8331 39.0933 37.5264 38.84C37.2197 38.5867 37.0064 38.26 36.8864 37.86H36.7864C36.5064 38.2733 36.1597 38.6067 35.7464 38.86C35.3464 39.1133 34.8197 39.24 34.1664 39.24ZM34.9464 37.42C35.3197 37.42 35.6397 37.32 35.9064 37.12C36.1731 36.9067 36.3797 36.62 36.5264 36.26C36.6731 35.9 36.7464 35.4867 36.7464 35.02V34.3C36.1864 34.3 35.6731 34.3533 35.2064 34.46C34.7531 34.5533 34.3864 34.7333 34.1064 35C33.8264 35.2533 33.6864 35.62 33.6864 36.1C33.6864 36.54 33.7864 36.8733 33.9864 37.1C34.1997 37.3133 34.5197 37.42 34.9464 37.42ZM41.3275 39V28.48H43.0675L43.3275 29.96H43.4475C43.5808 29.5333 43.7808 29.14 44.0475 28.78C44.3275 28.42 44.7275 28.24 45.2475 28.24C45.5275 28.24 45.7475 28.2667 45.9075 28.32C46.0808 28.3733 46.1675 28.4 46.1675 28.4V30.5H45.4275C45.0808 30.5 44.7542 30.58 44.4475 30.74C44.1542 30.8867 43.9142 31.1333 43.7275 31.48C43.5542 31.8267 43.4675 32.3133 43.4675 32.94V39H41.3275ZM51.0022 39.24C49.6689 39.24 48.6555 38.8 47.9622 37.92C47.2822 37.04 46.9422 35.6467 46.9422 33.74C46.9422 31.8467 47.2822 30.46 47.9622 29.58C48.6555 28.6867 49.6489 28.24 50.9422 28.24C52.1689 28.24 53.0889 28.6667 53.7022 29.52C54.3289 30.36 54.6422 31.7 54.6422 33.54V34.3H49.1622C49.1755 35.3267 49.3222 36.1133 49.6022 36.66C49.8955 37.1933 50.3689 37.46 51.0222 37.46C51.4755 37.46 51.8355 37.2733 52.1022 36.9C52.3822 36.5133 52.5222 35.9867 52.5222 35.32H54.6422C54.6422 36.6133 54.2955 37.5933 53.6022 38.26C52.9222 38.9133 52.0555 39.24 51.0022 39.24ZM49.1822 32.66H52.3822C52.3822 31.82 52.2622 31.1733 52.0222 30.72C51.7955 30.2533 51.4355 30.02 50.9422 30.02C50.3689 30.02 49.9422 30.2467 49.6622 30.7C49.3955 31.1533 49.2355 31.8067 49.1822 32.66ZM56.5033 39V24.54H58.6433V29.6H58.7233C58.9633 29.2133 59.2899 28.8933 59.7033 28.64C60.1299 28.3733 60.6299 28.24 61.2033 28.24C62.0166 28.24 62.6766 28.4867 63.1833 28.98C63.6899 29.4733 63.9433 30.3333 63.9433 31.56V39H61.8033V32.02C61.8033 31.3267 61.6766 30.8467 61.4233 30.58C61.1699 30.3133 60.8233 30.18 60.3833 30.18C59.9033 30.18 59.4899 30.4 59.1433 30.84C58.8099 31.28 58.6433 31.8467 58.6433 32.54V39H56.5033ZM69.9498 39.24C68.6165 39.24 67.6098 38.8 66.9298 37.92C66.2498 37.0267 65.9098 35.6333 65.9098 33.74C65.9098 31.8467 66.2498 30.46 66.9298 29.58C67.6098 28.6867 68.6165 28.24 69.9498 28.24C71.2965 28.24 72.3098 28.6867 72.9898 29.58C73.6698 30.46 74.0098 31.8467 74.0098 33.74C74.0098 35.6333 73.6698 37.0267 72.9898 37.92C72.3098 38.8 71.2965 39.24 69.9498 39.24ZM69.9498 37.42C70.5898 37.42 71.0498 37.14 71.3298 36.58C71.6232 36.02 71.7698 35.2 71.7698 34.12V33.36C71.7698 32.28 71.6232 31.46 71.3298 30.9C71.0498 30.34 70.5898 30.06 69.9498 30.06C69.3098 30.06 68.8432 30.34 68.5498 30.9C68.2698 31.46 68.1298 32.28 68.1298 33.36V34.12C68.1298 35.2 68.2698 36.02 68.5498 36.58C68.8432 37.14 69.3098 37.42 69.9498 37.42ZM78.6764 39.24C77.8764 39.24 77.2231 38.9933 76.7164 38.5C76.2097 38.0067 75.9564 37.1467 75.9564 35.92V28.48H78.0964V35.46C78.0964 36.1533 78.2164 36.6333 78.4564 36.9C78.7097 37.1667 79.0564 37.3 79.4964 37.3C79.9897 37.3 80.4031 37.0867 80.7364 36.66C81.0831 36.2333 81.2564 35.6667 81.2564 34.96V28.48H83.3964V39H81.6564L81.4164 37.72H81.2964C81.0297 38.1733 80.6764 38.54 80.2364 38.82C79.7964 39.1 79.2764 39.24 78.6764 39.24ZM88.863 39.24C88.063 39.24 87.3896 39.1 86.843 38.82C86.2963 38.5267 85.883 38.14 85.603 37.66C85.3363 37.1667 85.203 36.6067 85.203 35.98C85.203 35.9 85.203 35.8333 85.203 35.78C85.2163 35.7133 85.223 35.68 85.223 35.68H87.423V35.84C87.423 36.4267 87.583 36.8467 87.903 37.1C88.223 37.34 88.5696 37.46 88.943 37.46C89.303 37.46 89.6363 37.36 89.943 37.16C90.263 36.96 90.423 36.6333 90.423 36.18C90.423 35.78 90.2963 35.4733 90.043 35.26C89.803 35.0467 89.4896 34.88 89.103 34.76C88.7296 34.6267 88.3296 34.5 87.903 34.38C87.4763 34.2467 87.0696 34.0733 86.683 33.86C86.3096 33.6467 85.9963 33.3467 85.743 32.96C85.503 32.56 85.383 32.0333 85.383 31.38C85.383 30.6867 85.5363 30.1067 85.843 29.64C86.163 29.1733 86.5963 28.8267 87.143 28.6C87.6896 28.36 88.303 28.24 88.983 28.24C89.6496 28.24 90.2363 28.36 90.743 28.6C91.2496 28.84 91.643 29.1733 91.923 29.6C92.2163 30.0267 92.363 30.5267 92.363 31.1C92.363 31.1933 92.3563 31.2867 92.343 31.38C92.343 31.4733 92.343 31.5267 92.343 31.54H90.163V31.46C90.1496 31.0067 90.0363 30.6533 89.823 30.4C89.623 30.1467 89.3096 30.02 88.883 30.02C88.5896 30.02 88.343 30.08 88.143 30.2C87.9563 30.3067 87.8163 30.4467 87.723 30.62C87.6296 30.7933 87.583 30.9867 87.583 31.2C87.583 31.5467 87.703 31.8133 87.943 32C88.183 32.1867 88.4896 32.34 88.863 32.46C89.2496 32.58 89.6563 32.7 90.083 32.82C90.5096 32.94 90.9163 33.1133 91.303 33.34C91.6896 33.5533 92.003 33.8667 92.243 34.28C92.483 34.68 92.603 35.22 92.603 35.9C92.603 36.7133 92.4363 37.3667 92.103 37.86C91.783 38.34 91.343 38.6933 90.783 38.92C90.223 39.1333 89.583 39.24 88.863 39.24ZM98.1116 39.24C96.7782 39.24 95.7649 38.8 95.0716 37.92C94.3916 37.04 94.0516 35.6467 94.0516 33.74C94.0516 31.8467 94.3916 30.46 95.0716 29.58C95.7649 28.6867 96.7582 28.24 98.0516 28.24C99.2782 28.24 100.198 28.6667 100.812 29.52C101.438 30.36 101.752 31.7 101.752 33.54V34.3H96.2716C96.2849 35.3267 96.4316 36.1133 96.7116 36.66C97.0049 37.1933 97.4782 37.46 98.1316 37.46C98.5849 37.46 98.9449 37.2733 99.2116 36.9C99.4916 36.5133 99.6316 35.9867 99.6316 35.32H101.752C101.752 36.6133 101.405 37.5933 100.712 38.26C100.032 38.9133 99.1649 39.24 98.1116 39.24ZM96.2916 32.66H99.4916C99.4916 31.82 99.3716 31.1733 99.1316 30.72C98.9049 30.2533 98.5449 30.02 98.0516 30.02C97.4782 30.02 97.0516 30.2467 96.7716 30.7C96.5049 31.1533 96.3449 31.8067 96.2916 32.66ZM112.274 39V38.6C112.274 37.92 112.394 37.2933 112.634 36.72C112.888 36.1333 113.201 35.58 113.574 35.06C113.974 34.5267 114.408 34.0067 114.874 33.5C115.354 32.9933 115.808 32.4867 116.234 31.98C116.661 31.4733 117.008 30.94 117.274 30.38C117.554 29.82 117.694 29.22 117.694 28.58C117.694 28.34 117.648 28.0933 117.554 27.84C117.474 27.5733 117.328 27.3533 117.114 27.18C116.901 27.0067 116.601 26.92 116.214 26.92C115.654 26.92 115.254 27.1467 115.014 27.6C114.774 28.04 114.654 28.5667 114.654 29.18V30H112.454C112.454 30 112.441 29.9267 112.414 29.78C112.401 29.6333 112.394 29.44 112.394 29.2C112.394 28.2133 112.574 27.42 112.934 26.82C113.294 26.2067 113.768 25.76 114.354 25.48C114.954 25.1867 115.601 25.04 116.294 25.04C116.974 25.04 117.588 25.16 118.134 25.4C118.681 25.64 119.114 26.0267 119.434 26.56C119.768 27.08 119.934 27.76 119.934 28.6C119.934 29.2533 119.821 29.88 119.594 30.48C119.368 31.0667 119.074 31.6333 118.714 32.18C118.354 32.7133 117.961 33.22 117.534 33.7C117.121 34.18 116.721 34.6333 116.334 35.06C115.948 35.4867 115.614 35.9 115.334 36.3C115.254 36.42 115.181 36.5333 115.114 36.64C115.048 36.7467 114.988 36.8533 114.934 36.96H119.994V39H112.274ZM125.255 39.24C123.962 39.24 122.969 38.8667 122.275 38.12C121.595 37.3733 121.255 36.3733 121.255 35.12V34.82H123.475V35.18C123.475 35.9 123.622 36.4533 123.915 36.84C124.209 37.2267 124.635 37.42 125.195 37.42C125.715 37.42 126.135 37.24 126.455 36.88C126.775 36.52 126.935 35.96 126.935 35.2C126.935 34.6 126.849 34.14 126.675 33.82C126.502 33.4867 126.269 33.26 125.975 33.14C125.695 33.0067 125.395 32.94 125.075 32.94H124.255V31.12H125.115C125.555 31.12 125.929 30.94 126.235 30.58C126.542 30.2067 126.695 29.6467 126.695 28.9C126.695 28.1933 126.555 27.68 126.275 27.36C125.995 27.0267 125.642 26.86 125.215 26.86C124.762 26.86 124.395 27.04 124.115 27.4C123.849 27.7467 123.715 28.2733 123.715 28.98V29.3H121.495V28.8C121.495 28.04 121.655 27.38 121.975 26.82C122.295 26.2467 122.729 25.8067 123.275 25.5C123.835 25.1933 124.475 25.04 125.195 25.04C126.302 25.04 127.195 25.36 127.875 26C128.569 26.64 128.915 27.5733 128.915 28.8C128.915 29.6133 128.742 30.26 128.395 30.74C128.062 31.2067 127.642 31.5867 127.135 31.88V31.96C127.722 32.1733 128.202 32.56 128.575 33.12C128.962 33.68 129.155 34.4133 129.155 35.32C129.155 36.1333 128.989 36.8333 128.655 37.42C128.322 38.0067 127.862 38.46 127.275 38.78C126.689 39.0867 126.015 39.24 125.255 39.24Z" fill="black"/>
<path d="M21.104 70.192C19.7173 70.192 18.6507 69.7227 17.904 68.784C17.1573 67.8347 16.784 66.4107 16.784 64.512C16.784 62.6027 17.1733 61.1787 17.952 60.24C18.7413 59.3013 19.8187 58.832 21.184 58.832C21.952 58.832 22.6347 58.976 23.232 59.264C23.8293 59.552 24.2987 59.9893 24.64 60.576C24.992 61.152 25.168 61.8827 25.168 62.768H23.728C23.728 61.8507 23.4933 61.184 23.024 60.768C22.5547 60.3413 21.9413 60.128 21.184 60.128C20.2773 60.128 19.5627 60.4587 19.04 61.12C18.5173 61.7813 18.256 62.7787 18.256 64.112V64.912C18.256 66.2453 18.5013 67.2427 18.992 67.904C19.4827 68.5653 20.1867 68.896 21.104 68.896C22.0213 68.896 22.688 68.64 23.104 68.128C23.52 67.6053 23.728 66.8213 23.728 65.776V64.928L24.32 65.52H20.88V64.288H25.168V70H24.24L23.936 68.784C23.6053 69.2747 23.2 69.632 22.72 69.856C22.24 70.08 21.7013 70.192 21.104 70.192ZM27.1631 70V61.584H28.1551L28.3311 62.688H28.4271C28.5338 62.368 28.6991 62.0747 28.9231 61.808C29.1471 61.5307 29.4565 61.392 29.8511 61.392C30.0325 61.392 30.1818 61.4133 30.2991 61.456C30.4165 61.4987 30.4751 61.52 30.4751 61.52V62.88H30.0431C29.7658 62.88 29.5045 62.944 29.2591 63.072C29.0245 63.1893 28.8325 63.392 28.6831 63.68C28.5445 63.968 28.4751 64.3627 28.4751 64.864V70H27.1631ZM34.2261 70.192C33.2448 70.192 32.4981 69.84 31.9861 69.136C31.4741 68.4213 31.2181 67.3067 31.2181 65.792C31.2181 64.2773 31.4741 63.168 31.9861 62.464C32.4981 61.7493 33.2448 61.392 34.2261 61.392C35.2075 61.392 35.9541 61.7493 36.4661 62.464C36.9781 63.168 37.2341 64.2773 37.2341 65.792C37.2341 67.3067 36.9781 68.4213 36.4661 69.136C35.9541 69.84 35.2075 70.192 34.2261 70.192ZM34.2261 69.024C34.7701 69.024 35.1755 68.7787 35.4421 68.288C35.7195 67.7973 35.8581 67.0667 35.8581 66.096V65.488C35.8581 64.5173 35.7195 63.7867 35.4421 63.296C35.1755 62.8053 34.7701 62.56 34.2261 62.56C33.6821 62.56 33.2715 62.8053 32.9941 63.296C32.7275 63.7867 32.5941 64.5173 32.5941 65.488V66.096C32.5941 67.0667 32.7275 67.7973 32.9941 68.288C33.2715 68.7787 33.6821 69.024 34.2261 69.024ZM40.915 70.192C40.2857 70.192 39.779 70.0053 39.395 69.632C39.0217 69.248 38.835 68.5867 38.835 67.648V61.584H40.147V67.552C40.147 68.1387 40.2537 68.5333 40.467 68.736C40.691 68.928 40.979 69.024 41.331 69.024C41.747 69.024 42.1097 68.8213 42.419 68.416C42.739 68.0107 42.899 67.4453 42.899 66.72V61.584H44.211V70H43.219L43.043 69.024H42.947C42.7123 69.44 42.419 69.7387 42.067 69.92C41.715 70.1013 41.331 70.192 40.915 70.192ZM46.1319 70V61.584H47.1239L47.2999 62.56H47.3959C47.6305 62.144 47.9239 61.8453 48.2759 61.664C48.6279 61.4827 49.0119 61.392 49.4279 61.392C50.0572 61.392 50.5585 61.584 50.9319 61.968C51.3159 62.3413 51.5079 62.9973 51.5079 63.936V70H50.1959V64.032C50.1959 63.4453 50.0839 63.056 49.8599 62.864C49.6465 62.6613 49.3639 62.56 49.0119 62.56C48.5959 62.56 48.2279 62.7627 47.9079 63.168C47.5985 63.5733 47.4439 64.1387 47.4439 64.864V70H46.1319ZM55.7168 70.192C54.9168 70.192 54.2821 69.8453 53.8128 69.152C53.3434 68.448 53.1088 67.3227 53.1088 65.776C53.1088 64.752 53.2208 63.92 53.4448 63.28C53.6688 62.6293 53.9728 62.1547 54.3568 61.856C54.7408 61.5467 55.1621 61.392 55.6208 61.392C56.0261 61.392 56.3888 61.4827 56.7088 61.664C57.0394 61.8347 57.2741 62.0747 57.4128 62.384H57.4928V58.432H58.8048V70H57.8128L57.6368 69.024H57.5568C57.3541 69.408 57.0928 69.7013 56.7728 69.904C56.4528 70.096 56.1008 70.192 55.7168 70.192ZM55.9888 69.024C56.4901 69.024 56.8634 68.7787 57.1088 68.288C57.3648 67.7973 57.4928 67.0667 57.4928 66.096V65.552C57.4928 64.56 57.3648 63.8133 57.1088 63.312C56.8634 62.8107 56.4901 62.56 55.9888 62.56C55.4874 62.56 55.1088 62.7893 54.8528 63.248C54.6074 63.696 54.4848 64.4427 54.4848 65.488V66.096C54.4848 67.1413 54.6074 67.8933 54.8528 68.352C55.1088 68.8 55.4874 69.024 55.9888 69.024ZM64.5263 70V59.024H70.8623V60.304H65.9343V63.856H70.2863V65.136H65.9343V70H64.5263ZM72.2219 70V58.432H73.5339V70H72.2219ZM77.9761 70.192C76.9948 70.192 76.2481 69.84 75.7361 69.136C75.2241 68.4213 74.9681 67.3067 74.9681 65.792C74.9681 64.2773 75.2241 63.168 75.7361 62.464C76.2481 61.7493 76.9948 61.392 77.9761 61.392C78.9575 61.392 79.7041 61.7493 80.2161 62.464C80.7281 63.168 80.9841 64.2773 80.9841 65.792C80.9841 67.3067 80.7281 68.4213 80.2161 69.136C79.7041 69.84 78.9575 70.192 77.9761 70.192ZM77.9761 69.024C78.5201 69.024 78.9255 68.7787 79.1921 68.288C79.4695 67.7973 79.6081 67.0667 79.6081 66.096V65.488C79.6081 64.5173 79.4695 63.7867 79.1921 63.296C78.9255 62.8053 78.5201 62.56 77.9761 62.56C77.4321 62.56 77.0215 62.8053 76.7441 63.296C76.4775 63.7867 76.3441 64.5173 76.3441 65.488V66.096C76.3441 67.0667 76.4775 67.7973 76.7441 68.288C77.0215 68.7787 77.4321 69.024 77.9761 69.024ZM85.273 70.192C84.2917 70.192 83.545 69.84 83.033 69.136C82.521 68.4213 82.265 67.3067 82.265 65.792C82.265 64.2773 82.521 63.168 83.033 62.464C83.545 61.7493 84.2917 61.392 85.273 61.392C86.2543 61.392 87.001 61.7493 87.513 62.464C88.025 63.168 88.281 64.2773 88.281 65.792C88.281 67.3067 88.025 68.4213 87.513 69.136C87.001 69.84 86.2543 70.192 85.273 70.192ZM85.273 69.024C85.817 69.024 86.2223 68.7787 86.489 68.288C86.7663 67.7973 86.905 67.0667 86.905 66.096V65.488C86.905 64.5173 86.7663 63.7867 86.489 63.296C86.2223 62.8053 85.817 62.56 85.273 62.56C84.729 62.56 84.3183 62.8053 84.041 63.296C83.7743 63.7867 83.641 64.5173 83.641 65.488V66.096C83.641 67.0667 83.7743 67.7973 84.041 68.288C84.3183 68.7787 84.729 69.024 85.273 69.024ZM89.8819 70V61.584H90.8739L91.0499 62.688H91.1459C91.2525 62.368 91.4179 62.0747 91.6419 61.808C91.8659 61.5307 92.1752 61.392 92.5699 61.392C92.7512 61.392 92.9005 61.4133 93.0179 61.456C93.1352 61.4987 93.1939 61.52 93.1939 61.52V62.88H92.7619C92.4845 62.88 92.2232 62.944 91.9779 63.072C91.7432 63.1893 91.5512 63.392 91.4019 63.68C91.2632 63.968 91.1939 64.3627 91.1939 64.864V70H89.8819ZM94.3209 63.312V61.584H95.9209V63.312H94.3209ZM94.3209 70V68.272H95.9209V70H94.3209Z" fill="black" fill-opacity="0.5"/>
<path d="M17.12 92V81.024H23.456V82.304H18.528V85.856H22.88V87.136H18.528V92H17.12ZM25.1836 92V83.584H26.4956V92H25.1836ZM25.1516 81.952V80.432H26.5116V81.952H25.1516ZM28.6163 92V83.584H29.6083L29.7843 84.688H29.8803C29.9869 84.368 30.1523 84.0747 30.3763 83.808C30.6003 83.5307 30.9096 83.392 31.3043 83.392C31.4856 83.392 31.6349 83.4133 31.7523 83.456C31.8696 83.4987 31.9283 83.52 31.9283 83.52V84.88H31.4963C31.2189 84.88 30.9576 84.944 30.7123 85.072C30.4776 85.1893 30.2856 85.392 30.1363 85.68C29.9976 85.968 29.9283 86.3627 29.9283 86.864V92H28.6163ZM35.2633 92.192C34.6233 92.192 34.1006 92.0747 33.6953 91.84C33.3006 91.5947 33.0126 91.2853 32.8313 90.912C32.6499 90.5387 32.5592 90.144 32.5592 89.728C32.5592 89.6107 32.5592 89.5253 32.5592 89.472C32.5699 89.4187 32.5753 89.3867 32.5753 89.376H33.9513V89.536C33.9513 90.0587 34.0846 90.4427 34.3513 90.688C34.6179 90.9227 34.9433 91.04 35.3273 91.04C35.6686 91.04 35.9619 90.9333 36.2073 90.72C36.4633 90.5067 36.5913 90.1973 36.5913 89.792C36.5913 89.44 36.4953 89.168 36.3033 88.976C36.1219 88.7733 35.8873 88.6133 35.5993 88.496C35.3113 88.368 35.0019 88.2507 34.6713 88.144C34.3406 88.0267 34.0313 87.8827 33.7433 87.712C33.4553 87.5413 33.2153 87.3067 33.0233 87.008C32.8419 86.6987 32.7513 86.2933 32.7513 85.792C32.7513 85.2907 32.8579 84.864 33.0713 84.512C33.2846 84.1493 33.5886 83.872 33.9833 83.68C34.3779 83.488 34.8419 83.392 35.3753 83.392C35.8979 83.392 36.3353 83.4987 36.6873 83.712C37.0499 83.9147 37.3219 84.192 37.5033 84.544C37.6953 84.896 37.7913 85.28 37.7913 85.696C37.7913 85.7493 37.7859 85.808 37.7753 85.872C37.7753 85.936 37.7753 85.9787 37.7753 86H36.4153V85.856C36.4153 85.5253 36.3299 85.2267 36.1593 84.96C35.9993 84.6827 35.6953 84.544 35.2473 84.544C34.9379 84.544 34.6979 84.608 34.5273 84.736C34.3673 84.864 34.2553 85.0187 34.1913 85.2C34.1379 85.3707 34.1113 85.536 34.1113 85.696C34.1113 86.0053 34.2019 86.2453 34.3832 86.416C34.5753 86.5867 34.8153 86.7253 35.1033 86.832C35.3913 86.9387 35.7006 87.0507 36.0312 87.168C36.3619 87.2747 36.6713 87.4187 36.9593 87.6C37.2473 87.7813 37.4819 88.032 37.6633 88.352C37.8553 88.6613 37.9513 89.0773 37.9513 89.6C37.9513 90.1973 37.8339 90.688 37.5993 91.072C37.3646 91.456 37.0446 91.7387 36.6393 91.92C36.2446 92.1013 35.7859 92.192 35.2633 92.192ZM41.0418 92.16C40.6578 92.16 40.3538 92.064 40.1298 91.872C39.9164 91.68 39.7618 91.44 39.6658 91.152C39.5804 90.8533 39.5378 90.544 39.5378 90.224V84.752H38.8178V83.584H39.5378L39.8258 81.248H40.8498V83.584H41.9858V84.752H40.8498V90.256C40.8498 90.768 41.1004 91.024 41.6018 91.024H41.9858V91.936C41.8791 92 41.7351 92.0533 41.5538 92.096C41.3724 92.1387 41.2018 92.16 41.0418 92.16ZM46.995 92V81.024H53.331V82.304H48.403V85.856H52.755V87.136H48.403V92H46.995ZM54.6906 92V80.432H56.0026V92H54.6906ZM60.4449 92.192C59.4635 92.192 58.7169 91.84 58.2049 91.136C57.6929 90.4213 57.4369 89.3067 57.4369 87.792C57.4369 86.2773 57.6929 85.168 58.2049 84.464C58.7169 83.7493 59.4635 83.392 60.4449 83.392C61.4262 83.392 62.1729 83.7493 62.6849 84.464C63.1969 85.168 63.4529 86.2773 63.4529 87.792C63.4529 89.3067 63.1969 90.4213 62.6849 91.136C62.1729 91.84 61.4262 92.192 60.4449 92.192ZM60.4449 91.024C60.9889 91.024 61.3942 90.7787 61.6609 90.288C61.9382 89.7973 62.0769 89.0667 62.0769 88.096V87.488C62.0769 86.5173 61.9382 85.7867 61.6609 85.296C61.3942 84.8053 60.9889 84.56 60.4449 84.56C59.9009 84.56 59.4902 84.8053 59.2129 85.296C58.9462 85.7867 58.8129 86.5173 58.8129 87.488V88.096C58.8129 89.0667 58.9462 89.7973 59.2129 90.288C59.4902 90.7787 59.9009 91.024 60.4449 91.024ZM67.7418 92.192C66.7604 92.192 66.0138 91.84 65.5018 91.136C64.9898 90.4213 64.7338 89.3067 64.7338 87.792C64.7338 86.2773 64.9898 85.168 65.5018 84.464C66.0138 83.7493 66.7604 83.392 67.7418 83.392C68.7231 83.392 69.4698 83.7493 69.9818 84.464C70.4938 85.168 70.7498 86.2773 70.7498 87.792C70.7498 89.3067 70.4938 90.4213 69.9818 91.136C69.4698 91.84 68.7231 92.192 67.7418 92.192ZM67.7418 91.024C68.2858 91.024 68.6911 90.7787 68.9578 90.288C69.2351 89.7973 69.3738 89.0667 69.3738 88.096V87.488C69.3738 86.5173 69.2351 85.7867 68.9578 85.296C68.6911 84.8053 68.2858 84.56 67.7418 84.56C67.1978 84.56 66.7871 84.8053 66.5098 85.296C66.2431 85.7867 66.1098 86.5173 66.1098 87.488V88.096C66.1098 89.0667 66.2431 89.7973 66.5098 90.288C66.7871 90.7787 67.1978 91.024 67.7418 91.024ZM72.3506 92V83.584H73.3426L73.5186 84.688H73.6146C73.7213 84.368 73.8866 84.0747 74.1106 83.808C74.3346 83.5307 74.644 83.392 75.0386 83.392C75.22 83.392 75.3693 83.4133 75.4866 83.456C75.604 83.4987 75.6626 83.52 75.6626 83.52V84.88H75.2306C74.9533 84.88 74.692 84.944 74.4466 85.072C74.212 85.1893 74.02 85.392 73.8706 85.68C73.732 85.968 73.6626 86.3627 73.6626 86.864V92H72.3506ZM76.7896 85.312V83.584H78.3896V85.312H76.7896ZM76.7896 92V90.272H78.3896V92H76.7896Z" fill="black" fill-opacity="0.5"/>
<path d="M19.2 114V104.48H16.288V103.024H23.712V104.48H20.816V114H19.2ZM26.4788 114.192C25.4548 114.192 24.6761 113.84 24.1428 113.136C23.6201 112.421 23.3588 111.307 23.3588 109.792C23.3588 108.277 23.6201 107.168 24.1428 106.464C24.6761 105.749 25.4548 105.392 26.4788 105.392C27.5028 105.392 28.2761 105.749 28.7988 106.464C29.3321 107.168 29.5988 108.277 29.5988 109.792C29.5988 111.307 29.3321 112.421 28.7988 113.136C28.2761 113.84 27.5028 114.192 26.4788 114.192ZM26.4788 112.88C27.0121 112.88 27.4014 112.645 27.6468 112.176C27.9028 111.707 28.0308 111.013 28.0308 110.096V109.488C28.0308 108.571 27.9028 107.877 27.6468 107.408C27.4014 106.939 27.0121 106.704 26.4788 106.704C25.9561 106.704 25.5668 106.939 25.3108 107.408C25.0654 107.877 24.9428 108.571 24.9428 109.488V110.096C24.9428 111.013 25.0654 111.707 25.3108 112.176C25.5668 112.645 25.9561 112.88 26.4788 112.88ZM32.8424 114.176C32.4264 114.176 32.0957 114.075 31.8504 113.872C31.6157 113.669 31.445 113.413 31.3384 113.104C31.2424 112.795 31.1944 112.469 31.1944 112.128V106.896H30.4264V105.584H31.1944L31.4824 103.232H32.6984V105.584H33.8664V106.896H32.6984V112.144C32.6984 112.635 32.9384 112.88 33.4184 112.88H33.8664V113.952C33.749 114.016 33.589 114.069 33.3864 114.112C33.1944 114.155 33.013 114.176 32.8424 114.176ZM36.7334 114.192C36.5307 114.192 36.3014 114.16 36.0454 114.096C35.8 114.043 35.56 113.931 35.3254 113.76C35.1014 113.589 34.9147 113.349 34.7654 113.04C34.6267 112.731 34.5574 112.325 34.5574 111.824C34.5574 111.056 34.7387 110.469 35.1014 110.064C35.464 109.648 35.9654 109.36 36.6054 109.2C37.2454 109.04 37.9707 108.96 38.7814 108.96V107.952C38.7814 107.579 38.7014 107.275 38.5414 107.04C38.392 106.805 38.0774 106.688 37.5974 106.688C37.1387 106.688 36.824 106.816 36.6534 107.072C36.4827 107.328 36.3974 107.595 36.3974 107.872V108.08H34.9094C34.8987 108.027 34.8934 107.973 34.8934 107.92C34.8934 107.867 34.8934 107.803 34.8934 107.728C34.8934 106.981 35.1494 106.405 35.6614 106C36.1734 105.595 36.8347 105.392 37.6454 105.392C38.5414 105.392 39.2027 105.6 39.6294 106.016C40.0667 106.432 40.2854 107.024 40.2854 107.792V112.32C40.2854 112.523 40.3334 112.667 40.4294 112.752C40.5254 112.837 40.6267 112.88 40.7334 112.88H41.2134V113.936C41.128 113.979 41.0054 114.021 40.8454 114.064C40.696 114.117 40.504 114.144 40.2694 114.144C39.9067 114.144 39.608 114.048 39.3734 113.856C39.1387 113.664 38.9734 113.408 38.8774 113.088H38.7974C38.584 113.429 38.3067 113.701 37.9654 113.904C37.624 114.096 37.2134 114.192 36.7334 114.192ZM37.1974 112.88C37.4854 112.88 37.7467 112.805 37.9814 112.656C38.216 112.496 38.408 112.267 38.5574 111.968C38.7067 111.659 38.7814 111.296 38.7814 110.88V110.208C38.2694 110.208 37.8107 110.251 37.4054 110.336C37.0107 110.411 36.696 110.555 36.4614 110.768C36.2267 110.981 36.1094 111.296 36.1094 111.712C36.1094 112.128 36.2 112.427 36.3814 112.608C36.5734 112.789 36.8454 112.88 37.1974 112.88ZM42.2223 114V102.432H43.7263V114H42.2223ZM47.5465 114L51.0505 103.024H53.0505L56.5545 114H54.8425L54.1225 111.648H49.8665L49.1465 114H47.5465ZM50.2985 110.192H53.6745L52.2985 105.696C52.2665 105.547 52.2238 105.371 52.1705 105.168C52.1278 104.965 52.0905 104.789 52.0585 104.64C52.0372 104.48 52.0265 104.4 52.0265 104.4H51.9625C51.9625 104.4 51.9465 104.48 51.9145 104.64C51.8932 104.8 51.8612 104.981 51.8185 105.184C51.7758 105.387 51.7332 105.557 51.6905 105.696L50.2985 110.192ZM57.4593 114V105.584H58.6432L58.8353 106.736H58.9313C59.0486 106.405 59.2139 106.101 59.4273 105.824C59.6513 105.536 59.9659 105.392 60.3713 105.392C60.5739 105.392 60.7339 105.413 60.8513 105.456C60.9793 105.499 61.0433 105.52 61.0433 105.52V107.04H60.5312C60.2539 107.04 59.9926 107.099 59.7473 107.216C59.5126 107.333 59.3206 107.536 59.1713 107.824C59.0326 108.112 58.9633 108.507 58.9633 109.008V114H57.4593ZM64.9806 114.192C63.9246 114.192 63.1246 113.845 62.5806 113.152C62.0366 112.459 61.7646 111.339 61.7646 109.792C61.7646 108.277 62.0313 107.168 62.5646 106.464C63.098 105.749 63.8926 105.392 64.9486 105.392C65.898 105.392 66.6073 105.717 67.0766 106.368C67.5566 107.008 67.7966 108.048 67.7966 109.488V110.208H63.3326C63.3433 111.115 63.482 111.792 63.7486 112.24C64.0153 112.677 64.4313 112.896 64.9966 112.896C65.3913 112.896 65.706 112.736 65.9406 112.416C66.186 112.096 66.3086 111.659 66.3086 111.104H67.7966C67.7966 112.085 67.5353 112.848 67.0126 113.392C66.49 113.925 65.8126 114.192 64.9806 114.192ZM63.3486 108.96H66.2286C66.2286 108.224 66.122 107.664 65.9086 107.28C65.6953 106.885 65.3753 106.688 64.9486 106.688C64.4153 106.688 64.026 106.88 63.7806 107.264C63.5353 107.648 63.3913 108.213 63.3486 108.96ZM71.0615 114.192C70.8588 114.192 70.6295 114.16 70.3735 114.096C70.1282 114.043 69.8882 113.931 69.6535 113.76C69.4295 113.589 69.2428 113.349 69.0935 113.04C68.9548 112.731 68.8855 112.325 68.8855 111.824C68.8855 111.056 69.0668 110.469 69.4295 110.064C69.7922 109.648 70.2935 109.36 70.9335 109.2C71.5735 109.04 72.2988 108.96 73.1095 108.96V107.952C73.1095 107.579 73.0295 107.275 72.8695 107.04C72.7202 106.805 72.4055 106.688 71.9255 106.688C71.4668 106.688 71.1522 106.816 70.9815 107.072C70.8108 107.328 70.7255 107.595 70.7255 107.872V108.08H69.2375C69.2268 108.027 69.2215 107.973 69.2215 107.92C69.2215 107.867 69.2215 107.803 69.2215 107.728C69.2215 106.981 69.4775 106.405 69.9895 106C70.5015 105.595 71.1628 105.392 71.9735 105.392C72.8695 105.392 73.5308 105.6 73.9575 106.016C74.3948 106.432 74.6135 107.024 74.6135 107.792V112.32C74.6135 112.523 74.6615 112.667 74.7575 112.752C74.8535 112.837 74.9548 112.88 75.0615 112.88H75.5415V113.936C75.4562 113.979 75.3335 114.021 75.1735 114.064C75.0242 114.117 74.8322 114.144 74.5975 114.144C74.2348 114.144 73.9362 114.048 73.7015 113.856C73.4668 113.664 73.3015 113.408 73.2055 113.088H73.1255C72.9122 113.429 72.6348 113.701 72.2935 113.904C71.9522 114.096 71.5415 114.192 71.0615 114.192ZM71.5255 112.88C71.8135 112.88 72.0748 112.805 72.3095 112.656C72.5442 112.496 72.7362 112.267 72.8855 111.968C73.0348 111.659 73.1095 111.296 73.1095 110.88V110.208C72.5975 110.208 72.1388 110.251 71.7335 110.336C71.3388 110.411 71.0242 110.555 70.7895 110.768C70.5548 110.981 70.4375 111.296 70.4375 111.712C70.4375 112.128 70.5282 112.427 70.7095 112.608C70.9015 112.789 71.1735 112.88 71.5255 112.88ZM76.7104 107.456V105.584H78.5024V107.456H76.7104ZM76.7104 114V112.128H78.5024V114H76.7104Z" fill="black"/>
<path d="M180.732 70V67.296H176.492V66.112C176.876 65.408 177.244 64.656 177.596 63.856C177.948 63.0453 178.273 62.2133 178.572 61.36C178.871 60.5067 179.127 59.664 179.34 58.832H180.668C180.519 59.568 180.311 60.32 180.044 61.088C179.777 61.8453 179.495 62.5653 179.196 63.248C178.897 63.9307 178.615 64.528 178.348 65.04C178.081 65.5413 177.873 65.904 177.724 66.128H180.732V62.672C180.839 62.4053 180.929 62.16 181.004 61.936C181.079 61.712 181.148 61.4827 181.212 61.248C181.276 61.0027 181.34 60.7413 181.404 60.464H182.044V66.128H183.164V67.296H182.044V70H180.732ZM187.117 70.192C186.647 70.192 186.226 70.1067 185.853 69.936C185.479 69.7547 185.159 69.4507 184.893 69.024C184.637 68.5973 184.439 68.0213 184.301 67.296C184.173 66.56 184.109 65.632 184.109 64.512C184.109 63.392 184.173 62.4693 184.301 61.744C184.439 61.008 184.637 60.4267 184.893 60C185.159 59.5733 185.479 59.2747 185.853 59.104C186.226 58.9227 186.647 58.832 187.117 58.832C187.586 58.832 188.002 58.9227 188.365 59.104C188.738 59.2747 189.053 59.5733 189.309 60C189.575 60.4267 189.778 61.008 189.917 61.744C190.055 62.4693 190.125 63.392 190.125 64.512C190.125 65.632 190.055 66.56 189.917 67.296C189.778 68.0213 189.575 68.5973 189.309 69.024C189.053 69.4507 188.738 69.7547 188.365 69.936C188.002 70.1067 187.586 70.192 187.117 70.192ZM187.117 69.024C187.554 69.024 187.89 68.8533 188.125 68.512C188.37 68.1707 188.541 67.7067 188.637 67.12C188.733 66.5227 188.781 65.84 188.781 65.072V63.952C188.781 63.184 188.733 62.5067 188.637 61.92C188.541 61.3227 188.37 60.8533 188.125 60.512C187.89 60.1707 187.554 60 187.117 60C186.679 60 186.338 60.1707 186.093 60.512C185.858 60.8533 185.693 61.3227 185.597 61.92C185.501 62.5067 185.453 63.184 185.453 63.952V65.072C185.453 65.84 185.501 66.5227 185.597 67.12C185.693 67.7067 185.858 68.1707 186.093 68.512C186.338 68.8533 186.679 69.024 187.117 69.024ZM191.566 70V68.832H194.174V61.024H191.55V60.192C191.848 60.16 192.2 60.0907 192.606 59.984C193.011 59.8773 193.422 59.744 193.838 59.584C194.254 59.4133 194.632 59.2267 194.974 59.024H195.486V68.832H197.886V70H191.566ZM202.663 70V61.584H203.655L203.831 62.56H203.927C204.151 62.144 204.428 61.8453 204.759 61.664C205.09 61.4827 205.452 61.392 205.847 61.392C206.263 61.392 206.626 61.488 206.935 61.68C207.255 61.8613 207.49 62.1707 207.639 62.608C207.863 62.2027 208.162 61.8987 208.535 61.696C208.908 61.4933 209.292 61.392 209.687 61.392C210.082 61.392 210.428 61.4773 210.727 61.648C211.026 61.808 211.255 62.0747 211.415 62.448C211.586 62.8107 211.671 63.3067 211.671 63.936V70H210.359V64.032C210.359 63.4453 210.252 63.056 210.039 62.864C209.836 62.6613 209.58 62.56 209.271 62.56C208.876 62.56 208.535 62.7627 208.247 63.168C207.97 63.5733 207.831 64.1387 207.831 64.864V70H206.519V64.032C206.519 63.4453 206.412 63.056 206.199 62.864C205.996 62.6613 205.74 62.56 205.431 62.56C205.036 62.56 204.695 62.7627 204.407 63.168C204.119 63.5733 203.975 64.1387 203.975 64.864V70H202.663ZM213.185 63.04V62.784C213.185 62.3253 213.324 61.9253 213.601 61.584C213.878 61.232 214.172 60.9013 214.481 60.592C214.758 60.3147 215.004 60.048 215.217 59.792C215.43 59.536 215.537 59.2587 215.537 58.96C215.537 58.7787 215.489 58.5973 215.393 58.416C215.308 58.2347 215.126 58.144 214.849 58.144C214.593 58.144 214.412 58.2453 214.305 58.448C214.209 58.6507 214.166 58.864 214.177 59.088L214.193 59.552H213.233C213.233 59.552 213.222 59.504 213.201 59.408C213.18 59.312 213.169 59.2107 213.169 59.104C213.169 58.4533 213.334 57.9787 213.665 57.68C214.006 57.3707 214.412 57.216 214.881 57.216C215.318 57.216 215.702 57.3493 216.033 57.616C216.364 57.8827 216.529 58.3307 216.529 58.96C216.529 59.4187 216.39 59.8187 216.113 60.16C215.836 60.5013 215.553 60.816 215.265 61.104C215.084 61.2853 214.913 61.4613 214.753 61.632C214.604 61.792 214.502 61.9627 214.449 62.144H216.577V63.04H213.185Z" fill="black" fill-opacity="0.5"/>
<path d="M176.972 92V90.832H179.58V83.024H176.956V82.192C177.255 82.16 177.607 82.0907 178.012 81.984C178.417 81.8773 178.828 81.744 179.244 81.584C179.66 81.4133 180.039 81.2267 180.38 81.024H180.892V90.832H183.292V92H176.972ZM187.117 92.192C186.647 92.192 186.226 92.1067 185.853 91.936C185.479 91.7547 185.159 91.4507 184.893 91.024C184.637 90.5973 184.439 90.0213 184.301 89.296C184.173 88.56 184.109 87.632 184.109 86.512C184.109 85.392 184.173 84.4693 184.301 83.744C184.439 83.008 184.637 82.4267 184.893 82C185.159 81.5733 185.479 81.2747 185.853 81.104C186.226 80.9227 186.647 80.832 187.117 80.832C187.586 80.832 188.002 80.9227 188.365 81.104C188.738 81.2747 189.053 81.5733 189.309 82C189.575 82.4267 189.778 83.008 189.917 83.744C190.055 84.4693 190.125 85.392 190.125 86.512C190.125 87.632 190.055 88.56 189.917 89.296C189.778 90.0213 189.575 90.5973 189.309 91.024C189.053 91.4507 188.738 91.7547 188.365 91.936C188.002 92.1067 187.586 92.192 187.117 92.192ZM187.117 91.024C187.554 91.024 187.89 90.8533 188.125 90.512C188.37 90.1707 188.541 89.7067 188.637 89.12C188.733 88.5227 188.781 87.84 188.781 87.072V85.952C188.781 85.184 188.733 84.5067 188.637 83.92C188.541 83.3227 188.37 82.8533 188.125 82.512C187.89 82.1707 187.554 82 187.117 82C186.679 82 186.338 82.1707 186.093 82.512C185.858 82.8533 185.693 83.3227 185.597 83.92C185.501 84.5067 185.453 85.184 185.453 85.952V87.072C185.453 87.84 185.501 88.5227 185.597 89.12C185.693 89.7067 185.858 90.1707 186.093 90.512C186.338 90.8533 186.679 91.024 187.117 91.024ZM194.414 92.192C193.411 92.192 192.643 91.8933 192.11 91.296C191.587 90.6987 191.326 89.8987 191.326 88.896V88.768H192.67V88.944C192.67 89.6267 192.808 90.144 193.086 90.496C193.374 90.848 193.784 91.024 194.318 91.024C194.84 91.024 195.262 90.8587 195.582 90.528C195.912 90.1973 196.078 89.6747 196.078 88.96C196.078 88.4373 195.992 88.0373 195.822 87.76C195.651 87.4827 195.427 87.2907 195.15 87.184C194.872 87.0667 194.579 87.008 194.27 87.008H193.358V85.84H194.302C194.728 85.84 195.096 85.6853 195.406 85.376C195.726 85.056 195.886 84.5707 195.886 83.92C195.886 83.2373 195.736 82.7467 195.438 82.448C195.139 82.1493 194.787 82 194.382 82C193.944 82 193.582 82.16 193.294 82.48C193.006 82.8 192.862 83.3013 192.862 83.984V84.128H191.518V83.84C191.518 83.232 191.64 82.704 191.886 82.256C192.131 81.7973 192.467 81.4453 192.894 81.2C193.32 80.9547 193.811 80.832 194.366 80.832C195.219 80.832 195.907 81.088 196.43 81.6C196.963 82.112 197.23 82.8587 197.23 83.84C197.23 84.4907 197.091 85.008 196.814 85.392C196.547 85.7653 196.211 86.0693 195.806 86.304V86.368C196.275 86.5387 196.659 86.848 196.958 87.296C197.267 87.744 197.422 88.3307 197.422 89.056C197.422 89.7067 197.294 90.2667 197.038 90.736C196.782 91.2053 196.424 91.568 195.966 91.824C195.518 92.0693 195 92.192 194.414 92.192ZM202.663 92V83.584H203.655L203.831 84.56H203.927C204.151 84.144 204.428 83.8453 204.759 83.664C205.09 83.4827 205.452 83.392 205.847 83.392C206.263 83.392 206.626 83.488 206.935 83.68C207.255 83.8613 207.49 84.1707 207.639 84.608C207.863 84.2027 208.162 83.8987 208.535 83.696C208.908 83.4933 209.292 83.392 209.687 83.392C210.082 83.392 210.428 83.4773 210.727 83.648C211.026 83.808 211.255 84.0747 211.415 84.448C211.586 84.8107 211.671 85.3067 211.671 85.936V92H210.359V86.032C210.359 85.4453 210.252 85.056 210.039 84.864C209.836 84.6613 209.58 84.56 209.271 84.56C208.876 84.56 208.535 84.7627 208.247 85.168C207.97 85.5733 207.831 86.1387 207.831 86.864V92H206.519V86.032C206.519 85.4453 206.412 85.056 206.199 84.864C205.996 84.6613 205.74 84.56 205.431 84.56C205.036 84.56 204.695 84.7627 204.407 85.168C204.119 85.5733 203.975 86.1387 203.975 86.864V92H202.663ZM213.185 85.04V84.784C213.185 84.3253 213.324 83.9253 213.601 83.584C213.878 83.232 214.172 82.9013 214.481 82.592C214.758 82.3147 215.004 82.048 215.217 81.792C215.43 81.536 215.537 81.2587 215.537 80.96C215.537 80.7787 215.489 80.5973 215.393 80.416C215.308 80.2347 215.126 80.144 214.849 80.144C214.593 80.144 214.412 80.2453 214.305 80.448C214.209 80.6507 214.166 80.864 214.177 81.088L214.193 81.552H213.233C213.233 81.552 213.222 81.504 213.201 81.408C213.18 81.312 213.169 81.2107 213.169 81.104C213.169 80.4533 213.334 79.9787 213.665 79.68C214.006 79.3707 214.412 79.216 214.881 79.216C215.318 79.216 215.702 79.3493 216.033 79.616C216.364 79.8827 216.529 80.3307 216.529 80.96C216.529 81.4187 216.39 81.8187 216.113 82.16C215.836 82.5013 215.553 82.816 215.265 83.104C215.084 83.2853 214.913 83.4613 214.753 83.632C214.604 83.792 214.502 83.9627 214.449 84.144H216.577V85.04H213.185Z" fill="black" fill-opacity="0.5"/>
<path d="M179.634 114.192C178.695 114.192 177.938 113.872 177.362 113.232C176.797 112.592 176.514 111.712 176.514 110.592H178.066C178.066 111.296 178.215 111.856 178.514 112.272C178.813 112.688 179.186 112.896 179.634 112.896C180.093 112.896 180.466 112.693 180.754 112.288C181.042 111.872 181.186 111.248 181.186 110.416C181.186 109.691 181.053 109.136 180.786 108.752C180.519 108.368 180.173 108.176 179.746 108.176C179.415 108.176 179.122 108.283 178.866 108.496C178.61 108.709 178.407 108.987 178.258 109.328L176.818 109.104L177.186 103.024H182.274V104.512H178.498L178.306 107.616C178.477 107.456 178.711 107.291 179.01 107.12C179.309 106.949 179.682 106.864 180.13 106.864C180.61 106.864 181.047 106.992 181.442 107.248C181.847 107.504 182.162 107.893 182.386 108.416C182.621 108.939 182.738 109.605 182.738 110.416C182.738 111.621 182.461 112.555 181.906 113.216C181.351 113.867 180.594 114.192 179.634 114.192ZM186.867 114.192C186.387 114.192 185.955 114.107 185.571 113.936C185.197 113.755 184.877 113.451 184.611 113.024C184.344 112.597 184.141 112.021 184.003 111.296C183.875 110.56 183.811 109.632 183.811 108.512C183.811 107.392 183.875 106.469 184.003 105.744C184.141 105.008 184.344 104.427 184.611 104C184.877 103.573 185.197 103.275 185.571 103.104C185.955 102.923 186.387 102.832 186.867 102.832C187.347 102.832 187.773 102.923 188.147 103.104C188.52 103.275 188.84 103.573 189.107 104C189.373 104.427 189.576 105.008 189.715 105.744C189.853 106.469 189.923 107.392 189.923 108.512C189.923 109.632 189.853 110.56 189.715 111.296C189.576 112.021 189.373 112.597 189.107 113.024C188.84 113.451 188.52 113.755 188.147 113.936C187.773 114.107 187.347 114.192 186.867 114.192ZM186.867 112.88C187.272 112.88 187.581 112.725 187.795 112.416C188.008 112.107 188.157 111.669 188.243 111.104C188.328 110.528 188.371 109.851 188.371 109.072V107.952C188.371 107.173 188.328 106.501 188.243 105.936C188.157 105.36 188.008 104.917 187.795 104.608C187.581 104.299 187.272 104.144 186.867 104.144C186.461 104.144 186.152 104.299 185.939 104.608C185.725 104.917 185.576 105.36 185.491 105.936C185.405 106.501 185.363 107.173 185.363 107.952V109.072C185.363 109.851 185.405 110.528 185.491 111.104C185.576 111.669 185.725 112.107 185.939 112.416C186.152 112.725 186.461 112.88 186.867 112.88ZM194.932 114V111.36H190.772V110.064C191.156 109.371 191.524 108.624 191.876 107.824C192.228 107.024 192.548 106.197 192.836 105.344C193.134 104.491 193.39 103.653 193.604 102.832H195.108C194.958 103.557 194.75 104.299 194.484 105.056C194.217 105.813 193.929 106.533 193.62 107.216C193.321 107.888 193.038 108.475 192.772 108.976C192.505 109.477 192.297 109.84 192.148 110.064H194.932V106.912C195.038 106.645 195.14 106.379 195.236 106.112C195.332 105.845 195.417 105.573 195.492 105.296C195.577 105.019 195.652 104.741 195.716 104.464H196.436V110.064H197.556V111.36H196.436V114H194.932ZM202.381 114V105.584H203.565L203.757 106.576H203.853C204.066 106.192 204.338 105.899 204.669 105.696C205 105.493 205.373 105.392 205.789 105.392C206.205 105.392 206.568 105.488 206.877 105.68C207.197 105.861 207.437 106.171 207.597 106.608C207.81 106.235 208.104 105.941 208.477 105.728C208.85 105.504 209.25 105.392 209.677 105.392C210.072 105.392 210.418 105.477 210.717 105.648C211.026 105.808 211.266 106.08 211.437 106.464C211.608 106.837 211.693 107.344 211.693 107.984V114H210.189V108.224C210.189 107.648 210.093 107.259 209.901 107.056C209.709 106.843 209.458 106.736 209.149 106.736C208.776 106.736 208.456 106.923 208.189 107.296C207.922 107.659 207.789 108.165 207.789 108.816V114H206.301V108.224C206.301 107.648 206.205 107.259 206.013 107.056C205.821 106.843 205.565 106.736 205.245 106.736C204.872 106.736 204.552 106.928 204.285 107.312C204.018 107.685 203.885 108.197 203.885 108.848V114H202.381ZM213.137 107.04V106.8C213.137 106.341 213.276 105.936 213.553 105.584C213.83 105.221 214.124 104.88 214.433 104.56C214.71 104.283 214.95 104.016 215.153 103.76C215.366 103.504 215.473 103.232 215.473 102.944C215.473 102.752 215.43 102.576 215.345 102.416C215.26 102.256 215.089 102.176 214.833 102.176C214.598 102.176 214.433 102.272 214.337 102.464C214.241 102.645 214.193 102.843 214.193 103.056L214.209 103.504H213.185C213.185 103.504 213.174 103.461 213.153 103.376C213.132 103.28 213.121 103.179 213.121 103.072C213.121 102.464 213.286 102.005 213.617 101.696C213.948 101.376 214.358 101.216 214.849 101.216C215.318 101.216 215.713 101.355 216.033 101.632C216.364 101.909 216.529 102.336 216.529 102.912C216.529 103.381 216.39 103.792 216.113 104.144C215.836 104.496 215.553 104.816 215.265 105.104C215.094 105.275 214.934 105.44 214.785 105.6C214.646 105.76 214.55 105.925 214.497 106.096H216.577V107.04H213.137Z" fill="black"/>
<rect x="16.5" y="127.5" width="200" height="39" rx="3.5" stroke="#2E4683"/>
<g clip-path="url(#clip0_280_2828)">
<path d="M76.3337 144.5H73.0003V139.5H68.0003V144.5H64.667L70.5003 150.333L76.3337 144.5ZM64.667 152V153.667H76.3337V152H64.667Z" fill="#2E4683"/>
</g>
<path d="M89.62 153V142.024H95.956V143.304H91.028V146.856H95.38V148.136H91.028V153H89.62ZM97.6356 153V142.024H99.0436V151.72H103.524V153H97.6356ZM108.917 153.192C107.573 153.192 106.517 152.723 105.749 151.784C104.981 150.835 104.597 149.411 104.597 147.512C104.597 145.603 104.981 144.179 105.749 143.24C106.517 142.301 107.573 141.832 108.917 141.832C110.261 141.832 111.317 142.301 112.085 143.24C112.853 144.179 113.237 145.603 113.237 147.512C113.237 149.411 112.853 150.835 112.085 151.784C111.317 152.723 110.261 153.192 108.917 153.192ZM108.917 151.896C109.802 151.896 110.495 151.565 110.997 150.904C111.509 150.243 111.765 149.245 111.765 147.912V147.112C111.765 145.779 111.509 144.781 110.997 144.12C110.495 143.459 109.802 143.128 108.917 143.128C108.042 143.128 107.349 143.459 106.837 144.12C106.325 144.781 106.069 145.779 106.069 147.112V147.912C106.069 149.245 106.325 150.243 106.837 150.904C107.349 151.565 108.042 151.896 108.917 151.896ZM119.12 153.192C117.776 153.192 116.72 152.723 115.952 151.784C115.184 150.835 114.8 149.411 114.8 147.512C114.8 145.603 115.184 144.179 115.952 143.24C116.72 142.301 117.776 141.832 119.12 141.832C120.464 141.832 121.52 142.301 122.288 143.24C123.056 144.179 123.44 145.603 123.44 147.512C123.44 149.411 123.056 150.835 122.288 151.784C121.52 152.723 120.464 153.192 119.12 153.192ZM119.12 151.896C120.005 151.896 120.698 151.565 121.2 150.904C121.712 150.243 121.968 149.245 121.968 147.912V147.112C121.968 145.779 121.712 144.781 121.2 144.12C120.698 143.459 120.005 143.128 119.12 143.128C118.245 143.128 117.552 143.459 117.04 144.12C116.528 144.781 116.272 145.779 116.272 147.112V147.912C116.272 149.245 116.528 150.243 117.04 150.904C117.552 151.565 118.245 151.896 119.12 151.896ZM125.339 153V142.024H129.755C130.832 142.024 131.648 142.307 132.203 142.872C132.757 143.427 133.035 144.157 133.035 145.064C133.035 145.747 132.864 146.339 132.523 146.84C132.181 147.331 131.701 147.683 131.083 147.896L133.291 153H131.723L129.691 148.152H126.747V153H125.339ZM126.747 146.872H129.707C130.272 146.872 130.72 146.707 131.051 146.376C131.392 146.045 131.563 145.608 131.563 145.064C131.563 144.52 131.403 144.093 131.083 143.784C130.763 143.464 130.304 143.304 129.707 143.304H126.747V146.872ZM138.448 153V142.024H142.368C143.093 142.024 143.696 142.157 144.176 142.424C144.667 142.691 145.035 143.064 145.28 143.544C145.525 144.024 145.648 144.584 145.648 145.224C145.648 145.864 145.515 146.429 145.248 146.92C144.981 147.411 144.603 147.795 144.112 148.072C143.632 148.339 143.051 148.472 142.368 148.472H139.856V153H138.448ZM139.856 147.192H142.32C142.885 147.192 143.333 147.011 143.664 146.648C144.005 146.285 144.176 145.811 144.176 145.224C144.176 144.627 144.016 144.157 143.696 143.816C143.376 143.475 142.917 143.304 142.32 143.304H139.856V147.192ZM147.198 153V142.024H148.606V151.72H153.086V153H147.198ZM153.359 153L156.847 142.024H158.655L162.143 153H160.623L159.871 150.552H155.519L154.767 153H153.359ZM155.903 149.272H159.471L157.983 144.392C157.951 144.264 157.914 144.104 157.871 143.912C157.828 143.72 157.791 143.549 157.759 143.4C157.738 143.251 157.727 143.176 157.727 143.176H157.663C157.663 143.176 157.647 143.256 157.615 143.416C157.594 143.565 157.562 143.736 157.519 143.928C157.487 144.12 157.45 144.275 157.407 144.392L155.903 149.272ZM163.245 153V142.024H164.461L168.541 148.92C168.626 149.059 168.717 149.245 168.813 149.48C168.92 149.715 169.01 149.928 169.085 150.12C169.17 150.301 169.213 150.392 169.213 150.392L169.261 150.376C169.261 150.376 169.256 150.28 169.245 150.088C169.245 149.896 169.24 149.683 169.229 149.448C169.218 149.213 169.213 149.037 169.213 148.92V142.024H170.477V153H169.309L165.197 146.008C165.112 145.848 165.01 145.656 164.893 145.432C164.786 145.197 164.69 144.989 164.605 144.808C164.53 144.627 164.493 144.536 164.493 144.536L164.445 144.552C164.445 144.552 164.45 144.643 164.461 144.824C164.472 145.005 164.482 145.213 164.493 145.448C164.504 145.672 164.509 145.859 164.509 146.008V153H163.245Z" fill="#2E4683"/>
<path d="M117 218L98.8135 185L135.187 185L117 218Z" fill="white"/>
<defs>
<clipPath id="clip0_280_2828">
<rect width="20" height="20" fill="white" transform="translate(60.5 137)"/>
</clipPath>
</defs>
</svg>
