<svg viewBox="0 0 233 240" fill="none" xmlns="http://www.w3.org/2000/svg">
<rect width="233" height="207" rx="4" fill="white"/>
<path d="M19.3036 39L16.2436 25.28H18.5636L20.3636 34.08C20.4036 34.3067 20.4436 34.5867 20.4836 34.92C20.5369 35.24 20.5769 35.5333 20.6036 35.8C20.6436 36.0533 20.6636 36.18 20.6636 36.18H20.7436C20.7436 36.18 20.7569 36.06 20.7836 35.82C20.8103 35.58 20.8436 35.2933 20.8836 34.96C20.9369 34.6267 20.9903 34.3333 21.0436 34.08L22.6636 25.28H25.4236L27.0836 34.08C27.1236 34.3067 27.1636 34.5867 27.2036 34.92C27.2569 35.2533 27.2969 35.5467 27.3236 35.8C27.3503 36.0533 27.3636 36.18 27.3636 36.18H27.4436C27.4436 36.18 27.4569 36.06 27.4836 35.82C27.5236 35.5667 27.5636 35.28 27.6036 34.96C27.6569 34.6267 27.7103 34.3333 27.7636 34.08L29.5836 25.28H31.5836L28.5236 39H26.0636L24.2636 30.06C24.2236 29.8733 24.1836 29.6533 24.1436 29.4C24.1036 29.1467 24.0703 28.9 24.0436 28.66C24.0169 28.42 23.9903 28.2267 23.9636 28.08C23.9503 27.92 23.9436 27.84 23.9436 27.84H23.8636C23.8636 27.84 23.8503 27.9267 23.8236 28.1C23.8103 28.26 23.7836 28.46 23.7436 28.7C23.7169 28.94 23.6836 29.1867 23.6436 29.44C23.6169 29.68 23.5836 29.8867 23.5436 30.06L21.7836 39H19.3036ZM34.1664 39.24C33.9264 39.24 33.6464 39.2 33.3264 39.12C33.0197 39.04 32.7264 38.9 32.4464 38.7C32.1664 38.4867 31.9331 38.1867 31.7464 37.8C31.5731 37.4133 31.4864 36.9067 31.4864 36.28C31.4864 35.32 31.7131 34.58 32.1664 34.06C32.6197 33.54 33.2397 33.18 34.0264 32.98C34.8264 32.7667 35.7331 32.66 36.7464 32.66V31.46C36.7464 31.06 36.6597 30.72 36.4864 30.44C36.3264 30.16 35.9797 30.02 35.4464 30.02C34.9131 30.02 34.5464 30.16 34.3464 30.44C34.1597 30.72 34.0664 31.0133 34.0664 31.32V31.6H31.9664C31.9531 31.5333 31.9464 31.4667 31.9464 31.4C31.9464 31.3333 31.9464 31.2533 31.9464 31.16C31.9464 30.2533 32.2664 29.54 32.9064 29.02C33.5464 28.5 34.3931 28.24 35.4464 28.24C36.6197 28.24 37.4864 28.5067 38.0464 29.04C38.6064 29.5733 38.8864 30.32 38.8864 31.28V36.72C38.8864 36.9733 38.9464 37.1533 39.0664 37.26C39.1864 37.3667 39.3131 37.42 39.4464 37.42H39.9864V38.92C39.8664 38.9867 39.6997 39.0533 39.4864 39.12C39.2731 39.1867 39.0064 39.22 38.6864 39.22C38.2197 39.22 37.8331 39.0933 37.5264 38.84C37.2197 38.5867 37.0064 38.26 36.8864 37.86H36.7864C36.5064 38.2733 36.1597 38.6067 35.7464 38.86C35.3464 39.1133 34.8197 39.24 34.1664 39.24ZM34.9464 37.42C35.3197 37.42 35.6397 37.32 35.9064 37.12C36.1731 36.9067 36.3797 36.62 36.5264 36.26C36.6731 35.9 36.7464 35.4867 36.7464 35.02V34.3C36.1864 34.3 35.6731 34.3533 35.2064 34.46C34.7531 34.5533 34.3864 34.7333 34.1064 35C33.8264 35.2533 33.6864 35.62 33.6864 36.1C33.6864 36.54 33.7864 36.8733 33.9864 37.1C34.1997 37.3133 34.5197 37.42 34.9464 37.42ZM41.3275 39V28.48H43.0675L43.3275 29.96H43.4475C43.5808 29.5333 43.7808 29.14 44.0475 28.78C44.3275 28.42 44.7275 28.24 45.2475 28.24C45.5275 28.24 45.7475 28.2667 45.9075 28.32C46.0808 28.3733 46.1675 28.4 46.1675 28.4V30.5H45.4275C45.0808 30.5 44.7542 30.58 44.4475 30.74C44.1542 30.8867 43.9142 31.1333 43.7275 31.48C43.5542 31.8267 43.4675 32.3133 43.4675 32.94V39H41.3275ZM51.0022 39.24C49.6689 39.24 48.6555 38.8 47.9622 37.92C47.2822 37.04 46.9422 35.6467 46.9422 33.74C46.9422 31.8467 47.2822 30.46 47.9622 29.58C48.6555 28.6867 49.6489 28.24 50.9422 28.24C52.1689 28.24 53.0889 28.6667 53.7022 29.52C54.3289 30.36 54.6422 31.7 54.6422 33.54V34.3H49.1622C49.1755 35.3267 49.3222 36.1133 49.6022 36.66C49.8955 37.1933 50.3689 37.46 51.0222 37.46C51.4755 37.46 51.8355 37.2733 52.1022 36.9C52.3822 36.5133 52.5222 35.9867 52.5222 35.32H54.6422C54.6422 36.6133 54.2955 37.5933 53.6022 38.26C52.9222 38.9133 52.0555 39.24 51.0022 39.24ZM49.1822 32.66H52.3822C52.3822 31.82 52.2622 31.1733 52.0222 30.72C51.7955 30.2533 51.4355 30.02 50.9422 30.02C50.3689 30.02 49.9422 30.2467 49.6622 30.7C49.3955 31.1533 49.2355 31.8067 49.1822 32.66ZM56.5033 39V24.54H58.6433V29.6H58.7233C58.9633 29.2133 59.2899 28.8933 59.7033 28.64C60.1299 28.3733 60.6299 28.24 61.2033 28.24C62.0166 28.24 62.6766 28.4867 63.1833 28.98C63.6899 29.4733 63.9433 30.3333 63.9433 31.56V39H61.8033V32.02C61.8033 31.3267 61.6766 30.8467 61.4233 30.58C61.1699 30.3133 60.8233 30.18 60.3833 30.18C59.9033 30.18 59.4899 30.4 59.1433 30.84C58.8099 31.28 58.6433 31.8467 58.6433 32.54V39H56.5033ZM69.9498 39.24C68.6165 39.24 67.6098 38.8 66.9298 37.92C66.2498 37.0267 65.9098 35.6333 65.9098 33.74C65.9098 31.8467 66.2498 30.46 66.9298 29.58C67.6098 28.6867 68.6165 28.24 69.9498 28.24C71.2965 28.24 72.3098 28.6867 72.9898 29.58C73.6698 30.46 74.0098 31.8467 74.0098 33.74C74.0098 35.6333 73.6698 37.0267 72.9898 37.92C72.3098 38.8 71.2965 39.24 69.9498 39.24ZM69.9498 37.42C70.5898 37.42 71.0498 37.14 71.3298 36.58C71.6232 36.02 71.7698 35.2 71.7698 34.12V33.36C71.7698 32.28 71.6232 31.46 71.3298 30.9C71.0498 30.34 70.5898 30.06 69.9498 30.06C69.3098 30.06 68.8432 30.34 68.5498 30.9C68.2698 31.46 68.1298 32.28 68.1298 33.36V34.12C68.1298 35.2 68.2698 36.02 68.5498 36.58C68.8432 37.14 69.3098 37.42 69.9498 37.42ZM78.6764 39.24C77.8764 39.24 77.2231 38.9933 76.7164 38.5C76.2097 38.0067 75.9564 37.1467 75.9564 35.92V28.48H78.0964V35.46C78.0964 36.1533 78.2164 36.6333 78.4564 36.9C78.7097 37.1667 79.0564 37.3 79.4964 37.3C79.9897 37.3 80.4031 37.0867 80.7364 36.66C81.0831 36.2333 81.2564 35.6667 81.2564 34.96V28.48H83.3964V39H81.6564L81.4164 37.72H81.2964C81.0297 38.1733 80.6764 38.54 80.2364 38.82C79.7964 39.1 79.2764 39.24 78.6764 39.24ZM88.863 39.24C88.063 39.24 87.3896 39.1 86.843 38.82C86.2963 38.5267 85.883 38.14 85.603 37.66C85.3363 37.1667 85.203 36.6067 85.203 35.98C85.203 35.9 85.203 35.8333 85.203 35.78C85.2163 35.7133 85.223 35.68 85.223 35.68H87.423V35.84C87.423 36.4267 87.583 36.8467 87.903 37.1C88.223 37.34 88.5696 37.46 88.943 37.46C89.303 37.46 89.6363 37.36 89.943 37.16C90.263 36.96 90.423 36.6333 90.423 36.18C90.423 35.78 90.2963 35.4733 90.043 35.26C89.803 35.0467 89.4896 34.88 89.103 34.76C88.7296 34.6267 88.3296 34.5 87.903 34.38C87.4763 34.2467 87.0696 34.0733 86.683 33.86C86.3096 33.6467 85.9963 33.3467 85.743 32.96C85.503 32.56 85.383 32.0333 85.383 31.38C85.383 30.6867 85.5363 30.1067 85.843 29.64C86.163 29.1733 86.5963 28.8267 87.143 28.6C87.6896 28.36 88.303 28.24 88.983 28.24C89.6496 28.24 90.2363 28.36 90.743 28.6C91.2496 28.84 91.643 29.1733 91.923 29.6C92.2163 30.0267 92.363 30.5267 92.363 31.1C92.363 31.1933 92.3563 31.2867 92.343 31.38C92.343 31.4733 92.343 31.5267 92.343 31.54H90.163V31.46C90.1496 31.0067 90.0363 30.6533 89.823 30.4C89.623 30.1467 89.3096 30.02 88.883 30.02C88.5896 30.02 88.343 30.08 88.143 30.2C87.9563 30.3067 87.8163 30.4467 87.723 30.62C87.6296 30.7933 87.583 30.9867 87.583 31.2C87.583 31.5467 87.703 31.8133 87.943 32C88.183 32.1867 88.4896 32.34 88.863 32.46C89.2496 32.58 89.6563 32.7 90.083 32.82C90.5096 32.94 90.9163 33.1133 91.303 33.34C91.6896 33.5533 92.003 33.8667 92.243 34.28C92.483 34.68 92.603 35.22 92.603 35.9C92.603 36.7133 92.4363 37.3667 92.103 37.86C91.783 38.34 91.343 38.6933 90.783 38.92C90.223 39.1333 89.583 39.24 88.863 39.24ZM98.1116 39.24C96.7782 39.24 95.7649 38.8 95.0716 37.92C94.3916 37.04 94.0516 35.6467 94.0516 33.74C94.0516 31.8467 94.3916 30.46 95.0716 29.58C95.7649 28.6867 96.7582 28.24 98.0516 28.24C99.2782 28.24 100.198 28.6667 100.812 29.52C101.438 30.36 101.752 31.7 101.752 33.54V34.3H96.2716C96.2849 35.3267 96.4316 36.1133 96.7116 36.66C97.0049 37.1933 97.4782 37.46 98.1316 37.46C98.5849 37.46 98.9449 37.2733 99.2116 36.9C99.4916 36.5133 99.6316 35.9867 99.6316 35.32H101.752C101.752 36.6133 101.405 37.5933 100.712 38.26C100.032 38.9133 99.1649 39.24 98.1116 39.24ZM96.2916 32.66H99.4916C99.4916 31.82 99.3716 31.1733 99.1316 30.72C98.9049 30.2533 98.5449 30.02 98.0516 30.02C97.4782 30.02 97.0516 30.2467 96.7716 30.7C96.5049 31.1533 96.3449 31.8067 96.2916 32.66ZM116.134 39.24C114.841 39.24 113.848 38.8667 113.154 38.12C112.474 37.3733 112.134 36.3733 112.134 35.12V34.82H114.354V35.18C114.354 35.9 114.501 36.4533 114.794 36.84C115.088 37.2267 115.514 37.42 116.074 37.42C116.594 37.42 117.014 37.24 117.334 36.88C117.654 36.52 117.814 35.96 117.814 35.2C117.814 34.6 117.728 34.14 117.554 33.82C117.381 33.4867 117.148 33.26 116.854 33.14C116.574 33.0067 116.274 32.94 115.954 32.94H115.134V31.12H115.994C116.434 31.12 116.808 30.94 117.114 30.58C117.421 30.2067 117.574 29.6467 117.574 28.9C117.574 28.1933 117.434 27.68 117.154 27.36C116.874 27.0267 116.521 26.86 116.094 26.86C115.641 26.86 115.274 27.04 114.994 27.4C114.728 27.7467 114.594 28.2733 114.594 28.98V29.3H112.374V28.8C112.374 28.04 112.534 27.38 112.854 26.82C113.174 26.2467 113.608 25.8067 114.154 25.5C114.714 25.1933 115.354 25.04 116.074 25.04C117.181 25.04 118.074 25.36 118.754 26C119.448 26.64 119.794 27.5733 119.794 28.8C119.794 29.6133 119.621 30.26 119.274 30.74C118.941 31.2067 118.521 31.5867 118.014 31.88V31.96C118.601 32.1733 119.081 32.56 119.454 33.12C119.841 33.68 120.034 34.4133 120.034 35.32C120.034 36.1333 119.868 36.8333 119.534 37.42C119.201 38.0067 118.741 38.46 118.154 38.78C117.568 39.0867 116.894 39.24 116.134 39.24ZM121.555 39V37.18H124.715V28.2H121.535V26.8C121.922 26.76 122.369 26.6733 122.875 26.54C123.382 26.3933 123.895 26.2133 124.415 26C124.949 25.7867 125.429 25.5467 125.855 25.28H126.835V37.18H129.735V39H121.555Z" fill="black"/>
<path d="M21.104 70.192C19.7173 70.192 18.6507 69.7227 17.904 68.784C17.1573 67.8347 16.784 66.4107 16.784 64.512C16.784 62.6027 17.1733 61.1787 17.952 60.24C18.7413 59.3013 19.8187 58.832 21.184 58.832C21.952 58.832 22.6347 58.976 23.232 59.264C23.8293 59.552 24.2987 59.9893 24.64 60.576C24.992 61.152 25.168 61.8827 25.168 62.768H23.728C23.728 61.8507 23.4933 61.184 23.024 60.768C22.5547 60.3413 21.9413 60.128 21.184 60.128C20.2773 60.128 19.5627 60.4587 19.04 61.12C18.5173 61.7813 18.256 62.7787 18.256 64.112V64.912C18.256 66.2453 18.5013 67.2427 18.992 67.904C19.4827 68.5653 20.1867 68.896 21.104 68.896C22.0213 68.896 22.688 68.64 23.104 68.128C23.52 67.6053 23.728 66.8213 23.728 65.776V64.928L24.32 65.52H20.88V64.288H25.168V70H24.24L23.936 68.784C23.6053 69.2747 23.2 69.632 22.72 69.856C22.24 70.08 21.7013 70.192 21.104 70.192ZM27.1631 70V61.584H28.1551L28.3311 62.688H28.4271C28.5338 62.368 28.6991 62.0747 28.9231 61.808C29.1471 61.5307 29.4565 61.392 29.8511 61.392C30.0325 61.392 30.1818 61.4133 30.2991 61.456C30.4165 61.4987 30.4751 61.52 30.4751 61.52V62.88H30.0431C29.7658 62.88 29.5045 62.944 29.2591 63.072C29.0245 63.1893 28.8325 63.392 28.6831 63.68C28.5445 63.968 28.4751 64.3627 28.4751 64.864V70H27.1631ZM34.2261 70.192C33.2448 70.192 32.4981 69.84 31.9861 69.136C31.4741 68.4213 31.2181 67.3067 31.2181 65.792C31.2181 64.2773 31.4741 63.168 31.9861 62.464C32.4981 61.7493 33.2448 61.392 34.2261 61.392C35.2075 61.392 35.9541 61.7493 36.4661 62.464C36.9781 63.168 37.2341 64.2773 37.2341 65.792C37.2341 67.3067 36.9781 68.4213 36.4661 69.136C35.9541 69.84 35.2075 70.192 34.2261 70.192ZM34.2261 69.024C34.7701 69.024 35.1755 68.7787 35.4421 68.288C35.7195 67.7973 35.8581 67.0667 35.8581 66.096V65.488C35.8581 64.5173 35.7195 63.7867 35.4421 63.296C35.1755 62.8053 34.7701 62.56 34.2261 62.56C33.6821 62.56 33.2715 62.8053 32.9941 63.296C32.7275 63.7867 32.5941 64.5173 32.5941 65.488V66.096C32.5941 67.0667 32.7275 67.7973 32.9941 68.288C33.2715 68.7787 33.6821 69.024 34.2261 69.024ZM40.915 70.192C40.2857 70.192 39.779 70.0053 39.395 69.632C39.0217 69.248 38.835 68.5867 38.835 67.648V61.584H40.147V67.552C40.147 68.1387 40.2537 68.5333 40.467 68.736C40.691 68.928 40.979 69.024 41.331 69.024C41.747 69.024 42.1097 68.8213 42.419 68.416C42.739 68.0107 42.899 67.4453 42.899 66.72V61.584H44.211V70H43.219L43.043 69.024H42.947C42.7123 69.44 42.419 69.7387 42.067 69.92C41.715 70.1013 41.331 70.192 40.915 70.192ZM46.1319 70V61.584H47.1239L47.2999 62.56H47.3959C47.6305 62.144 47.9239 61.8453 48.2759 61.664C48.6279 61.4827 49.0119 61.392 49.4279 61.392C50.0572 61.392 50.5585 61.584 50.9319 61.968C51.3159 62.3413 51.5079 62.9973 51.5079 63.936V70H50.1959V64.032C50.1959 63.4453 50.0839 63.056 49.8599 62.864C49.6465 62.6613 49.3639 62.56 49.0119 62.56C48.5959 62.56 48.2279 62.7627 47.9079 63.168C47.5985 63.5733 47.4439 64.1387 47.4439 64.864V70H46.1319ZM55.7168 70.192C54.9168 70.192 54.2821 69.8453 53.8128 69.152C53.3434 68.448 53.1088 67.3227 53.1088 65.776C53.1088 64.752 53.2208 63.92 53.4448 63.28C53.6688 62.6293 53.9728 62.1547 54.3568 61.856C54.7408 61.5467 55.1621 61.392 55.6208 61.392C56.0261 61.392 56.3888 61.4827 56.7088 61.664C57.0394 61.8347 57.2741 62.0747 57.4128 62.384H57.4928V58.432H58.8048V70H57.8128L57.6368 69.024H57.5568C57.3541 69.408 57.0928 69.7013 56.7728 69.904C56.4528 70.096 56.1008 70.192 55.7168 70.192ZM55.9888 69.024C56.4901 69.024 56.8634 68.7787 57.1088 68.288C57.3648 67.7973 57.4928 67.0667 57.4928 66.096V65.552C57.4928 64.56 57.3648 63.8133 57.1088 63.312C56.8634 62.8107 56.4901 62.56 55.9888 62.56C55.4874 62.56 55.1088 62.7893 54.8528 63.248C54.6074 63.696 54.4848 64.4427 54.4848 65.488V66.096C54.4848 67.1413 54.6074 67.8933 54.8528 68.352C55.1088 68.8 55.4874 69.024 55.9888 69.024ZM64.5263 70V59.024H70.8623V60.304H65.9343V63.856H70.2863V65.136H65.9343V70H64.5263ZM72.2219 70V58.432H73.5339V70H72.2219ZM77.9761 70.192C76.9948 70.192 76.2481 69.84 75.7361 69.136C75.2241 68.4213 74.9681 67.3067 74.9681 65.792C74.9681 64.2773 75.2241 63.168 75.7361 62.464C76.2481 61.7493 76.9948 61.392 77.9761 61.392C78.9575 61.392 79.7041 61.7493 80.2161 62.464C80.7281 63.168 80.9841 64.2773 80.9841 65.792C80.9841 67.3067 80.7281 68.4213 80.2161 69.136C79.7041 69.84 78.9575 70.192 77.9761 70.192ZM77.9761 69.024C78.5201 69.024 78.9255 68.7787 79.1921 68.288C79.4695 67.7973 79.6081 67.0667 79.6081 66.096V65.488C79.6081 64.5173 79.4695 63.7867 79.1921 63.296C78.9255 62.8053 78.5201 62.56 77.9761 62.56C77.4321 62.56 77.0215 62.8053 76.7441 63.296C76.4775 63.7867 76.3441 64.5173 76.3441 65.488V66.096C76.3441 67.0667 76.4775 67.7973 76.7441 68.288C77.0215 68.7787 77.4321 69.024 77.9761 69.024ZM85.273 70.192C84.2917 70.192 83.545 69.84 83.033 69.136C82.521 68.4213 82.265 67.3067 82.265 65.792C82.265 64.2773 82.521 63.168 83.033 62.464C83.545 61.7493 84.2917 61.392 85.273 61.392C86.2543 61.392 87.001 61.7493 87.513 62.464C88.025 63.168 88.281 64.2773 88.281 65.792C88.281 67.3067 88.025 68.4213 87.513 69.136C87.001 69.84 86.2543 70.192 85.273 70.192ZM85.273 69.024C85.817 69.024 86.2223 68.7787 86.489 68.288C86.7663 67.7973 86.905 67.0667 86.905 66.096V65.488C86.905 64.5173 86.7663 63.7867 86.489 63.296C86.2223 62.8053 85.817 62.56 85.273 62.56C84.729 62.56 84.3183 62.8053 84.041 63.296C83.7743 63.7867 83.641 64.5173 83.641 65.488V66.096C83.641 67.0667 83.7743 67.7973 84.041 68.288C84.3183 68.7787 84.729 69.024 85.273 69.024ZM89.8819 70V61.584H90.8739L91.0499 62.688H91.1459C91.2525 62.368 91.4179 62.0747 91.6419 61.808C91.8659 61.5307 92.1752 61.392 92.5699 61.392C92.7512 61.392 92.9005 61.4133 93.0179 61.456C93.1352 61.4987 93.1939 61.52 93.1939 61.52V62.88H92.7619C92.4845 62.88 92.2232 62.944 91.9779 63.072C91.7432 63.1893 91.5512 63.392 91.4019 63.68C91.2632 63.968 91.1939 64.3627 91.1939 64.864V70H89.8819ZM94.3209 63.312V61.584H95.9209V63.312H94.3209ZM94.3209 70V68.272H95.9209V70H94.3209Z" fill="black" fill-opacity="0.5"/>
<path d="M17.12 92V81.024H23.456V82.304H18.528V85.856H22.88V87.136H18.528V92H17.12ZM25.1836 92V83.584H26.4956V92H25.1836ZM25.1516 81.952V80.432H26.5116V81.952H25.1516ZM28.6163 92V83.584H29.6083L29.7843 84.688H29.8803C29.9869 84.368 30.1523 84.0747 30.3763 83.808C30.6003 83.5307 30.9096 83.392 31.3043 83.392C31.4856 83.392 31.6349 83.4133 31.7523 83.456C31.8696 83.4987 31.9283 83.52 31.9283 83.52V84.88H31.4963C31.2189 84.88 30.9576 84.944 30.7123 85.072C30.4776 85.1893 30.2856 85.392 30.1363 85.68C29.9976 85.968 29.9283 86.3627 29.9283 86.864V92H28.6163ZM35.2633 92.192C34.6233 92.192 34.1006 92.0747 33.6953 91.84C33.3006 91.5947 33.0126 91.2853 32.8313 90.912C32.6499 90.5387 32.5592 90.144 32.5592 89.728C32.5592 89.6107 32.5592 89.5253 32.5592 89.472C32.5699 89.4187 32.5753 89.3867 32.5753 89.376H33.9513V89.536C33.9513 90.0587 34.0846 90.4427 34.3513 90.688C34.6179 90.9227 34.9433 91.04 35.3273 91.04C35.6686 91.04 35.9619 90.9333 36.2073 90.72C36.4633 90.5067 36.5913 90.1973 36.5913 89.792C36.5913 89.44 36.4953 89.168 36.3033 88.976C36.1219 88.7733 35.8873 88.6133 35.5993 88.496C35.3113 88.368 35.0019 88.2507 34.6713 88.144C34.3406 88.0267 34.0313 87.8827 33.7433 87.712C33.4553 87.5413 33.2153 87.3067 33.0233 87.008C32.8419 86.6987 32.7513 86.2933 32.7513 85.792C32.7513 85.2907 32.8579 84.864 33.0713 84.512C33.2846 84.1493 33.5886 83.872 33.9833 83.68C34.3779 83.488 34.8419 83.392 35.3753 83.392C35.8979 83.392 36.3353 83.4987 36.6873 83.712C37.0499 83.9147 37.3219 84.192 37.5033 84.544C37.6953 84.896 37.7913 85.28 37.7913 85.696C37.7913 85.7493 37.7859 85.808 37.7753 85.872C37.7753 85.936 37.7753 85.9787 37.7753 86H36.4153V85.856C36.4153 85.5253 36.3299 85.2267 36.1593 84.96C35.9993 84.6827 35.6953 84.544 35.2473 84.544C34.9379 84.544 34.6979 84.608 34.5273 84.736C34.3673 84.864 34.2553 85.0187 34.1913 85.2C34.1379 85.3707 34.1113 85.536 34.1113 85.696C34.1113 86.0053 34.2019 86.2453 34.3832 86.416C34.5753 86.5867 34.8153 86.7253 35.1033 86.832C35.3913 86.9387 35.7006 87.0507 36.0312 87.168C36.3619 87.2747 36.6713 87.4187 36.9593 87.6C37.2473 87.7813 37.4819 88.032 37.6633 88.352C37.8553 88.6613 37.9513 89.0773 37.9513 89.6C37.9513 90.1973 37.8339 90.688 37.5993 91.072C37.3646 91.456 37.0446 91.7387 36.6393 91.92C36.2446 92.1013 35.7859 92.192 35.2633 92.192ZM41.0418 92.16C40.6578 92.16 40.3538 92.064 40.1298 91.872C39.9164 91.68 39.7618 91.44 39.6658 91.152C39.5804 90.8533 39.5378 90.544 39.5378 90.224V84.752H38.8178V83.584H39.5378L39.8258 81.248H40.8498V83.584H41.9858V84.752H40.8498V90.256C40.8498 90.768 41.1004 91.024 41.6018 91.024H41.9858V91.936C41.8791 92 41.7351 92.0533 41.5538 92.096C41.3724 92.1387 41.2018 92.16 41.0418 92.16ZM46.995 92V81.024H53.331V82.304H48.403V85.856H52.755V87.136H48.403V92H46.995ZM54.6906 92V80.432H56.0026V92H54.6906ZM60.4449 92.192C59.4635 92.192 58.7169 91.84 58.2049 91.136C57.6929 90.4213 57.4369 89.3067 57.4369 87.792C57.4369 86.2773 57.6929 85.168 58.2049 84.464C58.7169 83.7493 59.4635 83.392 60.4449 83.392C61.4262 83.392 62.1729 83.7493 62.6849 84.464C63.1969 85.168 63.4529 86.2773 63.4529 87.792C63.4529 89.3067 63.1969 90.4213 62.6849 91.136C62.1729 91.84 61.4262 92.192 60.4449 92.192ZM60.4449 91.024C60.9889 91.024 61.3942 90.7787 61.6609 90.288C61.9382 89.7973 62.0769 89.0667 62.0769 88.096V87.488C62.0769 86.5173 61.9382 85.7867 61.6609 85.296C61.3942 84.8053 60.9889 84.56 60.4449 84.56C59.9009 84.56 59.4902 84.8053 59.2129 85.296C58.9462 85.7867 58.8129 86.5173 58.8129 87.488V88.096C58.8129 89.0667 58.9462 89.7973 59.2129 90.288C59.4902 90.7787 59.9009 91.024 60.4449 91.024ZM67.7418 92.192C66.7604 92.192 66.0138 91.84 65.5018 91.136C64.9898 90.4213 64.7338 89.3067 64.7338 87.792C64.7338 86.2773 64.9898 85.168 65.5018 84.464C66.0138 83.7493 66.7604 83.392 67.7418 83.392C68.7231 83.392 69.4698 83.7493 69.9818 84.464C70.4938 85.168 70.7498 86.2773 70.7498 87.792C70.7498 89.3067 70.4938 90.4213 69.9818 91.136C69.4698 91.84 68.7231 92.192 67.7418 92.192ZM67.7418 91.024C68.2858 91.024 68.6911 90.7787 68.9578 90.288C69.2351 89.7973 69.3738 89.0667 69.3738 88.096V87.488C69.3738 86.5173 69.2351 85.7867 68.9578 85.296C68.6911 84.8053 68.2858 84.56 67.7418 84.56C67.1978 84.56 66.7871 84.8053 66.5098 85.296C66.2431 85.7867 66.1098 86.5173 66.1098 87.488V88.096C66.1098 89.0667 66.2431 89.7973 66.5098 90.288C66.7871 90.7787 67.1978 91.024 67.7418 91.024ZM72.3506 92V83.584H73.3426L73.5186 84.688H73.6146C73.7213 84.368 73.8866 84.0747 74.1106 83.808C74.3346 83.5307 74.644 83.392 75.0386 83.392C75.22 83.392 75.3693 83.4133 75.4866 83.456C75.604 83.4987 75.6626 83.52 75.6626 83.52V84.88H75.2306C74.9533 84.88 74.692 84.944 74.4466 85.072C74.212 85.1893 74.02 85.392 73.8706 85.68C73.732 85.968 73.6626 86.3627 73.6626 86.864V92H72.3506ZM76.7896 85.312V83.584H78.3896V85.312H76.7896ZM76.7896 92V90.272H78.3896V92H76.7896Z" fill="black" fill-opacity="0.5"/>
<path d="M20.352 114.192C19.6907 114.192 19.0773 114.085 18.512 113.872C17.9467 113.659 17.4933 113.312 17.152 112.832C16.8213 112.352 16.656 111.707 16.656 110.896C16.656 110.843 16.656 110.784 16.656 110.72C16.6667 110.645 16.672 110.597 16.672 110.576H18.128C18.128 110.587 18.1227 110.635 18.112 110.72C18.112 110.795 18.112 110.859 18.112 110.912C18.112 111.584 18.32 112.085 18.736 112.416C19.152 112.736 19.6693 112.896 20.288 112.896C21.024 112.896 21.5893 112.741 21.984 112.432C22.3893 112.112 22.592 111.659 22.592 111.072C22.592 110.677 22.4853 110.357 22.272 110.112C22.0693 109.867 21.7973 109.664 21.456 109.504C21.1253 109.344 20.7573 109.2 20.352 109.072C19.9467 108.944 19.536 108.805 19.12 108.656C18.7147 108.507 18.3413 108.315 18 108.08C17.6693 107.845 17.3973 107.547 17.184 107.184C16.9813 106.811 16.88 106.341 16.88 105.776C16.88 105.104 17.0347 104.549 17.344 104.112C17.664 103.675 18.0853 103.355 18.608 103.152C19.1413 102.939 19.728 102.832 20.368 102.832C21.008 102.832 21.584 102.939 22.096 103.152C22.6187 103.355 23.0347 103.685 23.344 104.144C23.6533 104.592 23.808 105.184 23.808 105.92V106.112H22.352V105.872C22.352 105.307 22.1653 104.875 21.792 104.576C21.4187 104.277 20.9547 104.128 20.4 104.128C19.824 104.128 19.3387 104.251 18.944 104.496C18.56 104.741 18.368 105.131 18.368 105.664C18.368 106.037 18.4693 106.341 18.672 106.576C18.8853 106.811 19.1573 107.008 19.488 107.168C19.8293 107.317 20.2027 107.456 20.608 107.584C21.0133 107.712 21.4187 107.851 21.824 108C22.2293 108.149 22.5973 108.341 22.928 108.576C23.2693 108.811 23.5413 109.109 23.744 109.472C23.9573 109.824 24.064 110.277 24.064 110.832C24.064 111.653 23.8987 112.309 23.568 112.8C23.248 113.291 22.8107 113.648 22.256 113.872C21.7013 114.085 21.0667 114.192 20.352 114.192ZM28.606 114.192C27.5607 114.192 26.766 113.851 26.222 113.168C25.6887 112.475 25.422 111.349 25.422 109.792C25.422 108.277 25.6833 107.168 26.206 106.464C26.7393 105.749 27.534 105.392 28.59 105.392C29.5073 105.392 30.1953 105.701 30.654 106.32C31.1233 106.928 31.358 107.936 31.358 109.344V110.176H26.798C26.8087 111.157 26.9633 111.877 27.262 112.336C27.5607 112.795 28.0193 113.024 28.638 113.024C29.054 113.024 29.3953 112.859 29.662 112.528C29.9287 112.187 30.062 111.723 30.062 111.136H31.358C31.358 112.075 31.102 112.821 30.59 113.376C30.0887 113.92 29.4273 114.192 28.606 114.192ZM26.814 109.008H29.982C29.982 108.208 29.8647 107.6 29.63 107.184C29.3953 106.768 29.0487 106.56 28.59 106.56C28.0033 106.56 27.5713 106.768 27.294 107.184C27.0273 107.589 26.8673 108.197 26.814 109.008ZM35.5029 114.192C34.5109 114.192 33.7802 113.84 33.3109 113.136C32.8522 112.421 32.6229 111.307 32.6229 109.792C32.6229 108.277 32.8575 107.168 33.3269 106.464C33.7962 105.749 34.5215 105.392 35.5029 105.392C36.4202 105.392 37.0762 105.675 37.4709 106.24C37.8762 106.805 38.0789 107.627 38.0789 108.704H36.7189C36.7189 107.979 36.6335 107.44 36.4629 107.088C36.2922 106.736 35.9722 106.56 35.5029 106.56C34.9802 106.56 34.5962 106.805 34.3509 107.296C34.1162 107.787 33.9989 108.517 33.9989 109.488V110.096C33.9989 111.067 34.1162 111.797 34.3509 112.288C34.5962 112.779 34.9802 113.024 35.5029 113.024C35.9722 113.024 36.3029 112.843 36.4949 112.48C36.6869 112.107 36.7829 111.573 36.7829 110.88H38.0789C38.0789 111.467 37.9935 112.011 37.8229 112.512C37.6522 113.013 37.3749 113.419 36.9909 113.728C36.6175 114.037 36.1215 114.192 35.5029 114.192ZM42.2574 114.192C41.276 114.192 40.5294 113.84 40.0174 113.136C39.5054 112.421 39.2494 111.307 39.2494 109.792C39.2494 108.277 39.5054 107.168 40.0174 106.464C40.5294 105.749 41.276 105.392 42.2574 105.392C43.2387 105.392 43.9854 105.749 44.4974 106.464C45.0094 107.168 45.2654 108.277 45.2654 109.792C45.2654 111.307 45.0094 112.421 44.4974 113.136C43.9854 113.84 43.2387 114.192 42.2574 114.192ZM42.2574 113.024C42.8014 113.024 43.2067 112.779 43.4734 112.288C43.7507 111.797 43.8894 111.067 43.8894 110.096V109.488C43.8894 108.517 43.7507 107.787 43.4734 107.296C43.2067 106.805 42.8014 106.56 42.2574 106.56C41.7134 106.56 41.3027 106.805 41.0254 107.296C40.7587 107.787 40.6254 108.517 40.6254 109.488V110.096C40.6254 111.067 40.7587 111.797 41.0254 112.288C41.3027 112.779 41.7134 113.024 42.2574 113.024ZM46.8663 114V105.584H47.8583L48.0343 106.56H48.1303C48.3649 106.144 48.6583 105.845 49.0103 105.664C49.3623 105.483 49.7463 105.392 50.1623 105.392C50.7916 105.392 51.2929 105.584 51.6663 105.968C52.0503 106.341 52.2423 106.997 52.2423 107.936V114H50.9303V108.032C50.9303 107.445 50.8183 107.056 50.5943 106.864C50.3809 106.661 50.0983 106.56 49.7463 106.56C49.3303 106.56 48.9623 106.763 48.6423 107.168C48.3329 107.573 48.1783 108.139 48.1783 108.864V114H46.8663ZM56.4511 114.192C55.6511 114.192 55.0165 113.845 54.5471 113.152C54.0778 112.448 53.8431 111.323 53.8431 109.776C53.8431 108.752 53.9551 107.92 54.1791 107.28C54.4031 106.629 54.7071 106.155 55.0911 105.856C55.4751 105.547 55.8965 105.392 56.3551 105.392C56.7605 105.392 57.1231 105.483 57.4431 105.664C57.7738 105.835 58.0085 106.075 58.1471 106.384H58.2271V102.432H59.5391V114H58.5471L58.3711 113.024H58.2911C58.0885 113.408 57.8271 113.701 57.5071 113.904C57.1871 114.096 56.8351 114.192 56.4511 114.192ZM56.7231 113.024C57.2245 113.024 57.5978 112.779 57.8431 112.288C58.0991 111.797 58.2271 111.067 58.2271 110.096V109.552C58.2271 108.56 58.0991 107.813 57.8431 107.312C57.5978 106.811 57.2245 106.56 56.7231 106.56C56.2218 106.56 55.8431 106.789 55.5871 107.248C55.3418 107.696 55.2191 108.443 55.2191 109.488V110.096C55.2191 111.141 55.3418 111.893 55.5871 112.352C55.8431 112.8 56.2218 113.024 56.7231 113.024ZM65.2606 114V103.024H71.5966V104.304H66.6686V107.856H71.0206V109.136H66.6686V114H65.2606ZM72.9563 114V102.432H74.2682V114H72.9563ZM78.7105 114.192C77.7292 114.192 76.9825 113.84 76.4705 113.136C75.9585 112.421 75.7025 111.307 75.7025 109.792C75.7025 108.277 75.9585 107.168 76.4705 106.464C76.9825 105.749 77.7292 105.392 78.7105 105.392C79.6918 105.392 80.4385 105.749 80.9505 106.464C81.4625 107.168 81.7185 108.277 81.7185 109.792C81.7185 111.307 81.4625 112.421 80.9505 113.136C80.4385 113.84 79.6918 114.192 78.7105 114.192ZM78.7105 113.024C79.2545 113.024 79.6598 112.779 79.9265 112.288C80.2038 111.797 80.3425 111.067 80.3425 110.096V109.488C80.3425 108.517 80.2038 107.787 79.9265 107.296C79.6598 106.805 79.2545 106.56 78.7105 106.56C78.1665 106.56 77.7558 106.805 77.4785 107.296C77.2118 107.787 77.0785 108.517 77.0785 109.488V110.096C77.0785 111.067 77.2118 111.797 77.4785 112.288C77.7558 112.779 78.1665 113.024 78.7105 113.024ZM86.0074 114.192C85.026 114.192 84.2794 113.84 83.7674 113.136C83.2554 112.421 82.9994 111.307 82.9994 109.792C82.9994 108.277 83.2554 107.168 83.7674 106.464C84.2794 105.749 85.026 105.392 86.0074 105.392C86.9887 105.392 87.7354 105.749 88.2474 106.464C88.7594 107.168 89.0154 108.277 89.0154 109.792C89.0154 111.307 88.7594 112.421 88.2474 113.136C87.7354 113.84 86.9887 114.192 86.0074 114.192ZM86.0074 113.024C86.5514 113.024 86.9567 112.779 87.2234 112.288C87.5007 111.797 87.6394 111.067 87.6394 110.096V109.488C87.6394 108.517 87.5007 107.787 87.2234 107.296C86.9567 106.805 86.5514 106.56 86.0074 106.56C85.4634 106.56 85.0527 106.805 84.7754 107.296C84.5087 107.787 84.3754 108.517 84.3754 109.488V110.096C84.3754 111.067 84.5087 111.797 84.7754 112.288C85.0527 112.779 85.4634 113.024 86.0074 113.024ZM90.6163 114V105.584H91.6083L91.7843 106.688H91.8803C91.9869 106.368 92.1523 106.075 92.3763 105.808C92.6003 105.531 92.9096 105.392 93.3043 105.392C93.4856 105.392 93.6349 105.413 93.7523 105.456C93.8696 105.499 93.9283 105.52 93.9283 105.52V106.88H93.4963C93.2189 106.88 92.9576 106.944 92.7123 107.072C92.4776 107.189 92.2856 107.392 92.1363 107.68C91.9976 107.968 91.9283 108.363 91.9283 108.864V114H90.6163ZM95.0553 107.312V105.584H96.6553V107.312H95.0553ZM95.0553 114V112.272H96.6553V114H95.0553Z" fill="black" fill-opacity="0.5"/>
<path d="M19.2 136V126.48H16.288V125.024H23.712V126.48H20.816V136H19.2ZM26.4788 136.192C25.4548 136.192 24.6761 135.84 24.1428 135.136C23.6201 134.421 23.3588 133.307 23.3588 131.792C23.3588 130.277 23.6201 129.168 24.1428 128.464C24.6761 127.749 25.4548 127.392 26.4788 127.392C27.5028 127.392 28.2761 127.749 28.7988 128.464C29.3321 129.168 29.5988 130.277 29.5988 131.792C29.5988 133.307 29.3321 134.421 28.7988 135.136C28.2761 135.84 27.5028 136.192 26.4788 136.192ZM26.4788 134.88C27.0121 134.88 27.4014 134.645 27.6468 134.176C27.9028 133.707 28.0308 133.013 28.0308 132.096V131.488C28.0308 130.571 27.9028 129.877 27.6468 129.408C27.4014 128.939 27.0121 128.704 26.4788 128.704C25.9561 128.704 25.5668 128.939 25.3108 129.408C25.0654 129.877 24.9428 130.571 24.9428 131.488V132.096C24.9428 133.013 25.0654 133.707 25.3108 134.176C25.5668 134.645 25.9561 134.88 26.4788 134.88ZM32.8424 136.176C32.4264 136.176 32.0957 136.075 31.8504 135.872C31.6157 135.669 31.445 135.413 31.3384 135.104C31.2424 134.795 31.1944 134.469 31.1944 134.128V128.896H30.4264V127.584H31.1944L31.4824 125.232H32.6984V127.584H33.8664V128.896H32.6984V134.144C32.6984 134.635 32.9384 134.88 33.4184 134.88H33.8664V135.952C33.749 136.016 33.589 136.069 33.3864 136.112C33.1944 136.155 33.013 136.176 32.8424 136.176ZM36.7334 136.192C36.5307 136.192 36.3014 136.16 36.0454 136.096C35.8 136.043 35.56 135.931 35.3254 135.76C35.1014 135.589 34.9147 135.349 34.7654 135.04C34.6267 134.731 34.5574 134.325 34.5574 133.824C34.5574 133.056 34.7387 132.469 35.1014 132.064C35.464 131.648 35.9654 131.36 36.6054 131.2C37.2454 131.04 37.9707 130.96 38.7814 130.96V129.952C38.7814 129.579 38.7014 129.275 38.5414 129.04C38.392 128.805 38.0774 128.688 37.5974 128.688C37.1387 128.688 36.824 128.816 36.6534 129.072C36.4827 129.328 36.3974 129.595 36.3974 129.872V130.08H34.9094C34.8987 130.027 34.8934 129.973 34.8934 129.92C34.8934 129.867 34.8934 129.803 34.8934 129.728C34.8934 128.981 35.1494 128.405 35.6614 128C36.1734 127.595 36.8347 127.392 37.6454 127.392C38.5414 127.392 39.2027 127.6 39.6294 128.016C40.0667 128.432 40.2854 129.024 40.2854 129.792V134.32C40.2854 134.523 40.3334 134.667 40.4294 134.752C40.5254 134.837 40.6267 134.88 40.7334 134.88H41.2134V135.936C41.128 135.979 41.0054 136.021 40.8454 136.064C40.696 136.117 40.504 136.144 40.2694 136.144C39.9067 136.144 39.608 136.048 39.3734 135.856C39.1387 135.664 38.9734 135.408 38.8774 135.088H38.7974C38.584 135.429 38.3067 135.701 37.9654 135.904C37.624 136.096 37.2134 136.192 36.7334 136.192ZM37.1974 134.88C37.4854 134.88 37.7467 134.805 37.9814 134.656C38.216 134.496 38.408 134.267 38.5574 133.968C38.7067 133.659 38.7814 133.296 38.7814 132.88V132.208C38.2694 132.208 37.8107 132.251 37.4054 132.336C37.0107 132.411 36.696 132.555 36.4614 132.768C36.2267 132.981 36.1094 133.296 36.1094 133.712C36.1094 134.128 36.2 134.427 36.3814 134.608C36.5734 134.789 36.8454 134.88 37.1974 134.88ZM42.2223 136V124.432H43.7263V136H42.2223ZM47.5465 136L51.0505 125.024H53.0505L56.5545 136H54.8425L54.1225 133.648H49.8665L49.1465 136H47.5465ZM50.2985 132.192H53.6745L52.2985 127.696C52.2665 127.547 52.2238 127.371 52.1705 127.168C52.1278 126.965 52.0905 126.789 52.0585 126.64C52.0372 126.48 52.0265 126.4 52.0265 126.4H51.9625C51.9625 126.4 51.9465 126.48 51.9145 126.64C51.8932 126.8 51.8612 126.981 51.8185 127.184C51.7758 127.387 51.7332 127.557 51.6905 127.696L50.2985 132.192ZM57.4593 136V127.584H58.6432L58.8353 128.736H58.9313C59.0486 128.405 59.2139 128.101 59.4273 127.824C59.6513 127.536 59.9659 127.392 60.3713 127.392C60.5739 127.392 60.7339 127.413 60.8513 127.456C60.9793 127.499 61.0433 127.52 61.0433 127.52V129.04H60.5312C60.2539 129.04 59.9926 129.099 59.7473 129.216C59.5126 129.333 59.3206 129.536 59.1713 129.824C59.0326 130.112 58.9633 130.507 58.9633 131.008V136H57.4593ZM64.9806 136.192C63.9246 136.192 63.1246 135.845 62.5806 135.152C62.0366 134.459 61.7646 133.339 61.7646 131.792C61.7646 130.277 62.0313 129.168 62.5646 128.464C63.098 127.749 63.8926 127.392 64.9486 127.392C65.898 127.392 66.6073 127.717 67.0766 128.368C67.5566 129.008 67.7966 130.048 67.7966 131.488V132.208H63.3326C63.3433 133.115 63.482 133.792 63.7486 134.24C64.0153 134.677 64.4313 134.896 64.9966 134.896C65.3913 134.896 65.706 134.736 65.9406 134.416C66.186 134.096 66.3086 133.659 66.3086 133.104H67.7966C67.7966 134.085 67.5353 134.848 67.0126 135.392C66.49 135.925 65.8126 136.192 64.9806 136.192ZM63.3486 130.96H66.2286C66.2286 130.224 66.122 129.664 65.9086 129.28C65.6953 128.885 65.3753 128.688 64.9486 128.688C64.4153 128.688 64.026 128.88 63.7806 129.264C63.5353 129.648 63.3913 130.213 63.3486 130.96ZM71.0615 136.192C70.8588 136.192 70.6295 136.16 70.3735 136.096C70.1282 136.043 69.8882 135.931 69.6535 135.76C69.4295 135.589 69.2428 135.349 69.0935 135.04C68.9548 134.731 68.8855 134.325 68.8855 133.824C68.8855 133.056 69.0668 132.469 69.4295 132.064C69.7922 131.648 70.2935 131.36 70.9335 131.2C71.5735 131.04 72.2988 130.96 73.1095 130.96V129.952C73.1095 129.579 73.0295 129.275 72.8695 129.04C72.7202 128.805 72.4055 128.688 71.9255 128.688C71.4668 128.688 71.1522 128.816 70.9815 129.072C70.8108 129.328 70.7255 129.595 70.7255 129.872V130.08H69.2375C69.2268 130.027 69.2215 129.973 69.2215 129.92C69.2215 129.867 69.2215 129.803 69.2215 129.728C69.2215 128.981 69.4775 128.405 69.9895 128C70.5015 127.595 71.1628 127.392 71.9735 127.392C72.8695 127.392 73.5308 127.6 73.9575 128.016C74.3948 128.432 74.6135 129.024 74.6135 129.792V134.32C74.6135 134.523 74.6615 134.667 74.7575 134.752C74.8535 134.837 74.9548 134.88 75.0615 134.88H75.5415V135.936C75.4562 135.979 75.3335 136.021 75.1735 136.064C75.0242 136.117 74.8322 136.144 74.5975 136.144C74.2348 136.144 73.9362 136.048 73.7015 135.856C73.4668 135.664 73.3015 135.408 73.2055 135.088H73.1255C72.9122 135.429 72.6348 135.701 72.2935 135.904C71.9522 136.096 71.5415 136.192 71.0615 136.192ZM71.5255 134.88C71.8135 134.88 72.0748 134.805 72.3095 134.656C72.5442 134.496 72.7362 134.267 72.8855 133.968C73.0348 133.659 73.1095 133.296 73.1095 132.88V132.208C72.5975 132.208 72.1388 132.251 71.7335 132.336C71.3388 132.411 71.0242 132.555 70.7895 132.768C70.5548 132.981 70.4375 133.296 70.4375 133.712C70.4375 134.128 70.5282 134.427 70.7095 134.608C70.9015 134.789 71.1735 134.88 71.5255 134.88ZM76.7104 129.456V127.584H78.5024V129.456H76.7104ZM76.7104 136V134.128H78.5024V136H76.7104Z" fill="black"/>
<path d="M179.964 70.192C179.313 70.192 178.748 70.0267 178.268 69.696C177.799 69.3653 177.436 68.8107 177.18 68.032C176.935 67.2533 176.812 66.1867 176.812 64.832C176.812 63.3067 176.935 62.1067 177.18 61.232C177.425 60.3573 177.777 59.7387 178.236 59.376C178.695 59.0133 179.244 58.832 179.884 58.832C180.513 58.832 181.02 58.992 181.404 59.312C181.799 59.6213 182.087 60.0427 182.268 60.576C182.449 61.1093 182.54 61.7173 182.54 62.4H181.212C181.212 61.6427 181.095 61.056 180.86 60.64C180.636 60.2133 180.289 60 179.82 60C179.383 60 179.041 60.1707 178.796 60.512C178.561 60.8427 178.396 61.3173 178.3 61.936C178.215 62.5547 178.167 63.2907 178.156 64.144C178.391 63.824 178.673 63.5733 179.004 63.392C179.335 63.2 179.697 63.104 180.092 63.104C180.711 63.104 181.223 63.264 181.628 63.584C182.033 63.8933 182.332 64.3147 182.524 64.848C182.727 65.3813 182.828 65.9787 182.828 66.64C182.828 67.3653 182.7 67.9947 182.444 68.528C182.199 69.0613 181.863 69.472 181.436 69.76C181.009 70.048 180.519 70.192 179.964 70.192ZM179.884 69.024C180.439 69.024 180.844 68.7893 181.1 68.32C181.356 67.8507 181.484 67.2907 181.484 66.64C181.484 65.9787 181.356 65.4187 181.1 64.96C180.844 64.4907 180.439 64.256 179.884 64.256C179.329 64.256 178.919 64.4907 178.652 64.96C178.396 65.4187 178.268 65.9787 178.268 66.64C178.268 67.2907 178.396 67.8507 178.652 68.32C178.919 68.7893 179.329 69.024 179.884 69.024ZM184.093 70V69.792C184.093 69.3547 184.157 68.9387 184.285 68.544C184.423 68.1493 184.615 67.7707 184.861 67.408C185.191 66.928 185.57 66.464 185.997 66.016C186.423 65.568 186.834 65.1147 187.229 64.656C187.634 64.1973 187.965 63.7227 188.221 63.232C188.487 62.7413 188.621 62.2187 188.621 61.664C188.621 61.4187 188.578 61.1733 188.493 60.928C188.407 60.672 188.258 60.464 188.045 60.304C187.831 60.1333 187.527 60.048 187.133 60.048C186.567 60.048 186.167 60.256 185.933 60.672C185.709 61.088 185.597 61.5787 185.597 62.144V62.8H184.237C184.237 62.8 184.226 62.7413 184.205 62.624C184.194 62.5067 184.189 62.352 184.189 62.16C184.189 61.3707 184.322 60.736 184.589 60.256C184.866 59.7653 185.229 59.408 185.677 59.184C186.135 58.9493 186.626 58.832 187.149 58.832C187.682 58.832 188.162 58.928 188.589 59.12C189.026 59.312 189.373 59.6213 189.629 60.048C189.885 60.464 190.013 61.008 190.013 61.68C190.013 62.2347 189.911 62.752 189.709 63.232C189.517 63.7013 189.266 64.1547 188.957 64.592C188.647 65.0187 188.306 65.4293 187.933 65.824C187.57 66.208 187.218 66.592 186.877 66.976C186.535 67.3493 186.242 67.7227 185.997 68.096C185.933 68.192 185.874 68.288 185.821 68.384C185.778 68.48 185.741 68.5707 185.709 68.656H190.061V70H184.093ZM195.326 70V67.296H191.086V66.112C191.47 65.408 191.838 64.656 192.19 63.856C192.542 63.0453 192.867 62.2133 193.166 61.36C193.464 60.5067 193.72 59.664 193.934 58.832H195.262C195.112 59.568 194.904 60.32 194.638 61.088C194.371 61.8453 194.088 62.5653 193.79 63.248C193.491 63.9307 193.208 64.528 192.942 65.04C192.675 65.5413 192.467 65.904 192.318 66.128H195.326V62.672C195.432 62.4053 195.523 62.16 195.598 61.936C195.672 61.712 195.742 61.4827 195.806 61.248C195.87 61.0027 195.934 60.7413 195.998 60.464H196.638V66.128H197.758V67.296H196.638V70H195.326ZM202.663 70V61.584H203.655L203.831 62.56H203.927C204.151 62.144 204.428 61.8453 204.759 61.664C205.09 61.4827 205.452 61.392 205.847 61.392C206.263 61.392 206.626 61.488 206.935 61.68C207.255 61.8613 207.49 62.1707 207.639 62.608C207.863 62.2027 208.162 61.8987 208.535 61.696C208.908 61.4933 209.292 61.392 209.687 61.392C210.082 61.392 210.428 61.4773 210.727 61.648C211.026 61.808 211.255 62.0747 211.415 62.448C211.586 62.8107 211.671 63.3067 211.671 63.936V70H210.359V64.032C210.359 63.4453 210.252 63.056 210.039 62.864C209.836 62.6613 209.58 62.56 209.271 62.56C208.876 62.56 208.535 62.7627 208.247 63.168C207.97 63.5733 207.831 64.1387 207.831 64.864V70H206.519V64.032C206.519 63.4453 206.412 63.056 206.199 62.864C205.996 62.6613 205.74 62.56 205.431 62.56C205.036 62.56 204.695 62.7627 204.407 63.168C204.119 63.5733 203.975 64.1387 203.975 64.864V70H202.663ZM213.185 63.04V62.784C213.185 62.3253 213.324 61.9253 213.601 61.584C213.878 61.232 214.172 60.9013 214.481 60.592C214.758 60.3147 215.004 60.048 215.217 59.792C215.43 59.536 215.537 59.2587 215.537 58.96C215.537 58.7787 215.489 58.5973 215.393 58.416C215.308 58.2347 215.126 58.144 214.849 58.144C214.593 58.144 214.412 58.2453 214.305 58.448C214.209 58.6507 214.166 58.864 214.177 59.088L214.193 59.552H213.233C213.233 59.552 213.222 59.504 213.201 59.408C213.18 59.312 213.169 59.2107 213.169 59.104C213.169 58.4533 213.334 57.9787 213.665 57.68C214.006 57.3707 214.412 57.216 214.881 57.216C215.318 57.216 215.702 57.3493 216.033 57.616C216.364 57.8827 216.529 58.3307 216.529 58.96C216.529 59.4187 216.39 59.8187 216.113 60.16C215.836 60.5013 215.553 60.816 215.265 61.104C215.084 61.2853 214.913 61.4613 214.753 61.632C214.604 61.792 214.502 61.9627 214.449 62.144H216.577V63.04H213.185Z" fill="black" fill-opacity="0.5"/>
<path d="M176.972 92V90.832H179.58V83.024H176.956V82.192C177.255 82.16 177.607 82.0907 178.012 81.984C178.417 81.8773 178.828 81.744 179.244 81.584C179.66 81.4133 180.039 81.2267 180.38 81.024H180.892V90.832H183.292V92H176.972ZM187.117 92.192C186.647 92.192 186.226 92.1067 185.853 91.936C185.479 91.7547 185.159 91.4507 184.893 91.024C184.637 90.5973 184.439 90.0213 184.301 89.296C184.173 88.56 184.109 87.632 184.109 86.512C184.109 85.392 184.173 84.4693 184.301 83.744C184.439 83.008 184.637 82.4267 184.893 82C185.159 81.5733 185.479 81.2747 185.853 81.104C186.226 80.9227 186.647 80.832 187.117 80.832C187.586 80.832 188.002 80.9227 188.365 81.104C188.738 81.2747 189.053 81.5733 189.309 82C189.575 82.4267 189.778 83.008 189.917 83.744C190.055 84.4693 190.125 85.392 190.125 86.512C190.125 87.632 190.055 88.56 189.917 89.296C189.778 90.0213 189.575 90.5973 189.309 91.024C189.053 91.4507 188.738 91.7547 188.365 91.936C188.002 92.1067 187.586 92.192 187.117 92.192ZM187.117 91.024C187.554 91.024 187.89 90.8533 188.125 90.512C188.37 90.1707 188.541 89.7067 188.637 89.12C188.733 88.5227 188.781 87.84 188.781 87.072V85.952C188.781 85.184 188.733 84.5067 188.637 83.92C188.541 83.3227 188.37 82.8533 188.125 82.512C187.89 82.1707 187.554 82 187.117 82C186.679 82 186.338 82.1707 186.093 82.512C185.858 82.8533 185.693 83.3227 185.597 83.92C185.501 84.5067 185.453 85.184 185.453 85.952V87.072C185.453 87.84 185.501 88.5227 185.597 89.12C185.693 89.7067 185.858 90.1707 186.093 90.512C186.338 90.8533 186.679 91.024 187.117 91.024ZM192.67 92C192.67 91.0507 192.766 90.128 192.958 89.232C193.16 88.3253 193.422 87.456 193.742 86.624C194.062 85.792 194.408 85.0187 194.782 84.304C195.166 83.5893 195.534 82.944 195.886 82.368H191.294V81.024H197.534V81.872C197.16 82.4373 196.771 83.0773 196.366 83.792C195.971 84.496 195.603 85.248 195.262 86.048C194.931 86.848 194.659 87.6853 194.446 88.56C194.243 89.424 194.142 90.2987 194.142 91.184C194.142 91.3333 194.142 91.4613 194.142 91.568C194.142 91.664 194.147 91.808 194.158 92H192.67ZM202.663 92V83.584H203.655L203.831 84.56H203.927C204.151 84.144 204.428 83.8453 204.759 83.664C205.09 83.4827 205.452 83.392 205.847 83.392C206.263 83.392 206.626 83.488 206.935 83.68C207.255 83.8613 207.49 84.1707 207.639 84.608C207.863 84.2027 208.162 83.8987 208.535 83.696C208.908 83.4933 209.292 83.392 209.687 83.392C210.082 83.392 210.428 83.4773 210.727 83.648C211.026 83.808 211.255 84.0747 211.415 84.448C211.586 84.8107 211.671 85.3067 211.671 85.936V92H210.359V86.032C210.359 85.4453 210.252 85.056 210.039 84.864C209.836 84.6613 209.58 84.56 209.271 84.56C208.876 84.56 208.535 84.7627 208.247 85.168C207.97 85.5733 207.831 86.1387 207.831 86.864V92H206.519V86.032C206.519 85.4453 206.412 85.056 206.199 84.864C205.996 84.6613 205.74 84.56 205.431 84.56C205.036 84.56 204.695 84.7627 204.407 85.168C204.119 85.5733 203.975 86.1387 203.975 86.864V92H202.663ZM213.185 85.04V84.784C213.185 84.3253 213.324 83.9253 213.601 83.584C213.878 83.232 214.172 82.9013 214.481 82.592C214.758 82.3147 215.004 82.048 215.217 81.792C215.43 81.536 215.537 81.2587 215.537 80.96C215.537 80.7787 215.489 80.5973 215.393 80.416C215.308 80.2347 215.126 80.144 214.849 80.144C214.593 80.144 214.412 80.2453 214.305 80.448C214.209 80.6507 214.166 80.864 214.177 81.088L214.193 81.552H213.233C213.233 81.552 213.222 81.504 213.201 81.408C213.18 81.312 213.169 81.2107 213.169 81.104C213.169 80.4533 213.334 79.9787 213.665 79.68C214.006 79.3707 214.412 79.216 214.881 79.216C215.318 79.216 215.702 79.3493 216.033 79.616C216.364 79.8827 216.529 80.3307 216.529 80.96C216.529 81.4187 216.39 81.8187 216.113 82.16C215.836 82.5013 215.553 82.816 215.265 83.104C215.084 83.2853 214.913 83.4613 214.753 83.632C214.604 83.792 214.502 83.9627 214.449 84.144H216.577V85.04H213.185Z" fill="black" fill-opacity="0.5"/>
<path d="M176.972 114V112.832H179.58V105.024H176.956V104.192C177.255 104.16 177.607 104.091 178.012 103.984C178.417 103.877 178.828 103.744 179.244 103.584C179.66 103.413 180.039 103.227 180.38 103.024H180.892V112.832H183.292V114H176.972ZM187.117 114.192C186.647 114.192 186.226 114.107 185.853 113.936C185.479 113.755 185.159 113.451 184.893 113.024C184.637 112.597 184.439 112.021 184.301 111.296C184.173 110.56 184.109 109.632 184.109 108.512C184.109 107.392 184.173 106.469 184.301 105.744C184.439 105.008 184.637 104.427 184.893 104C185.159 103.573 185.479 103.275 185.853 103.104C186.226 102.923 186.647 102.832 187.117 102.832C187.586 102.832 188.002 102.923 188.365 103.104C188.738 103.275 189.053 103.573 189.309 104C189.575 104.427 189.778 105.008 189.917 105.744C190.055 106.469 190.125 107.392 190.125 108.512C190.125 109.632 190.055 110.56 189.917 111.296C189.778 112.021 189.575 112.597 189.309 113.024C189.053 113.451 188.738 113.755 188.365 113.936C188.002 114.107 187.586 114.192 187.117 114.192ZM187.117 113.024C187.554 113.024 187.89 112.853 188.125 112.512C188.37 112.171 188.541 111.707 188.637 111.12C188.733 110.523 188.781 109.84 188.781 109.072V107.952C188.781 107.184 188.733 106.507 188.637 105.92C188.541 105.323 188.37 104.853 188.125 104.512C187.89 104.171 187.554 104 187.117 104C186.679 104 186.338 104.171 186.093 104.512C185.858 104.853 185.693 105.323 185.597 105.92C185.501 106.507 185.453 107.184 185.453 107.952V109.072C185.453 109.84 185.501 110.523 185.597 111.12C185.693 111.707 185.858 112.171 186.093 112.512C186.338 112.853 186.679 113.024 187.117 113.024ZM194.414 114.192C193.71 114.192 193.134 114.048 192.686 113.76C192.248 113.472 191.923 113.088 191.71 112.608C191.507 112.117 191.406 111.579 191.406 110.992C191.406 110.395 191.518 109.872 191.742 109.424C191.966 108.965 192.323 108.613 192.814 108.368C192.419 108.101 192.12 107.755 191.918 107.328C191.726 106.891 191.63 106.411 191.63 105.888C191.63 105.323 191.731 104.811 191.934 104.352C192.147 103.893 192.462 103.525 192.878 103.248C193.294 102.971 193.806 102.832 194.414 102.832C195.032 102.832 195.544 102.971 195.95 103.248C196.366 103.525 196.675 103.893 196.878 104.352C197.091 104.811 197.198 105.323 197.198 105.888C197.198 106.411 197.096 106.891 196.894 107.328C196.702 107.755 196.403 108.101 195.998 108.368C196.499 108.613 196.862 108.965 197.086 109.424C197.31 109.872 197.422 110.395 197.422 110.992C197.422 111.579 197.315 112.117 197.102 112.608C196.899 113.088 196.579 113.472 196.142 113.76C195.704 114.048 195.128 114.192 194.414 114.192ZM194.414 113.024C194.958 113.024 195.368 112.843 195.646 112.48C195.934 112.107 196.078 111.611 196.078 110.992C196.078 110.363 195.934 109.872 195.646 109.52C195.368 109.157 194.958 108.976 194.414 108.976C193.87 108.976 193.454 109.157 193.166 109.52C192.888 109.872 192.75 110.363 192.75 110.992C192.75 111.611 192.888 112.107 193.166 112.48C193.454 112.843 193.87 113.024 194.414 113.024ZM194.414 107.808C194.862 107.808 195.219 107.637 195.486 107.296C195.763 106.955 195.902 106.491 195.902 105.904C195.902 105.307 195.763 104.843 195.486 104.512C195.219 104.171 194.862 104 194.414 104C193.966 104 193.608 104.171 193.342 104.512C193.075 104.843 192.942 105.307 192.942 105.904C192.942 106.491 193.075 106.955 193.342 107.296C193.608 107.637 193.966 107.808 194.414 107.808ZM202.663 114V105.584H203.655L203.831 106.56H203.927C204.151 106.144 204.428 105.845 204.759 105.664C205.09 105.483 205.452 105.392 205.847 105.392C206.263 105.392 206.626 105.488 206.935 105.68C207.255 105.861 207.49 106.171 207.639 106.608C207.863 106.203 208.162 105.899 208.535 105.696C208.908 105.493 209.292 105.392 209.687 105.392C210.082 105.392 210.428 105.477 210.727 105.648C211.026 105.808 211.255 106.075 211.415 106.448C211.586 106.811 211.671 107.307 211.671 107.936V114H210.359V108.032C210.359 107.445 210.252 107.056 210.039 106.864C209.836 106.661 209.58 106.56 209.271 106.56C208.876 106.56 208.535 106.763 208.247 107.168C207.97 107.573 207.831 108.139 207.831 108.864V114H206.519V108.032C206.519 107.445 206.412 107.056 206.199 106.864C205.996 106.661 205.74 106.56 205.431 106.56C205.036 106.56 204.695 106.763 204.407 107.168C204.119 107.573 203.975 108.139 203.975 108.864V114H202.663ZM213.185 107.04V106.784C213.185 106.325 213.324 105.925 213.601 105.584C213.878 105.232 214.172 104.901 214.481 104.592C214.758 104.315 215.004 104.048 215.217 103.792C215.43 103.536 215.537 103.259 215.537 102.96C215.537 102.779 215.489 102.597 215.393 102.416C215.308 102.235 215.126 102.144 214.849 102.144C214.593 102.144 214.412 102.245 214.305 102.448C214.209 102.651 214.166 102.864 214.177 103.088L214.193 103.552H213.233C213.233 103.552 213.222 103.504 213.201 103.408C213.18 103.312 213.169 103.211 213.169 103.104C213.169 102.453 213.334 101.979 213.665 101.68C214.006 101.371 214.412 101.216 214.881 101.216C215.318 101.216 215.702 101.349 216.033 101.616C216.364 101.883 216.529 102.331 216.529 102.96C216.529 103.419 216.39 103.819 216.113 104.16C215.836 104.501 215.553 104.816 215.265 105.104C215.084 105.285 214.913 105.461 214.753 105.632C214.604 105.792 214.502 105.963 214.449 106.144H216.577V107.04H213.185Z" fill="black" fill-opacity="0.5"/>
<path d="M179.57 136.192C178.855 136.192 178.269 136.048 177.81 135.76C177.362 135.472 177.031 135.088 176.818 134.608C176.615 134.117 176.514 133.579 176.514 132.992C176.514 132.395 176.626 131.872 176.85 131.424C177.074 130.965 177.431 130.613 177.922 130.368C177.527 130.101 177.229 129.755 177.026 129.328C176.834 128.891 176.738 128.411 176.738 127.888C176.738 127.323 176.839 126.811 177.042 126.352C177.255 125.893 177.575 125.525 178.002 125.248C178.429 124.971 178.951 124.832 179.57 124.832C180.199 124.832 180.722 124.971 181.138 125.248C181.565 125.525 181.879 125.893 182.082 126.352C182.295 126.811 182.402 127.323 182.402 127.888C182.402 128.411 182.301 128.891 182.098 129.328C181.906 129.755 181.607 130.101 181.202 130.368C181.703 130.613 182.066 130.965 182.29 131.424C182.514 131.872 182.626 132.395 182.626 132.992C182.626 133.579 182.519 134.117 182.306 134.608C182.093 135.088 181.762 135.472 181.314 135.76C180.877 136.048 180.295 136.192 179.57 136.192ZM179.57 134.88C180.061 134.88 180.434 134.709 180.69 134.368C180.957 134.027 181.09 133.557 181.09 132.96C181.09 132.352 180.957 131.883 180.69 131.552C180.434 131.211 180.061 131.04 179.57 131.04C179.079 131.04 178.701 131.211 178.434 131.552C178.178 131.883 178.05 132.352 178.05 132.96C178.05 133.557 178.178 134.027 178.434 134.368C178.701 134.709 179.079 134.88 179.57 134.88ZM179.57 129.744C179.975 129.744 180.301 129.584 180.546 129.264C180.791 128.944 180.914 128.501 180.914 127.936C180.914 127.36 180.791 126.917 180.546 126.608C180.301 126.299 179.975 126.144 179.57 126.144C179.165 126.144 178.839 126.299 178.594 126.608C178.359 126.917 178.242 127.36 178.242 127.936C178.242 128.501 178.359 128.944 178.594 129.264C178.839 129.584 179.165 129.744 179.57 129.744ZM186.867 136.192C185.853 136.192 185.075 135.893 184.531 135.296C183.997 134.699 183.731 133.899 183.731 132.896V132.72H185.283V132.944C185.283 133.573 185.411 134.053 185.667 134.384C185.923 134.715 186.296 134.88 186.787 134.88C187.267 134.88 187.651 134.725 187.939 134.416C188.227 134.107 188.371 133.621 188.371 132.96C188.371 132.459 188.291 132.075 188.131 131.808C187.981 131.531 187.779 131.339 187.523 131.232C187.277 131.125 187.011 131.072 186.723 131.072H185.939V129.776H186.755C187.149 129.776 187.485 129.621 187.763 129.312C188.04 129.003 188.179 128.539 188.179 127.92C188.179 127.291 188.045 126.837 187.779 126.56C187.523 126.283 187.208 126.144 186.835 126.144C186.429 126.144 186.099 126.293 185.843 126.592C185.597 126.891 185.475 127.355 185.475 127.984V128.176H183.923V127.84C183.923 127.232 184.045 126.704 184.291 126.256C184.536 125.797 184.877 125.445 185.315 125.2C185.752 124.955 186.253 124.832 186.819 124.832C187.693 124.832 188.397 125.088 188.931 125.6C189.464 126.112 189.731 126.859 189.731 127.84C189.731 128.491 189.592 129.008 189.315 129.392C189.048 129.765 188.712 130.069 188.307 130.304V130.368C188.776 130.539 189.16 130.848 189.459 131.296C189.768 131.744 189.923 132.331 189.923 133.056C189.923 133.707 189.789 134.267 189.523 134.736C189.267 135.205 188.909 135.568 188.451 135.824C187.992 136.069 187.464 136.192 186.867 136.192ZM194.164 136.192C193.513 136.192 192.98 136.037 192.564 135.728C192.158 135.408 191.86 134.981 191.668 134.448C191.486 133.904 191.396 133.296 191.396 132.624H192.916C192.916 133.339 193.022 133.893 193.236 134.288C193.449 134.683 193.78 134.88 194.228 134.88C194.622 134.88 194.921 134.72 195.124 134.4C195.337 134.08 195.481 133.627 195.556 133.04C195.63 132.443 195.673 131.744 195.684 130.944C195.46 131.253 195.188 131.493 194.868 131.664C194.558 131.835 194.206 131.92 193.812 131.92C193.204 131.92 192.697 131.765 192.292 131.456C191.897 131.136 191.598 130.709 191.396 130.176C191.204 129.643 191.108 129.045 191.108 128.384C191.108 127.648 191.23 127.019 191.476 126.496C191.732 125.963 192.078 125.552 192.516 125.264C192.964 124.976 193.465 124.832 194.02 124.832C194.692 124.832 195.262 124.997 195.732 125.328C196.212 125.659 196.58 126.213 196.836 126.992C197.092 127.771 197.22 128.837 197.22 130.192C197.22 131.717 197.097 132.917 196.852 133.792C196.617 134.667 196.27 135.285 195.812 135.648C195.353 136.011 194.804 136.192 194.164 136.192ZM194.1 130.64C194.601 130.64 194.969 130.421 195.204 129.984C195.449 129.547 195.572 129.013 195.572 128.384C195.572 127.755 195.449 127.227 195.204 126.8C194.969 126.363 194.601 126.144 194.1 126.144C193.598 126.144 193.23 126.363 192.996 126.8C192.761 127.227 192.644 127.755 192.644 128.384C192.644 129.013 192.761 129.547 192.996 129.984C193.23 130.421 193.598 130.64 194.1 130.64ZM202.381 136V127.584H203.565L203.757 128.576H203.853C204.066 128.192 204.338 127.899 204.669 127.696C205 127.493 205.373 127.392 205.789 127.392C206.205 127.392 206.568 127.488 206.877 127.68C207.197 127.861 207.437 128.171 207.597 128.608C207.81 128.235 208.104 127.941 208.477 127.728C208.85 127.504 209.25 127.392 209.677 127.392C210.072 127.392 210.418 127.477 210.717 127.648C211.026 127.808 211.266 128.08 211.437 128.464C211.608 128.837 211.693 129.344 211.693 129.984V136H210.189V130.224C210.189 129.648 210.093 129.259 209.901 129.056C209.709 128.843 209.458 128.736 209.149 128.736C208.776 128.736 208.456 128.923 208.189 129.296C207.922 129.659 207.789 130.165 207.789 130.816V136H206.301V130.224C206.301 129.648 206.205 129.259 206.013 129.056C205.821 128.843 205.565 128.736 205.245 128.736C204.872 128.736 204.552 128.928 204.285 129.312C204.018 129.685 203.885 130.197 203.885 130.848V136H202.381ZM213.137 129.04V128.8C213.137 128.341 213.276 127.936 213.553 127.584C213.83 127.221 214.124 126.88 214.433 126.56C214.71 126.283 214.95 126.016 215.153 125.76C215.366 125.504 215.473 125.232 215.473 124.944C215.473 124.752 215.43 124.576 215.345 124.416C215.26 124.256 215.089 124.176 214.833 124.176C214.598 124.176 214.433 124.272 214.337 124.464C214.241 124.645 214.193 124.843 214.193 125.056L214.209 125.504H213.185C213.185 125.504 213.174 125.461 213.153 125.376C213.132 125.28 213.121 125.179 213.121 125.072C213.121 124.464 213.286 124.005 213.617 123.696C213.948 123.376 214.358 123.216 214.849 123.216C215.318 123.216 215.713 123.355 216.033 123.632C216.364 123.909 216.529 124.336 216.529 124.912C216.529 125.381 216.39 125.792 216.113 126.144C215.836 126.496 215.553 126.816 215.265 127.104C215.094 127.275 214.934 127.44 214.785 127.6C214.646 127.76 214.55 127.925 214.497 128.096H216.577V129.04H213.137Z" fill="black"/>
<rect x="16.5" y="149.5" width="200" height="39" rx="3.5" stroke="#2E4683"/>
<g clip-path="url(#clip0_280_3094)">
<path d="M76.3337 166.5H73.0003V161.5H68.0003V166.5H64.667L70.5003 172.333L76.3337 166.5ZM64.667 174V175.667H76.3337V174H64.667Z" fill="#2E4683"/>
</g>
<path d="M89.62 175V164.024H95.956V165.304H91.028V168.856H95.38V170.136H91.028V175H89.62ZM97.6356 175V164.024H99.0436V173.72H103.524V175H97.6356ZM108.917 175.192C107.573 175.192 106.517 174.723 105.749 173.784C104.981 172.835 104.597 171.411 104.597 169.512C104.597 167.603 104.981 166.179 105.749 165.24C106.517 164.301 107.573 163.832 108.917 163.832C110.261 163.832 111.317 164.301 112.085 165.24C112.853 166.179 113.237 167.603 113.237 169.512C113.237 171.411 112.853 172.835 112.085 173.784C111.317 174.723 110.261 175.192 108.917 175.192ZM108.917 173.896C109.802 173.896 110.495 173.565 110.997 172.904C111.509 172.243 111.765 171.245 111.765 169.912V169.112C111.765 167.779 111.509 166.781 110.997 166.12C110.495 165.459 109.802 165.128 108.917 165.128C108.042 165.128 107.349 165.459 106.837 166.12C106.325 166.781 106.069 167.779 106.069 169.112V169.912C106.069 171.245 106.325 172.243 106.837 172.904C107.349 173.565 108.042 173.896 108.917 173.896ZM119.12 175.192C117.776 175.192 116.72 174.723 115.952 173.784C115.184 172.835 114.8 171.411 114.8 169.512C114.8 167.603 115.184 166.179 115.952 165.24C116.72 164.301 117.776 163.832 119.12 163.832C120.464 163.832 121.52 164.301 122.288 165.24C123.056 166.179 123.44 167.603 123.44 169.512C123.44 171.411 123.056 172.835 122.288 173.784C121.52 174.723 120.464 175.192 119.12 175.192ZM119.12 173.896C120.005 173.896 120.698 173.565 121.2 172.904C121.712 172.243 121.968 171.245 121.968 169.912V169.112C121.968 167.779 121.712 166.781 121.2 166.12C120.698 165.459 120.005 165.128 119.12 165.128C118.245 165.128 117.552 165.459 117.04 166.12C116.528 166.781 116.272 167.779 116.272 169.112V169.912C116.272 171.245 116.528 172.243 117.04 172.904C117.552 173.565 118.245 173.896 119.12 173.896ZM125.339 175V164.024H129.755C130.832 164.024 131.648 164.307 132.203 164.872C132.757 165.427 133.035 166.157 133.035 167.064C133.035 167.747 132.864 168.339 132.523 168.84C132.181 169.331 131.701 169.683 131.083 169.896L133.291 175H131.723L129.691 170.152H126.747V175H125.339ZM126.747 168.872H129.707C130.272 168.872 130.72 168.707 131.051 168.376C131.392 168.045 131.563 167.608 131.563 167.064C131.563 166.52 131.403 166.093 131.083 165.784C130.763 165.464 130.304 165.304 129.707 165.304H126.747V168.872ZM138.448 175V164.024H142.368C143.093 164.024 143.696 164.157 144.176 164.424C144.667 164.691 145.035 165.064 145.28 165.544C145.525 166.024 145.648 166.584 145.648 167.224C145.648 167.864 145.515 168.429 145.248 168.92C144.981 169.411 144.603 169.795 144.112 170.072C143.632 170.339 143.051 170.472 142.368 170.472H139.856V175H138.448ZM139.856 169.192H142.32C142.885 169.192 143.333 169.011 143.664 168.648C144.005 168.285 144.176 167.811 144.176 167.224C144.176 166.627 144.016 166.157 143.696 165.816C143.376 165.475 142.917 165.304 142.32 165.304H139.856V169.192ZM147.198 175V164.024H148.606V173.72H153.086V175H147.198ZM153.359 175L156.847 164.024H158.655L162.143 175H160.623L159.871 172.552H155.519L154.767 175H153.359ZM155.903 171.272H159.471L157.983 166.392C157.951 166.264 157.914 166.104 157.871 165.912C157.828 165.72 157.791 165.549 157.759 165.4C157.738 165.251 157.727 165.176 157.727 165.176H157.663C157.663 165.176 157.647 165.256 157.615 165.416C157.594 165.565 157.562 165.736 157.519 165.928C157.487 166.12 157.45 166.275 157.407 166.392L155.903 171.272ZM163.245 175V164.024H164.461L168.541 170.92C168.626 171.059 168.717 171.245 168.813 171.48C168.92 171.715 169.01 171.928 169.085 172.12C169.17 172.301 169.213 172.392 169.213 172.392L169.261 172.376C169.261 172.376 169.256 172.28 169.245 172.088C169.245 171.896 169.24 171.683 169.229 171.448C169.218 171.213 169.213 171.037 169.213 170.92V164.024H170.477V175H169.309L165.197 168.008C165.112 167.848 165.01 167.656 164.893 167.432C164.786 167.197 164.69 166.989 164.605 166.808C164.53 166.627 164.493 166.536 164.493 166.536L164.445 166.552C164.445 166.552 164.45 166.643 164.461 166.824C164.472 167.005 164.482 167.213 164.493 167.448C164.504 167.672 164.509 167.859 164.509 168.008V175H163.245Z" fill="#2E4683"/>
<path d="M117 240L98.8135 207L135.187 207L117 240Z" fill="white"/>
<defs>
<clipPath id="clip0_280_3094">
<rect width="20" height="20" fill="white" transform="translate(60.5 159)"/>
</clipPath>
</defs>
</svg>
