<svg  viewBox="0 0 233 240" fill="none" xmlns="http://www.w3.org/2000/svg">
<rect width="233" height="207" rx="4" fill="white"/>
<path d="M19.3641 39L16.3041 25.28H18.6241L20.4241 34.08C20.4641 34.3067 20.5041 34.5867 20.5441 34.92C20.5975 35.24 20.6375 35.5333 20.6641 35.8C20.7041 36.0533 20.7241 36.18 20.7241 36.18H20.8041C20.8041 36.18 20.8175 36.06 20.8441 35.82C20.8708 35.58 20.9041 35.2933 20.9441 34.96C20.9975 34.6267 21.0508 34.3333 21.1041 34.08L22.7241 25.28H25.4841L27.1441 34.08C27.1841 34.3067 27.2241 34.5867 27.2641 34.92C27.3175 35.2533 27.3575 35.5467 27.3841 35.8C27.4108 36.0533 27.4241 36.18 27.4241 36.18H27.5041C27.5041 36.18 27.5175 36.06 27.5441 35.82C27.5841 35.5667 27.6241 35.28 27.6641 34.96C27.7175 34.6267 27.7708 34.3333 27.8241 34.08L29.6441 25.28H31.6441L28.5841 39H26.1241L24.3241 30.06C24.2841 29.8733 24.2441 29.6533 24.2041 29.4C24.1641 29.1467 24.1308 28.9 24.1041 28.66C24.0775 28.42 24.0508 28.2267 24.0241 28.08C24.0108 27.92 24.0041 27.84 24.0041 27.84H23.9241C23.9241 27.84 23.9108 27.9267 23.8841 28.1C23.8708 28.26 23.8441 28.46 23.8041 28.7C23.7775 28.94 23.7441 29.1867 23.7041 29.44C23.6775 29.68 23.6441 29.8867 23.6041 30.06L21.8441 39H19.3641ZM34.227 39.24C33.987 39.24 33.707 39.2 33.387 39.12C33.0803 39.04 32.787 38.9 32.507 38.7C32.227 38.4867 31.9936 38.1867 31.807 37.8C31.6336 37.4133 31.547 36.9067 31.547 36.28C31.547 35.32 31.7736 34.58 32.227 34.06C32.6803 33.54 33.3003 33.18 34.087 32.98C34.887 32.7667 35.7936 32.66 36.807 32.66V31.46C36.807 31.06 36.7203 30.72 36.547 30.44C36.387 30.16 36.0403 30.02 35.507 30.02C34.9736 30.02 34.607 30.16 34.407 30.44C34.2203 30.72 34.127 31.0133 34.127 31.32V31.6H32.027C32.0136 31.5333 32.007 31.4667 32.007 31.4C32.007 31.3333 32.007 31.2533 32.007 31.16C32.007 30.2533 32.327 29.54 32.967 29.02C33.607 28.5 34.4536 28.24 35.507 28.24C36.6803 28.24 37.547 28.5067 38.107 29.04C38.667 29.5733 38.947 30.32 38.947 31.28V36.72C38.947 36.9733 39.007 37.1533 39.127 37.26C39.247 37.3667 39.3736 37.42 39.507 37.42H40.047V38.92C39.927 38.9867 39.7603 39.0533 39.547 39.12C39.3336 39.1867 39.067 39.22 38.747 39.22C38.2803 39.22 37.8936 39.0933 37.587 38.84C37.2803 38.5867 37.067 38.26 36.947 37.86H36.847C36.567 38.2733 36.2203 38.6067 35.807 38.86C35.407 39.1133 34.8803 39.24 34.227 39.24ZM35.007 37.42C35.3803 37.42 35.7003 37.32 35.967 37.12C36.2336 36.9067 36.4403 36.62 36.587 36.26C36.7336 35.9 36.807 35.4867 36.807 35.02V34.3C36.247 34.3 35.7336 34.3533 35.267 34.46C34.8136 34.5533 34.447 34.7333 34.167 35C33.887 35.2533 33.747 35.62 33.747 36.1C33.747 36.54 33.847 36.8733 34.047 37.1C34.2603 37.3133 34.5803 37.42 35.007 37.42ZM41.388 39V28.48H43.128L43.388 29.96H43.508C43.6414 29.5333 43.8414 29.14 44.108 28.78C44.388 28.42 44.788 28.24 45.308 28.24C45.588 28.24 45.808 28.2667 45.968 28.32C46.1414 28.3733 46.228 28.4 46.228 28.4V30.5H45.488C45.1414 30.5 44.8147 30.58 44.508 30.74C44.2147 30.8867 43.9747 31.1333 43.788 31.48C43.6147 31.8267 43.528 32.3133 43.528 32.94V39H41.388ZM51.0627 39.24C49.7294 39.24 48.7161 38.8 48.0227 37.92C47.3427 37.04 47.0027 35.6467 47.0027 33.74C47.0027 31.8467 47.3427 30.46 48.0227 29.58C48.7161 28.6867 49.7094 28.24 51.0027 28.24C52.2294 28.24 53.1494 28.6667 53.7627 29.52C54.3894 30.36 54.7027 31.7 54.7027 33.54V34.3H49.2227C49.2361 35.3267 49.3827 36.1133 49.6627 36.66C49.9561 37.1933 50.4294 37.46 51.0827 37.46C51.5361 37.46 51.8961 37.2733 52.1627 36.9C52.4427 36.5133 52.5827 35.9867 52.5827 35.32H54.7027C54.7027 36.6133 54.3561 37.5933 53.6627 38.26C52.9827 38.9133 52.1161 39.24 51.0627 39.24ZM49.2427 32.66H52.4427C52.4427 31.82 52.3227 31.1733 52.0827 30.72C51.8561 30.2533 51.4961 30.02 51.0027 30.02C50.4294 30.02 50.0027 30.2467 49.7227 30.7C49.4561 31.1533 49.2961 31.8067 49.2427 32.66ZM56.5638 39V24.54H58.7038V29.6H58.7838C59.0238 29.2133 59.3505 28.8933 59.7638 28.64C60.1905 28.3733 60.6905 28.24 61.2638 28.24C62.0772 28.24 62.7372 28.4867 63.2438 28.98C63.7505 29.4733 64.0038 30.3333 64.0038 31.56V39H61.8638V32.02C61.8638 31.3267 61.7372 30.8467 61.4838 30.58C61.2305 30.3133 60.8838 30.18 60.4438 30.18C59.9638 30.18 59.5505 30.4 59.2038 30.84C58.8705 31.28 58.7038 31.8467 58.7038 32.54V39H56.5638ZM70.0104 39.24C68.6771 39.24 67.6704 38.8 66.9904 37.92C66.3104 37.0267 65.9704 35.6333 65.9704 33.74C65.9704 31.8467 66.3104 30.46 66.9904 29.58C67.6704 28.6867 68.6771 28.24 70.0104 28.24C71.3571 28.24 72.3704 28.6867 73.0504 29.58C73.7304 30.46 74.0704 31.8467 74.0704 33.74C74.0704 35.6333 73.7304 37.0267 73.0504 37.92C72.3704 38.8 71.3571 39.24 70.0104 39.24ZM70.0104 37.42C70.6504 37.42 71.1104 37.14 71.3904 36.58C71.6837 36.02 71.8304 35.2 71.8304 34.12V33.36C71.8304 32.28 71.6837 31.46 71.3904 30.9C71.1104 30.34 70.6504 30.06 70.0104 30.06C69.3704 30.06 68.9037 30.34 68.6104 30.9C68.3304 31.46 68.1904 32.28 68.1904 33.36V34.12C68.1904 35.2 68.3304 36.02 68.6104 36.58C68.9037 37.14 69.3704 37.42 70.0104 37.42ZM78.737 39.24C77.937 39.24 77.2836 38.9933 76.777 38.5C76.2703 38.0067 76.017 37.1467 76.017 35.92V28.48H78.157V35.46C78.157 36.1533 78.277 36.6333 78.517 36.9C78.7703 37.1667 79.117 37.3 79.557 37.3C80.0503 37.3 80.4636 37.0867 80.797 36.66C81.1436 36.2333 81.317 35.6667 81.317 34.96V28.48H83.457V39H81.717L81.477 37.72H81.357C81.0903 38.1733 80.737 38.54 80.297 38.82C79.857 39.1 79.337 39.24 78.737 39.24ZM88.9235 39.24C88.1235 39.24 87.4502 39.1 86.9035 38.82C86.3568 38.5267 85.9435 38.14 85.6635 37.66C85.3968 37.1667 85.2635 36.6067 85.2635 35.98C85.2635 35.9 85.2635 35.8333 85.2635 35.78C85.2768 35.7133 85.2835 35.68 85.2835 35.68H87.4835V35.84C87.4835 36.4267 87.6435 36.8467 87.9635 37.1C88.2835 37.34 88.6302 37.46 89.0035 37.46C89.3635 37.46 89.6968 37.36 90.0035 37.16C90.3235 36.96 90.4835 36.6333 90.4835 36.18C90.4835 35.78 90.3568 35.4733 90.1035 35.26C89.8635 35.0467 89.5502 34.88 89.1635 34.76C88.7902 34.6267 88.3902 34.5 87.9635 34.38C87.5368 34.2467 87.1302 34.0733 86.7435 33.86C86.3702 33.6467 86.0568 33.3467 85.8035 32.96C85.5635 32.56 85.4435 32.0333 85.4435 31.38C85.4435 30.6867 85.5968 30.1067 85.9035 29.64C86.2235 29.1733 86.6568 28.8267 87.2035 28.6C87.7502 28.36 88.3635 28.24 89.0435 28.24C89.7102 28.24 90.2968 28.36 90.8035 28.6C91.3102 28.84 91.7035 29.1733 91.9835 29.6C92.2768 30.0267 92.4235 30.5267 92.4235 31.1C92.4235 31.1933 92.4168 31.2867 92.4035 31.38C92.4035 31.4733 92.4035 31.5267 92.4035 31.54H90.2235V31.46C90.2102 31.0067 90.0968 30.6533 89.8835 30.4C89.6835 30.1467 89.3702 30.02 88.9435 30.02C88.6502 30.02 88.4035 30.08 88.2035 30.2C88.0168 30.3067 87.8768 30.4467 87.7835 30.62C87.6902 30.7933 87.6435 30.9867 87.6435 31.2C87.6435 31.5467 87.7635 31.8133 88.0035 32C88.2435 32.1867 88.5502 32.34 88.9235 32.46C89.3102 32.58 89.7168 32.7 90.1435 32.82C90.5702 32.94 90.9768 33.1133 91.3635 33.34C91.7502 33.5533 92.0635 33.8667 92.3035 34.28C92.5435 34.68 92.6635 35.22 92.6635 35.9C92.6635 36.7133 92.4968 37.3667 92.1635 37.86C91.8435 38.34 91.4035 38.6933 90.8435 38.92C90.2835 39.1333 89.6435 39.24 88.9235 39.24ZM98.1721 39.24C96.8388 39.24 95.8254 38.8 95.1321 37.92C94.4521 37.04 94.1121 35.6467 94.1121 33.74C94.1121 31.8467 94.4521 30.46 95.1321 29.58C95.8254 28.6867 96.8188 28.24 98.1121 28.24C99.3388 28.24 100.259 28.6667 100.872 29.52C101.499 30.36 101.812 31.7 101.812 33.54V34.3H96.3321C96.3454 35.3267 96.4921 36.1133 96.7721 36.66C97.0654 37.1933 97.5388 37.46 98.1921 37.46C98.6454 37.46 99.0054 37.2733 99.2721 36.9C99.5521 36.5133 99.6921 35.9867 99.6921 35.32H101.812C101.812 36.6133 101.465 37.5933 100.772 38.26C100.092 38.9133 99.2254 39.24 98.1721 39.24ZM96.3521 32.66H99.5521C99.5521 31.82 99.4321 31.1733 99.1921 30.72C98.9654 30.2533 98.6054 30.02 98.1121 30.02C97.5388 30.02 97.1121 30.2467 96.8321 30.7C96.5654 31.1533 96.4054 31.8067 96.3521 32.66ZM112.495 39V37.18H115.655V28.2H112.475V26.8C112.861 26.76 113.308 26.6733 113.815 26.54C114.321 26.3933 114.835 26.2133 115.355 26C115.888 25.7867 116.368 25.5467 116.795 25.28H117.775V37.18H120.675V39H112.495Z" fill="black"/>
<path d="M21.104 70.192C19.7173 70.192 18.6507 69.7227 17.904 68.784C17.1573 67.8347 16.784 66.4107 16.784 64.512C16.784 62.6027 17.1733 61.1787 17.952 60.24C18.7413 59.3013 19.8187 58.832 21.184 58.832C21.952 58.832 22.6347 58.976 23.232 59.264C23.8293 59.552 24.2987 59.9893 24.64 60.576C24.992 61.152 25.168 61.8827 25.168 62.768H23.728C23.728 61.8507 23.4933 61.184 23.024 60.768C22.5547 60.3413 21.9413 60.128 21.184 60.128C20.2773 60.128 19.5627 60.4587 19.04 61.12C18.5173 61.7813 18.256 62.7787 18.256 64.112V64.912C18.256 66.2453 18.5013 67.2427 18.992 67.904C19.4827 68.5653 20.1867 68.896 21.104 68.896C22.0213 68.896 22.688 68.64 23.104 68.128C23.52 67.6053 23.728 66.8213 23.728 65.776V64.928L24.32 65.52H20.88V64.288H25.168V70H24.24L23.936 68.784C23.6053 69.2747 23.2 69.632 22.72 69.856C22.24 70.08 21.7013 70.192 21.104 70.192ZM27.1631 70V61.584H28.1551L28.3311 62.688H28.4271C28.5338 62.368 28.6991 62.0747 28.9231 61.808C29.1471 61.5307 29.4565 61.392 29.8511 61.392C30.0325 61.392 30.1818 61.4133 30.2991 61.456C30.4165 61.4987 30.4751 61.52 30.4751 61.52V62.88H30.0431C29.7658 62.88 29.5045 62.944 29.2591 63.072C29.0245 63.1893 28.8325 63.392 28.6831 63.68C28.5445 63.968 28.4751 64.3627 28.4751 64.864V70H27.1631ZM34.2261 70.192C33.2448 70.192 32.4981 69.84 31.9861 69.136C31.4741 68.4213 31.2181 67.3067 31.2181 65.792C31.2181 64.2773 31.4741 63.168 31.9861 62.464C32.4981 61.7493 33.2448 61.392 34.2261 61.392C35.2075 61.392 35.9541 61.7493 36.4661 62.464C36.9781 63.168 37.2341 64.2773 37.2341 65.792C37.2341 67.3067 36.9781 68.4213 36.4661 69.136C35.9541 69.84 35.2075 70.192 34.2261 70.192ZM34.2261 69.024C34.7701 69.024 35.1755 68.7787 35.4421 68.288C35.7195 67.7973 35.8581 67.0667 35.8581 66.096V65.488C35.8581 64.5173 35.7195 63.7867 35.4421 63.296C35.1755 62.8053 34.7701 62.56 34.2261 62.56C33.6821 62.56 33.2715 62.8053 32.9941 63.296C32.7275 63.7867 32.5941 64.5173 32.5941 65.488V66.096C32.5941 67.0667 32.7275 67.7973 32.9941 68.288C33.2715 68.7787 33.6821 69.024 34.2261 69.024ZM40.915 70.192C40.2857 70.192 39.779 70.0053 39.395 69.632C39.0217 69.248 38.835 68.5867 38.835 67.648V61.584H40.147V67.552C40.147 68.1387 40.2537 68.5333 40.467 68.736C40.691 68.928 40.979 69.024 41.331 69.024C41.747 69.024 42.1097 68.8213 42.419 68.416C42.739 68.0107 42.899 67.4453 42.899 66.72V61.584H44.211V70H43.219L43.043 69.024H42.947C42.7123 69.44 42.419 69.7387 42.067 69.92C41.715 70.1013 41.331 70.192 40.915 70.192ZM46.1319 70V61.584H47.1239L47.2999 62.56H47.3959C47.6305 62.144 47.9239 61.8453 48.2759 61.664C48.6279 61.4827 49.0119 61.392 49.4279 61.392C50.0572 61.392 50.5585 61.584 50.9319 61.968C51.3159 62.3413 51.5079 62.9973 51.5079 63.936V70H50.1959V64.032C50.1959 63.4453 50.0839 63.056 49.8599 62.864C49.6465 62.6613 49.3639 62.56 49.0119 62.56C48.5959 62.56 48.2279 62.7627 47.9079 63.168C47.5985 63.5733 47.4439 64.1387 47.4439 64.864V70H46.1319ZM55.7168 70.192C54.9168 70.192 54.2821 69.8453 53.8128 69.152C53.3434 68.448 53.1088 67.3227 53.1088 65.776C53.1088 64.752 53.2208 63.92 53.4448 63.28C53.6688 62.6293 53.9728 62.1547 54.3568 61.856C54.7408 61.5467 55.1621 61.392 55.6208 61.392C56.0261 61.392 56.3888 61.4827 56.7088 61.664C57.0394 61.8347 57.2741 62.0747 57.4128 62.384H57.4928V58.432H58.8048V70H57.8128L57.6368 69.024H57.5568C57.3541 69.408 57.0928 69.7013 56.7728 69.904C56.4528 70.096 56.1008 70.192 55.7168 70.192ZM55.9888 69.024C56.4901 69.024 56.8634 68.7787 57.1088 68.288C57.3648 67.7973 57.4928 67.0667 57.4928 66.096V65.552C57.4928 64.56 57.3648 63.8133 57.1088 63.312C56.8634 62.8107 56.4901 62.56 55.9888 62.56C55.4874 62.56 55.1088 62.7893 54.8528 63.248C54.6074 63.696 54.4848 64.4427 54.4848 65.488V66.096C54.4848 67.1413 54.6074 67.8933 54.8528 68.352C55.1088 68.8 55.4874 69.024 55.9888 69.024ZM64.5263 70V59.024H70.8623V60.304H65.9343V63.856H70.2863V65.136H65.9343V70H64.5263ZM72.2219 70V58.432H73.5339V70H72.2219ZM77.9761 70.192C76.9948 70.192 76.2481 69.84 75.7361 69.136C75.2241 68.4213 74.9681 67.3067 74.9681 65.792C74.9681 64.2773 75.2241 63.168 75.7361 62.464C76.2481 61.7493 76.9948 61.392 77.9761 61.392C78.9575 61.392 79.7041 61.7493 80.2161 62.464C80.7281 63.168 80.9841 64.2773 80.9841 65.792C80.9841 67.3067 80.7281 68.4213 80.2161 69.136C79.7041 69.84 78.9575 70.192 77.9761 70.192ZM77.9761 69.024C78.5201 69.024 78.9255 68.7787 79.1921 68.288C79.4695 67.7973 79.6081 67.0667 79.6081 66.096V65.488C79.6081 64.5173 79.4695 63.7867 79.1921 63.296C78.9255 62.8053 78.5201 62.56 77.9761 62.56C77.4321 62.56 77.0215 62.8053 76.7441 63.296C76.4775 63.7867 76.3441 64.5173 76.3441 65.488V66.096C76.3441 67.0667 76.4775 67.7973 76.7441 68.288C77.0215 68.7787 77.4321 69.024 77.9761 69.024ZM85.273 70.192C84.2917 70.192 83.545 69.84 83.033 69.136C82.521 68.4213 82.265 67.3067 82.265 65.792C82.265 64.2773 82.521 63.168 83.033 62.464C83.545 61.7493 84.2917 61.392 85.273 61.392C86.2543 61.392 87.001 61.7493 87.513 62.464C88.025 63.168 88.281 64.2773 88.281 65.792C88.281 67.3067 88.025 68.4213 87.513 69.136C87.001 69.84 86.2543 70.192 85.273 70.192ZM85.273 69.024C85.817 69.024 86.2223 68.7787 86.489 68.288C86.7663 67.7973 86.905 67.0667 86.905 66.096V65.488C86.905 64.5173 86.7663 63.7867 86.489 63.296C86.2223 62.8053 85.817 62.56 85.273 62.56C84.729 62.56 84.3183 62.8053 84.041 63.296C83.7743 63.7867 83.641 64.5173 83.641 65.488V66.096C83.641 67.0667 83.7743 67.7973 84.041 68.288C84.3183 68.7787 84.729 69.024 85.273 69.024ZM89.8819 70V61.584H90.8739L91.0499 62.688H91.1459C91.2525 62.368 91.4179 62.0747 91.6419 61.808C91.8659 61.5307 92.1752 61.392 92.5699 61.392C92.7512 61.392 92.9005 61.4133 93.0179 61.456C93.1352 61.4987 93.1939 61.52 93.1939 61.52V62.88H92.7619C92.4845 62.88 92.2232 62.944 91.9779 63.072C91.7432 63.1893 91.5512 63.392 91.4019 63.68C91.2632 63.968 91.1939 64.3627 91.1939 64.864V70H89.8819ZM94.3209 63.312V61.584H95.9209V63.312H94.3209ZM94.3209 70V68.272H95.9209V70H94.3209Z" fill="black" fill-opacity="0.5"/>
<path d="M17.12 92V81.024H23.456V82.304H18.528V85.856H22.88V87.136H18.528V92H17.12ZM25.1836 92V83.584H26.4956V92H25.1836ZM25.1516 81.952V80.432H26.5116V81.952H25.1516ZM28.6163 92V83.584H29.6083L29.7843 84.688H29.8803C29.9869 84.368 30.1523 84.0747 30.3763 83.808C30.6003 83.5307 30.9096 83.392 31.3043 83.392C31.4856 83.392 31.6349 83.4133 31.7523 83.456C31.8696 83.4987 31.9283 83.52 31.9283 83.52V84.88H31.4963C31.2189 84.88 30.9576 84.944 30.7123 85.072C30.4776 85.1893 30.2856 85.392 30.1363 85.68C29.9976 85.968 29.9283 86.3627 29.9283 86.864V92H28.6163ZM35.2633 92.192C34.6233 92.192 34.1006 92.0747 33.6953 91.84C33.3006 91.5947 33.0126 91.2853 32.8313 90.912C32.6499 90.5387 32.5592 90.144 32.5592 89.728C32.5592 89.6107 32.5592 89.5253 32.5592 89.472C32.5699 89.4187 32.5753 89.3867 32.5753 89.376H33.9513V89.536C33.9513 90.0587 34.0846 90.4427 34.3513 90.688C34.6179 90.9227 34.9433 91.04 35.3273 91.04C35.6686 91.04 35.9619 90.9333 36.2073 90.72C36.4633 90.5067 36.5913 90.1973 36.5913 89.792C36.5913 89.44 36.4953 89.168 36.3033 88.976C36.1219 88.7733 35.8873 88.6133 35.5993 88.496C35.3113 88.368 35.0019 88.2507 34.6713 88.144C34.3406 88.0267 34.0313 87.8827 33.7433 87.712C33.4553 87.5413 33.2153 87.3067 33.0233 87.008C32.8419 86.6987 32.7513 86.2933 32.7513 85.792C32.7513 85.2907 32.8579 84.864 33.0713 84.512C33.2846 84.1493 33.5886 83.872 33.9833 83.68C34.3779 83.488 34.8419 83.392 35.3753 83.392C35.8979 83.392 36.3353 83.4987 36.6873 83.712C37.0499 83.9147 37.3219 84.192 37.5033 84.544C37.6953 84.896 37.7913 85.28 37.7913 85.696C37.7913 85.7493 37.7859 85.808 37.7753 85.872C37.7753 85.936 37.7753 85.9787 37.7753 86H36.4153V85.856C36.4153 85.5253 36.3299 85.2267 36.1593 84.96C35.9993 84.6827 35.6953 84.544 35.2473 84.544C34.9379 84.544 34.6979 84.608 34.5273 84.736C34.3673 84.864 34.2553 85.0187 34.1913 85.2C34.1379 85.3707 34.1113 85.536 34.1113 85.696C34.1113 86.0053 34.2019 86.2453 34.3832 86.416C34.5753 86.5867 34.8153 86.7253 35.1033 86.832C35.3913 86.9387 35.7006 87.0507 36.0312 87.168C36.3619 87.2747 36.6713 87.4187 36.9593 87.6C37.2473 87.7813 37.4819 88.032 37.6633 88.352C37.8553 88.6613 37.9513 89.0773 37.9513 89.6C37.9513 90.1973 37.8339 90.688 37.5993 91.072C37.3646 91.456 37.0446 91.7387 36.6393 91.92C36.2446 92.1013 35.7859 92.192 35.2633 92.192ZM41.0418 92.16C40.6578 92.16 40.3538 92.064 40.1298 91.872C39.9164 91.68 39.7618 91.44 39.6658 91.152C39.5804 90.8533 39.5378 90.544 39.5378 90.224V84.752H38.8178V83.584H39.5378L39.8258 81.248H40.8498V83.584H41.9858V84.752H40.8498V90.256C40.8498 90.768 41.1004 91.024 41.6018 91.024H41.9858V91.936C41.8791 92 41.7351 92.0533 41.5538 92.096C41.3724 92.1387 41.2018 92.16 41.0418 92.16ZM46.995 92V81.024H53.331V82.304H48.403V85.856H52.755V87.136H48.403V92H46.995ZM54.6906 92V80.432H56.0026V92H54.6906ZM60.4449 92.192C59.4635 92.192 58.7169 91.84 58.2049 91.136C57.6929 90.4213 57.4369 89.3067 57.4369 87.792C57.4369 86.2773 57.6929 85.168 58.2049 84.464C58.7169 83.7493 59.4635 83.392 60.4449 83.392C61.4262 83.392 62.1729 83.7493 62.6849 84.464C63.1969 85.168 63.4529 86.2773 63.4529 87.792C63.4529 89.3067 63.1969 90.4213 62.6849 91.136C62.1729 91.84 61.4262 92.192 60.4449 92.192ZM60.4449 91.024C60.9889 91.024 61.3942 90.7787 61.6609 90.288C61.9382 89.7973 62.0769 89.0667 62.0769 88.096V87.488C62.0769 86.5173 61.9382 85.7867 61.6609 85.296C61.3942 84.8053 60.9889 84.56 60.4449 84.56C59.9009 84.56 59.4902 84.8053 59.2129 85.296C58.9462 85.7867 58.8129 86.5173 58.8129 87.488V88.096C58.8129 89.0667 58.9462 89.7973 59.2129 90.288C59.4902 90.7787 59.9009 91.024 60.4449 91.024ZM67.7418 92.192C66.7604 92.192 66.0138 91.84 65.5018 91.136C64.9898 90.4213 64.7338 89.3067 64.7338 87.792C64.7338 86.2773 64.9898 85.168 65.5018 84.464C66.0138 83.7493 66.7604 83.392 67.7418 83.392C68.7231 83.392 69.4698 83.7493 69.9818 84.464C70.4938 85.168 70.7498 86.2773 70.7498 87.792C70.7498 89.3067 70.4938 90.4213 69.9818 91.136C69.4698 91.84 68.7231 92.192 67.7418 92.192ZM67.7418 91.024C68.2858 91.024 68.6911 90.7787 68.9578 90.288C69.2351 89.7973 69.3738 89.0667 69.3738 88.096V87.488C69.3738 86.5173 69.2351 85.7867 68.9578 85.296C68.6911 84.8053 68.2858 84.56 67.7418 84.56C67.1978 84.56 66.7871 84.8053 66.5098 85.296C66.2431 85.7867 66.1098 86.5173 66.1098 87.488V88.096C66.1098 89.0667 66.2431 89.7973 66.5098 90.288C66.7871 90.7787 67.1978 91.024 67.7418 91.024ZM72.3506 92V83.584H73.3426L73.5186 84.688H73.6146C73.7213 84.368 73.8866 84.0747 74.1106 83.808C74.3346 83.5307 74.644 83.392 75.0386 83.392C75.22 83.392 75.3693 83.4133 75.4866 83.456C75.604 83.4987 75.6626 83.52 75.6626 83.52V84.88H75.2306C74.9533 84.88 74.692 84.944 74.4466 85.072C74.212 85.1893 74.02 85.392 73.8706 85.68C73.732 85.968 73.6626 86.3627 73.6626 86.864V92H72.3506ZM76.7896 85.312V83.584H78.3896V85.312H76.7896ZM76.7896 92V90.272H78.3896V92H76.7896Z" fill="black" fill-opacity="0.5"/>
<path d="M20.352 114.192C19.6907 114.192 19.0773 114.085 18.512 113.872C17.9467 113.659 17.4933 113.312 17.152 112.832C16.8213 112.352 16.656 111.707 16.656 110.896C16.656 110.843 16.656 110.784 16.656 110.72C16.6667 110.645 16.672 110.597 16.672 110.576H18.128C18.128 110.587 18.1227 110.635 18.112 110.72C18.112 110.795 18.112 110.859 18.112 110.912C18.112 111.584 18.32 112.085 18.736 112.416C19.152 112.736 19.6693 112.896 20.288 112.896C21.024 112.896 21.5893 112.741 21.984 112.432C22.3893 112.112 22.592 111.659 22.592 111.072C22.592 110.677 22.4853 110.357 22.272 110.112C22.0693 109.867 21.7973 109.664 21.456 109.504C21.1253 109.344 20.7573 109.2 20.352 109.072C19.9467 108.944 19.536 108.805 19.12 108.656C18.7147 108.507 18.3413 108.315 18 108.08C17.6693 107.845 17.3973 107.547 17.184 107.184C16.9813 106.811 16.88 106.341 16.88 105.776C16.88 105.104 17.0347 104.549 17.344 104.112C17.664 103.675 18.0853 103.355 18.608 103.152C19.1413 102.939 19.728 102.832 20.368 102.832C21.008 102.832 21.584 102.939 22.096 103.152C22.6187 103.355 23.0347 103.685 23.344 104.144C23.6533 104.592 23.808 105.184 23.808 105.92V106.112H22.352V105.872C22.352 105.307 22.1653 104.875 21.792 104.576C21.4187 104.277 20.9547 104.128 20.4 104.128C19.824 104.128 19.3387 104.251 18.944 104.496C18.56 104.741 18.368 105.131 18.368 105.664C18.368 106.037 18.4693 106.341 18.672 106.576C18.8853 106.811 19.1573 107.008 19.488 107.168C19.8293 107.317 20.2027 107.456 20.608 107.584C21.0133 107.712 21.4187 107.851 21.824 108C22.2293 108.149 22.5973 108.341 22.928 108.576C23.2693 108.811 23.5413 109.109 23.744 109.472C23.9573 109.824 24.064 110.277 24.064 110.832C24.064 111.653 23.8987 112.309 23.568 112.8C23.248 113.291 22.8107 113.648 22.256 113.872C21.7013 114.085 21.0667 114.192 20.352 114.192ZM28.606 114.192C27.5607 114.192 26.766 113.851 26.222 113.168C25.6887 112.475 25.422 111.349 25.422 109.792C25.422 108.277 25.6833 107.168 26.206 106.464C26.7393 105.749 27.534 105.392 28.59 105.392C29.5073 105.392 30.1953 105.701 30.654 106.32C31.1233 106.928 31.358 107.936 31.358 109.344V110.176H26.798C26.8087 111.157 26.9633 111.877 27.262 112.336C27.5607 112.795 28.0193 113.024 28.638 113.024C29.054 113.024 29.3953 112.859 29.662 112.528C29.9287 112.187 30.062 111.723 30.062 111.136H31.358C31.358 112.075 31.102 112.821 30.59 113.376C30.0887 113.92 29.4273 114.192 28.606 114.192ZM26.814 109.008H29.982C29.982 108.208 29.8647 107.6 29.63 107.184C29.3953 106.768 29.0487 106.56 28.59 106.56C28.0033 106.56 27.5713 106.768 27.294 107.184C27.0273 107.589 26.8673 108.197 26.814 109.008ZM35.5029 114.192C34.5109 114.192 33.7802 113.84 33.3109 113.136C32.8522 112.421 32.6229 111.307 32.6229 109.792C32.6229 108.277 32.8575 107.168 33.3269 106.464C33.7962 105.749 34.5215 105.392 35.5029 105.392C36.4202 105.392 37.0762 105.675 37.4709 106.24C37.8762 106.805 38.0789 107.627 38.0789 108.704H36.7189C36.7189 107.979 36.6335 107.44 36.4629 107.088C36.2922 106.736 35.9722 106.56 35.5029 106.56C34.9802 106.56 34.5962 106.805 34.3509 107.296C34.1162 107.787 33.9989 108.517 33.9989 109.488V110.096C33.9989 111.067 34.1162 111.797 34.3509 112.288C34.5962 112.779 34.9802 113.024 35.5029 113.024C35.9722 113.024 36.3029 112.843 36.4949 112.48C36.6869 112.107 36.7829 111.573 36.7829 110.88H38.0789C38.0789 111.467 37.9935 112.011 37.8229 112.512C37.6522 113.013 37.3749 113.419 36.9909 113.728C36.6175 114.037 36.1215 114.192 35.5029 114.192ZM42.2574 114.192C41.276 114.192 40.5294 113.84 40.0174 113.136C39.5054 112.421 39.2494 111.307 39.2494 109.792C39.2494 108.277 39.5054 107.168 40.0174 106.464C40.5294 105.749 41.276 105.392 42.2574 105.392C43.2387 105.392 43.9854 105.749 44.4974 106.464C45.0094 107.168 45.2654 108.277 45.2654 109.792C45.2654 111.307 45.0094 112.421 44.4974 113.136C43.9854 113.84 43.2387 114.192 42.2574 114.192ZM42.2574 113.024C42.8014 113.024 43.2067 112.779 43.4734 112.288C43.7507 111.797 43.8894 111.067 43.8894 110.096V109.488C43.8894 108.517 43.7507 107.787 43.4734 107.296C43.2067 106.805 42.8014 106.56 42.2574 106.56C41.7134 106.56 41.3027 106.805 41.0254 107.296C40.7587 107.787 40.6254 108.517 40.6254 109.488V110.096C40.6254 111.067 40.7587 111.797 41.0254 112.288C41.3027 112.779 41.7134 113.024 42.2574 113.024ZM46.8663 114V105.584H47.8583L48.0343 106.56H48.1303C48.3649 106.144 48.6583 105.845 49.0103 105.664C49.3623 105.483 49.7463 105.392 50.1623 105.392C50.7916 105.392 51.2929 105.584 51.6663 105.968C52.0503 106.341 52.2423 106.997 52.2423 107.936V114H50.9303V108.032C50.9303 107.445 50.8183 107.056 50.5943 106.864C50.3809 106.661 50.0983 106.56 49.7463 106.56C49.3303 106.56 48.9623 106.763 48.6423 107.168C48.3329 107.573 48.1783 108.139 48.1783 108.864V114H46.8663ZM56.4511 114.192C55.6511 114.192 55.0165 113.845 54.5471 113.152C54.0778 112.448 53.8431 111.323 53.8431 109.776C53.8431 108.752 53.9551 107.92 54.1791 107.28C54.4031 106.629 54.7071 106.155 55.0911 105.856C55.4751 105.547 55.8965 105.392 56.3551 105.392C56.7605 105.392 57.1231 105.483 57.4431 105.664C57.7738 105.835 58.0085 106.075 58.1471 106.384H58.2271V102.432H59.5391V114H58.5471L58.3711 113.024H58.2911C58.0885 113.408 57.8271 113.701 57.5071 113.904C57.1871 114.096 56.8351 114.192 56.4511 114.192ZM56.7231 113.024C57.2245 113.024 57.5978 112.779 57.8431 112.288C58.0991 111.797 58.2271 111.067 58.2271 110.096V109.552C58.2271 108.56 58.0991 107.813 57.8431 107.312C57.5978 106.811 57.2245 106.56 56.7231 106.56C56.2218 106.56 55.8431 106.789 55.5871 107.248C55.3418 107.696 55.2191 108.443 55.2191 109.488V110.096C55.2191 111.141 55.3418 111.893 55.5871 112.352C55.8431 112.8 56.2218 113.024 56.7231 113.024ZM65.2606 114V103.024H71.5966V104.304H66.6686V107.856H71.0206V109.136H66.6686V114H65.2606ZM72.9563 114V102.432H74.2682V114H72.9563ZM78.7105 114.192C77.7292 114.192 76.9825 113.84 76.4705 113.136C75.9585 112.421 75.7025 111.307 75.7025 109.792C75.7025 108.277 75.9585 107.168 76.4705 106.464C76.9825 105.749 77.7292 105.392 78.7105 105.392C79.6918 105.392 80.4385 105.749 80.9505 106.464C81.4625 107.168 81.7185 108.277 81.7185 109.792C81.7185 111.307 81.4625 112.421 80.9505 113.136C80.4385 113.84 79.6918 114.192 78.7105 114.192ZM78.7105 113.024C79.2545 113.024 79.6598 112.779 79.9265 112.288C80.2038 111.797 80.3425 111.067 80.3425 110.096V109.488C80.3425 108.517 80.2038 107.787 79.9265 107.296C79.6598 106.805 79.2545 106.56 78.7105 106.56C78.1665 106.56 77.7558 106.805 77.4785 107.296C77.2118 107.787 77.0785 108.517 77.0785 109.488V110.096C77.0785 111.067 77.2118 111.797 77.4785 112.288C77.7558 112.779 78.1665 113.024 78.7105 113.024ZM86.0074 114.192C85.026 114.192 84.2794 113.84 83.7674 113.136C83.2554 112.421 82.9994 111.307 82.9994 109.792C82.9994 108.277 83.2554 107.168 83.7674 106.464C84.2794 105.749 85.026 105.392 86.0074 105.392C86.9887 105.392 87.7354 105.749 88.2474 106.464C88.7594 107.168 89.0154 108.277 89.0154 109.792C89.0154 111.307 88.7594 112.421 88.2474 113.136C87.7354 113.84 86.9887 114.192 86.0074 114.192ZM86.0074 113.024C86.5514 113.024 86.9567 112.779 87.2234 112.288C87.5007 111.797 87.6394 111.067 87.6394 110.096V109.488C87.6394 108.517 87.5007 107.787 87.2234 107.296C86.9567 106.805 86.5514 106.56 86.0074 106.56C85.4634 106.56 85.0527 106.805 84.7754 107.296C84.5087 107.787 84.3754 108.517 84.3754 109.488V110.096C84.3754 111.067 84.5087 111.797 84.7754 112.288C85.0527 112.779 85.4634 113.024 86.0074 113.024ZM90.6163 114V105.584H91.6083L91.7843 106.688H91.8803C91.9869 106.368 92.1523 106.075 92.3763 105.808C92.6003 105.531 92.9096 105.392 93.3043 105.392C93.4856 105.392 93.6349 105.413 93.7523 105.456C93.8696 105.499 93.9283 105.52 93.9283 105.52V106.88H93.4963C93.2189 106.88 92.9576 106.944 92.7123 107.072C92.4776 107.189 92.2856 107.392 92.1363 107.68C91.9976 107.968 91.9283 108.363 91.9283 108.864V114H90.6163ZM95.0553 107.312V105.584H96.6553V107.312H95.0553ZM95.0553 114V112.272H96.6553V114H95.0553Z" fill="black" fill-opacity="0.5"/>
<path d="M19.2 136V126.48H16.288V125.024H23.712V126.48H20.816V136H19.2ZM26.4788 136.192C25.4548 136.192 24.6761 135.84 24.1428 135.136C23.6201 134.421 23.3588 133.307 23.3588 131.792C23.3588 130.277 23.6201 129.168 24.1428 128.464C24.6761 127.749 25.4548 127.392 26.4788 127.392C27.5028 127.392 28.2761 127.749 28.7988 128.464C29.3321 129.168 29.5988 130.277 29.5988 131.792C29.5988 133.307 29.3321 134.421 28.7988 135.136C28.2761 135.84 27.5028 136.192 26.4788 136.192ZM26.4788 134.88C27.0121 134.88 27.4014 134.645 27.6468 134.176C27.9028 133.707 28.0308 133.013 28.0308 132.096V131.488C28.0308 130.571 27.9028 129.877 27.6468 129.408C27.4014 128.939 27.0121 128.704 26.4788 128.704C25.9561 128.704 25.5668 128.939 25.3108 129.408C25.0654 129.877 24.9428 130.571 24.9428 131.488V132.096C24.9428 133.013 25.0654 133.707 25.3108 134.176C25.5668 134.645 25.9561 134.88 26.4788 134.88ZM32.8424 136.176C32.4264 136.176 32.0957 136.075 31.8504 135.872C31.6157 135.669 31.445 135.413 31.3384 135.104C31.2424 134.795 31.1944 134.469 31.1944 134.128V128.896H30.4264V127.584H31.1944L31.4824 125.232H32.6984V127.584H33.8664V128.896H32.6984V134.144C32.6984 134.635 32.9384 134.88 33.4184 134.88H33.8664V135.952C33.749 136.016 33.589 136.069 33.3864 136.112C33.1944 136.155 33.013 136.176 32.8424 136.176ZM36.7334 136.192C36.5307 136.192 36.3014 136.16 36.0454 136.096C35.8 136.043 35.56 135.931 35.3254 135.76C35.1014 135.589 34.9147 135.349 34.7654 135.04C34.6267 134.731 34.5574 134.325 34.5574 133.824C34.5574 133.056 34.7387 132.469 35.1014 132.064C35.464 131.648 35.9654 131.36 36.6054 131.2C37.2454 131.04 37.9707 130.96 38.7814 130.96V129.952C38.7814 129.579 38.7014 129.275 38.5414 129.04C38.392 128.805 38.0774 128.688 37.5974 128.688C37.1387 128.688 36.824 128.816 36.6534 129.072C36.4827 129.328 36.3974 129.595 36.3974 129.872V130.08H34.9094C34.8987 130.027 34.8934 129.973 34.8934 129.92C34.8934 129.867 34.8934 129.803 34.8934 129.728C34.8934 128.981 35.1494 128.405 35.6614 128C36.1734 127.595 36.8347 127.392 37.6454 127.392C38.5414 127.392 39.2027 127.6 39.6294 128.016C40.0667 128.432 40.2854 129.024 40.2854 129.792V134.32C40.2854 134.523 40.3334 134.667 40.4294 134.752C40.5254 134.837 40.6267 134.88 40.7334 134.88H41.2134V135.936C41.128 135.979 41.0054 136.021 40.8454 136.064C40.696 136.117 40.504 136.144 40.2694 136.144C39.9067 136.144 39.608 136.048 39.3734 135.856C39.1387 135.664 38.9734 135.408 38.8774 135.088H38.7974C38.584 135.429 38.3067 135.701 37.9654 135.904C37.624 136.096 37.2134 136.192 36.7334 136.192ZM37.1974 134.88C37.4854 134.88 37.7467 134.805 37.9814 134.656C38.216 134.496 38.408 134.267 38.5574 133.968C38.7067 133.659 38.7814 133.296 38.7814 132.88V132.208C38.2694 132.208 37.8107 132.251 37.4054 132.336C37.0107 132.411 36.696 132.555 36.4614 132.768C36.2267 132.981 36.1094 133.296 36.1094 133.712C36.1094 134.128 36.2 134.427 36.3814 134.608C36.5734 134.789 36.8454 134.88 37.1974 134.88ZM42.2223 136V124.432H43.7263V136H42.2223ZM47.5465 136L51.0505 125.024H53.0505L56.5545 136H54.8425L54.1225 133.648H49.8665L49.1465 136H47.5465ZM50.2985 132.192H53.6745L52.2985 127.696C52.2665 127.547 52.2238 127.371 52.1705 127.168C52.1278 126.965 52.0905 126.789 52.0585 126.64C52.0372 126.48 52.0265 126.4 52.0265 126.4H51.9625C51.9625 126.4 51.9465 126.48 51.9145 126.64C51.8932 126.8 51.8612 126.981 51.8185 127.184C51.7758 127.387 51.7332 127.557 51.6905 127.696L50.2985 132.192ZM57.4593 136V127.584H58.6432L58.8353 128.736H58.9313C59.0486 128.405 59.2139 128.101 59.4273 127.824C59.6513 127.536 59.9659 127.392 60.3713 127.392C60.5739 127.392 60.7339 127.413 60.8513 127.456C60.9793 127.499 61.0433 127.52 61.0433 127.52V129.04H60.5312C60.2539 129.04 59.9926 129.099 59.7473 129.216C59.5126 129.333 59.3206 129.536 59.1713 129.824C59.0326 130.112 58.9633 130.507 58.9633 131.008V136H57.4593ZM64.9806 136.192C63.9246 136.192 63.1246 135.845 62.5806 135.152C62.0366 134.459 61.7646 133.339 61.7646 131.792C61.7646 130.277 62.0313 129.168 62.5646 128.464C63.098 127.749 63.8926 127.392 64.9486 127.392C65.898 127.392 66.6073 127.717 67.0766 128.368C67.5566 129.008 67.7966 130.048 67.7966 131.488V132.208H63.3326C63.3433 133.115 63.482 133.792 63.7486 134.24C64.0153 134.677 64.4313 134.896 64.9966 134.896C65.3913 134.896 65.706 134.736 65.9406 134.416C66.186 134.096 66.3086 133.659 66.3086 133.104H67.7966C67.7966 134.085 67.5353 134.848 67.0126 135.392C66.49 135.925 65.8126 136.192 64.9806 136.192ZM63.3486 130.96H66.2286C66.2286 130.224 66.122 129.664 65.9086 129.28C65.6953 128.885 65.3753 128.688 64.9486 128.688C64.4153 128.688 64.026 128.88 63.7806 129.264C63.5353 129.648 63.3913 130.213 63.3486 130.96ZM71.0615 136.192C70.8588 136.192 70.6295 136.16 70.3735 136.096C70.1282 136.043 69.8882 135.931 69.6535 135.76C69.4295 135.589 69.2428 135.349 69.0935 135.04C68.9548 134.731 68.8855 134.325 68.8855 133.824C68.8855 133.056 69.0668 132.469 69.4295 132.064C69.7922 131.648 70.2935 131.36 70.9335 131.2C71.5735 131.04 72.2988 130.96 73.1095 130.96V129.952C73.1095 129.579 73.0295 129.275 72.8695 129.04C72.7202 128.805 72.4055 128.688 71.9255 128.688C71.4668 128.688 71.1522 128.816 70.9815 129.072C70.8108 129.328 70.7255 129.595 70.7255 129.872V130.08H69.2375C69.2268 130.027 69.2215 129.973 69.2215 129.92C69.2215 129.867 69.2215 129.803 69.2215 129.728C69.2215 128.981 69.4775 128.405 69.9895 128C70.5015 127.595 71.1628 127.392 71.9735 127.392C72.8695 127.392 73.5308 127.6 73.9575 128.016C74.3948 128.432 74.6135 129.024 74.6135 129.792V134.32C74.6135 134.523 74.6615 134.667 74.7575 134.752C74.8535 134.837 74.9548 134.88 75.0615 134.88H75.5415V135.936C75.4562 135.979 75.3335 136.021 75.1735 136.064C75.0242 136.117 74.8322 136.144 74.5975 136.144C74.2348 136.144 73.9362 136.048 73.7015 135.856C73.4668 135.664 73.3015 135.408 73.2055 135.088H73.1255C72.9122 135.429 72.6348 135.701 72.2935 135.904C71.9522 136.096 71.5415 136.192 71.0615 136.192ZM71.5255 134.88C71.8135 134.88 72.0748 134.805 72.3095 134.656C72.5442 134.496 72.7362 134.267 72.8855 133.968C73.0348 133.659 73.1095 133.296 73.1095 132.88V132.208C72.5975 132.208 72.1388 132.251 71.7335 132.336C71.3388 132.411 71.0242 132.555 70.7895 132.768C70.5548 132.981 70.4375 133.296 70.4375 133.712C70.4375 134.128 70.5282 134.427 70.7095 134.608C70.9015 134.789 71.1735 134.88 71.5255 134.88ZM76.7104 129.456V127.584H78.5024V129.456H76.7104ZM76.7104 136V134.128H78.5024V136H76.7104Z" fill="black"/>
<path d="M176.972 70V68.832H179.58V61.024H176.956V60.192C177.255 60.16 177.607 60.0907 178.012 59.984C178.417 59.8773 178.828 59.744 179.244 59.584C179.66 59.4133 180.039 59.2267 180.38 59.024H180.892V68.832H183.292V70H176.972ZM187.117 70.192C186.477 70.192 185.954 70.0373 185.549 69.728C185.154 69.408 184.861 68.9813 184.669 68.448C184.487 67.904 184.397 67.296 184.397 66.624H185.725C185.725 67.3813 185.842 67.9733 186.077 68.4C186.322 68.816 186.69 69.024 187.181 69.024C187.607 69.024 187.933 68.8587 188.157 68.528C188.391 68.1867 188.551 67.7067 188.637 67.088C188.722 66.4693 188.77 65.7387 188.781 64.896C188.546 65.216 188.263 65.4667 187.933 65.648C187.613 65.8293 187.25 65.92 186.845 65.92C186.226 65.92 185.714 65.7653 185.309 65.456C184.903 65.136 184.599 64.7093 184.397 64.176C184.205 63.632 184.109 63.0347 184.109 62.384C184.109 61.648 184.231 61.0187 184.477 60.496C184.733 59.9627 185.074 59.552 185.501 59.264C185.938 58.976 186.429 58.832 186.973 58.832C187.634 58.832 188.199 58.9973 188.669 59.328C189.138 59.6587 189.495 60.2133 189.741 60.992C189.997 61.7707 190.125 62.8373 190.125 64.192C190.125 65.7173 190.002 66.9173 189.757 67.792C189.522 68.6667 189.181 69.2853 188.733 69.648C188.285 70.0107 187.746 70.192 187.117 70.192ZM187.053 64.768C187.607 64.768 188.013 64.5333 188.269 64.064C188.535 63.5947 188.669 63.0347 188.669 62.384C188.669 61.7227 188.535 61.1627 188.269 60.704C188.013 60.2347 187.607 60 187.053 60C186.498 60 186.093 60.2347 185.837 60.704C185.581 61.1627 185.453 61.7227 185.453 62.384C185.453 63.0347 185.581 63.5947 185.837 64.064C186.093 64.5333 186.498 64.768 187.053 64.768ZM194.414 70.192C193.71 70.192 193.134 70.048 192.686 69.76C192.248 69.472 191.923 69.088 191.71 68.608C191.507 68.1173 191.406 67.5787 191.406 66.992C191.406 66.3947 191.518 65.872 191.742 65.424C191.966 64.9653 192.323 64.6133 192.814 64.368C192.419 64.1013 192.12 63.7547 191.918 63.328C191.726 62.8907 191.63 62.4107 191.63 61.888C191.63 61.3227 191.731 60.8107 191.934 60.352C192.147 59.8933 192.462 59.5253 192.878 59.248C193.294 58.9707 193.806 58.832 194.414 58.832C195.032 58.832 195.544 58.9707 195.95 59.248C196.366 59.5253 196.675 59.8933 196.878 60.352C197.091 60.8107 197.198 61.3227 197.198 61.888C197.198 62.4107 197.096 62.8907 196.894 63.328C196.702 63.7547 196.403 64.1013 195.998 64.368C196.499 64.6133 196.862 64.9653 197.086 65.424C197.31 65.872 197.422 66.3947 197.422 66.992C197.422 67.5787 197.315 68.1173 197.102 68.608C196.899 69.088 196.579 69.472 196.142 69.76C195.704 70.048 195.128 70.192 194.414 70.192ZM194.414 69.024C194.958 69.024 195.368 68.8427 195.646 68.48C195.934 68.1067 196.078 67.6107 196.078 66.992C196.078 66.3627 195.934 65.872 195.646 65.52C195.368 65.1573 194.958 64.976 194.414 64.976C193.87 64.976 193.454 65.1573 193.166 65.52C192.888 65.872 192.75 66.3627 192.75 66.992C192.75 67.6107 192.888 68.1067 193.166 68.48C193.454 68.8427 193.87 69.024 194.414 69.024ZM194.414 63.808C194.862 63.808 195.219 63.6373 195.486 63.296C195.763 62.9547 195.902 62.4907 195.902 61.904C195.902 61.3067 195.763 60.8427 195.486 60.512C195.219 60.1707 194.862 60 194.414 60C193.966 60 193.608 60.1707 193.342 60.512C193.075 60.8427 192.942 61.3067 192.942 61.904C192.942 62.4907 193.075 62.9547 193.342 63.296C193.608 63.6373 193.966 63.808 194.414 63.808ZM202.663 70V61.584H203.655L203.831 62.56H203.927C204.151 62.144 204.428 61.8453 204.759 61.664C205.09 61.4827 205.452 61.392 205.847 61.392C206.263 61.392 206.626 61.488 206.935 61.68C207.255 61.8613 207.49 62.1707 207.639 62.608C207.863 62.2027 208.162 61.8987 208.535 61.696C208.908 61.4933 209.292 61.392 209.687 61.392C210.082 61.392 210.428 61.4773 210.727 61.648C211.026 61.808 211.255 62.0747 211.415 62.448C211.586 62.8107 211.671 63.3067 211.671 63.936V70H210.359V64.032C210.359 63.4453 210.252 63.056 210.039 62.864C209.836 62.6613 209.58 62.56 209.271 62.56C208.876 62.56 208.535 62.7627 208.247 63.168C207.97 63.5733 207.831 64.1387 207.831 64.864V70H206.519V64.032C206.519 63.4453 206.412 63.056 206.199 62.864C205.996 62.6613 205.74 62.56 205.431 62.56C205.036 62.56 204.695 62.7627 204.407 63.168C204.119 63.5733 203.975 64.1387 203.975 64.864V70H202.663ZM213.185 63.04V62.784C213.185 62.3253 213.324 61.9253 213.601 61.584C213.878 61.232 214.172 60.9013 214.481 60.592C214.758 60.3147 215.004 60.048 215.217 59.792C215.43 59.536 215.537 59.2587 215.537 58.96C215.537 58.7787 215.489 58.5973 215.393 58.416C215.308 58.2347 215.126 58.144 214.849 58.144C214.593 58.144 214.412 58.2453 214.305 58.448C214.209 58.6507 214.166 58.864 214.177 59.088L214.193 59.552H213.233C213.233 59.552 213.222 59.504 213.201 59.408C213.18 59.312 213.169 59.2107 213.169 59.104C213.169 58.4533 213.334 57.9787 213.665 57.68C214.006 57.3707 214.412 57.216 214.881 57.216C215.318 57.216 215.702 57.3493 216.033 57.616C216.364 57.8827 216.529 58.3307 216.529 58.96C216.529 59.4187 216.39 59.8187 216.113 60.16C215.836 60.5013 215.553 60.816 215.265 61.104C215.084 61.2853 214.913 61.4613 214.753 61.632C214.604 61.792 214.502 61.9627 214.449 62.144H216.577V63.04H213.185Z" fill="black" fill-opacity="0.5"/>
<path d="M188.029 92V89.296H183.789V88.112C184.173 87.408 184.541 86.656 184.893 85.856C185.245 85.0453 185.57 84.2133 185.869 83.36C186.167 82.5067 186.423 81.664 186.637 80.832H187.965C187.815 81.568 187.607 82.32 187.341 83.088C187.074 83.8453 186.791 84.5653 186.493 85.248C186.194 85.9307 185.911 86.528 185.645 87.04C185.378 87.5413 185.17 87.904 185.021 88.128H188.029V84.672C188.135 84.4053 188.226 84.16 188.301 83.936C188.375 83.712 188.445 83.4827 188.509 83.248C188.573 83.0027 188.637 82.7413 188.701 82.464H189.341V88.128H190.461V89.296H189.341V92H188.029ZM194.414 92.192C193.411 92.192 192.643 91.8933 192.11 91.296C191.587 90.6987 191.326 89.8987 191.326 88.896V88.768H192.67V88.944C192.67 89.6267 192.808 90.144 193.086 90.496C193.374 90.848 193.784 91.024 194.318 91.024C194.84 91.024 195.262 90.8587 195.582 90.528C195.912 90.1973 196.078 89.6747 196.078 88.96C196.078 88.4373 195.992 88.0373 195.822 87.76C195.651 87.4827 195.427 87.2907 195.15 87.184C194.872 87.0667 194.579 87.008 194.27 87.008H193.358V85.84H194.302C194.728 85.84 195.096 85.6853 195.406 85.376C195.726 85.056 195.886 84.5707 195.886 83.92C195.886 83.2373 195.736 82.7467 195.438 82.448C195.139 82.1493 194.787 82 194.382 82C193.944 82 193.582 82.16 193.294 82.48C193.006 82.8 192.862 83.3013 192.862 83.984V84.128H191.518V83.84C191.518 83.232 191.64 82.704 191.886 82.256C192.131 81.7973 192.467 81.4453 192.894 81.2C193.32 80.9547 193.811 80.832 194.366 80.832C195.219 80.832 195.907 81.088 196.43 81.6C196.963 82.112 197.23 82.8587 197.23 83.84C197.23 84.4907 197.091 85.008 196.814 85.392C196.547 85.7653 196.211 86.0693 195.806 86.304V86.368C196.275 86.5387 196.659 86.848 196.958 87.296C197.267 87.744 197.422 88.3307 197.422 89.056C197.422 89.7067 197.294 90.2667 197.038 90.736C196.782 91.2053 196.424 91.568 195.966 91.824C195.518 92.0693 195 92.192 194.414 92.192ZM202.663 92V83.584H203.655L203.831 84.56H203.927C204.151 84.144 204.428 83.8453 204.759 83.664C205.09 83.4827 205.452 83.392 205.847 83.392C206.263 83.392 206.626 83.488 206.935 83.68C207.255 83.8613 207.49 84.1707 207.639 84.608C207.863 84.2027 208.162 83.8987 208.535 83.696C208.908 83.4933 209.292 83.392 209.687 83.392C210.082 83.392 210.428 83.4773 210.727 83.648C211.026 83.808 211.255 84.0747 211.415 84.448C211.586 84.8107 211.671 85.3067 211.671 85.936V92H210.359V86.032C210.359 85.4453 210.252 85.056 210.039 84.864C209.836 84.6613 209.58 84.56 209.271 84.56C208.876 84.56 208.535 84.7627 208.247 85.168C207.97 85.5733 207.831 86.1387 207.831 86.864V92H206.519V86.032C206.519 85.4453 206.412 85.056 206.199 84.864C205.996 84.6613 205.74 84.56 205.431 84.56C205.036 84.56 204.695 84.7627 204.407 85.168C204.119 85.5733 203.975 86.1387 203.975 86.864V92H202.663ZM213.185 85.04V84.784C213.185 84.3253 213.324 83.9253 213.601 83.584C213.878 83.232 214.172 82.9013 214.481 82.592C214.758 82.3147 215.004 82.048 215.217 81.792C215.43 81.536 215.537 81.2587 215.537 80.96C215.537 80.7787 215.489 80.5973 215.393 80.416C215.308 80.2347 215.126 80.144 214.849 80.144C214.593 80.144 214.412 80.2453 214.305 80.448C214.209 80.6507 214.166 80.864 214.177 81.088L214.193 81.552H213.233C213.233 81.552 213.222 81.504 213.201 81.408C213.18 81.312 213.169 81.2107 213.169 81.104C213.169 80.4533 213.334 79.9787 213.665 79.68C214.006 79.3707 214.412 79.216 214.881 79.216C215.318 79.216 215.702 79.3493 216.033 79.616C216.364 79.8827 216.529 80.3307 216.529 80.96C216.529 81.4187 216.39 81.8187 216.113 82.16C215.836 82.5013 215.553 82.816 215.265 83.104C215.084 83.2853 214.913 83.4613 214.753 83.632C214.604 83.792 214.502 83.9627 214.449 84.144H216.577V85.04H213.185Z" fill="black" fill-opacity="0.5"/>
<path d="M188.029 114V111.296H183.789V110.112C184.173 109.408 184.541 108.656 184.893 107.856C185.245 107.045 185.57 106.213 185.869 105.36C186.167 104.507 186.423 103.664 186.637 102.832H187.965C187.815 103.568 187.607 104.32 187.341 105.088C187.074 105.845 186.791 106.565 186.493 107.248C186.194 107.931 185.911 108.528 185.645 109.04C185.378 109.541 185.17 109.904 185.021 110.128H188.029V106.672C188.135 106.405 188.226 106.16 188.301 105.936C188.375 105.712 188.445 105.483 188.509 105.248C188.573 105.003 188.637 104.741 188.701 104.464H189.341V110.128H190.461V111.296H189.341V114H188.029ZM194.414 114.192C193.411 114.192 192.643 113.893 192.11 113.296C191.587 112.699 191.326 111.899 191.326 110.896V110.768H192.67V110.944C192.67 111.627 192.808 112.144 193.086 112.496C193.374 112.848 193.784 113.024 194.318 113.024C194.84 113.024 195.262 112.859 195.582 112.528C195.912 112.197 196.078 111.675 196.078 110.96C196.078 110.437 195.992 110.037 195.822 109.76C195.651 109.483 195.427 109.291 195.15 109.184C194.872 109.067 194.579 109.008 194.27 109.008H193.358V107.84H194.302C194.728 107.84 195.096 107.685 195.406 107.376C195.726 107.056 195.886 106.571 195.886 105.92C195.886 105.237 195.736 104.747 195.438 104.448C195.139 104.149 194.787 104 194.382 104C193.944 104 193.582 104.16 193.294 104.48C193.006 104.8 192.862 105.301 192.862 105.984V106.128H191.518V105.84C191.518 105.232 191.64 104.704 191.886 104.256C192.131 103.797 192.467 103.445 192.894 103.2C193.32 102.955 193.811 102.832 194.366 102.832C195.219 102.832 195.907 103.088 196.43 103.6C196.963 104.112 197.23 104.859 197.23 105.84C197.23 106.491 197.091 107.008 196.814 107.392C196.547 107.765 196.211 108.069 195.806 108.304V108.368C196.275 108.539 196.659 108.848 196.958 109.296C197.267 109.744 197.422 110.331 197.422 111.056C197.422 111.707 197.294 112.267 197.038 112.736C196.782 113.205 196.424 113.568 195.966 113.824C195.518 114.069 195 114.192 194.414 114.192ZM202.663 114V105.584H203.655L203.831 106.56H203.927C204.151 106.144 204.428 105.845 204.759 105.664C205.09 105.483 205.452 105.392 205.847 105.392C206.263 105.392 206.626 105.488 206.935 105.68C207.255 105.861 207.49 106.171 207.639 106.608C207.863 106.203 208.162 105.899 208.535 105.696C208.908 105.493 209.292 105.392 209.687 105.392C210.082 105.392 210.428 105.477 210.727 105.648C211.026 105.808 211.255 106.075 211.415 106.448C211.586 106.811 211.671 107.307 211.671 107.936V114H210.359V108.032C210.359 107.445 210.252 107.056 210.039 106.864C209.836 106.661 209.58 106.56 209.271 106.56C208.876 106.56 208.535 106.763 208.247 107.168C207.97 107.573 207.831 108.139 207.831 108.864V114H206.519V108.032C206.519 107.445 206.412 107.056 206.199 106.864C205.996 106.661 205.74 106.56 205.431 106.56C205.036 106.56 204.695 106.763 204.407 107.168C204.119 107.573 203.975 108.139 203.975 108.864V114H202.663ZM213.185 107.04V106.784C213.185 106.325 213.324 105.925 213.601 105.584C213.878 105.232 214.172 104.901 214.481 104.592C214.758 104.315 215.004 104.048 215.217 103.792C215.43 103.536 215.537 103.259 215.537 102.96C215.537 102.779 215.489 102.597 215.393 102.416C215.308 102.235 215.126 102.144 214.849 102.144C214.593 102.144 214.412 102.245 214.305 102.448C214.209 102.651 214.166 102.864 214.177 103.088L214.193 103.552H213.233C213.233 103.552 213.222 103.504 213.201 103.408C213.18 103.312 213.169 103.211 213.169 103.104C213.169 102.453 213.334 101.979 213.665 101.68C214.006 101.371 214.412 101.216 214.881 101.216C215.318 101.216 215.702 101.349 216.033 101.616C216.364 101.883 216.529 102.331 216.529 102.96C216.529 103.419 216.39 103.819 216.113 104.16C215.836 104.501 215.553 104.816 215.265 105.104C215.084 105.285 214.913 105.461 214.753 105.632C214.604 105.792 214.502 105.963 214.449 106.144H216.577V107.04H213.185Z" fill="black" fill-opacity="0.5"/>
<path d="M176.514 136V135.744C176.514 135.253 176.594 134.795 176.754 134.368C176.925 133.931 177.143 133.52 177.41 133.136C177.741 132.677 178.109 132.24 178.514 131.824C178.919 131.397 179.303 130.965 179.666 130.528C180.039 130.091 180.343 129.637 180.578 129.168C180.823 128.699 180.946 128.197 180.946 127.664C180.946 127.44 180.909 127.216 180.834 126.992C180.759 126.757 180.626 126.565 180.434 126.416C180.242 126.267 179.97 126.192 179.618 126.192C179.106 126.192 178.743 126.384 178.53 126.768C178.317 127.152 178.21 127.611 178.21 128.144V128.8H176.658C176.658 128.8 176.647 128.741 176.626 128.624C176.615 128.507 176.61 128.352 176.61 128.16C176.61 127.371 176.749 126.736 177.026 126.256C177.303 125.765 177.677 125.408 178.146 125.184C178.615 124.949 179.117 124.832 179.65 124.832C180.183 124.832 180.669 124.928 181.106 125.12C181.543 125.312 181.89 125.621 182.146 126.048C182.402 126.464 182.53 127.008 182.53 127.68C182.53 128.224 182.434 128.736 182.242 129.216C182.061 129.685 181.821 130.133 181.522 130.56C181.223 130.987 180.898 131.397 180.546 131.792C180.194 132.176 179.853 132.549 179.522 132.912C179.202 133.275 178.925 133.627 178.69 133.968C178.615 134.064 178.551 134.16 178.498 134.256C178.455 134.341 178.418 134.427 178.386 134.512H182.578V136H176.514ZM186.867 136.192C186.152 136.192 185.565 136.048 185.107 135.76C184.659 135.472 184.328 135.088 184.115 134.608C183.912 134.117 183.811 133.579 183.811 132.992C183.811 132.395 183.923 131.872 184.147 131.424C184.371 130.965 184.728 130.613 185.219 130.368C184.824 130.101 184.525 129.755 184.323 129.328C184.131 128.891 184.035 128.411 184.035 127.888C184.035 127.323 184.136 126.811 184.339 126.352C184.552 125.893 184.872 125.525 185.299 125.248C185.725 124.971 186.248 124.832 186.867 124.832C187.496 124.832 188.019 124.971 188.435 125.248C188.861 125.525 189.176 125.893 189.379 126.352C189.592 126.811 189.699 127.323 189.699 127.888C189.699 128.411 189.597 128.891 189.395 129.328C189.203 129.755 188.904 130.101 188.499 130.368C189 130.613 189.363 130.965 189.587 131.424C189.811 131.872 189.923 132.395 189.923 132.992C189.923 133.579 189.816 134.117 189.603 134.608C189.389 135.088 189.059 135.472 188.611 135.76C188.173 136.048 187.592 136.192 186.867 136.192ZM186.867 134.88C187.357 134.88 187.731 134.709 187.987 134.368C188.253 134.027 188.387 133.557 188.387 132.96C188.387 132.352 188.253 131.883 187.987 131.552C187.731 131.211 187.357 131.04 186.867 131.04C186.376 131.04 185.997 131.211 185.731 131.552C185.475 131.883 185.347 132.352 185.347 132.96C185.347 133.557 185.475 134.027 185.731 134.368C185.997 134.709 186.376 134.88 186.867 134.88ZM186.867 129.744C187.272 129.744 187.597 129.584 187.843 129.264C188.088 128.944 188.211 128.501 188.211 127.936C188.211 127.36 188.088 126.917 187.843 126.608C187.597 126.299 187.272 126.144 186.867 126.144C186.461 126.144 186.136 126.299 185.891 126.608C185.656 126.917 185.539 127.36 185.539 127.936C185.539 128.501 185.656 128.944 185.891 129.264C186.136 129.584 186.461 129.744 186.867 129.744ZM194.932 136V133.36H190.772V132.064C191.156 131.371 191.524 130.624 191.876 129.824C192.228 129.024 192.548 128.197 192.836 127.344C193.134 126.491 193.39 125.653 193.604 124.832H195.108C194.958 125.557 194.75 126.299 194.484 127.056C194.217 127.813 193.929 128.533 193.62 129.216C193.321 129.888 193.038 130.475 192.772 130.976C192.505 131.477 192.297 131.84 192.148 132.064H194.932V128.912C195.038 128.645 195.14 128.379 195.236 128.112C195.332 127.845 195.417 127.573 195.492 127.296C195.577 127.019 195.652 126.741 195.716 126.464H196.436V132.064H197.556V133.36H196.436V136H194.932ZM202.381 136V127.584H203.565L203.757 128.576H203.853C204.066 128.192 204.338 127.899 204.669 127.696C205 127.493 205.373 127.392 205.789 127.392C206.205 127.392 206.568 127.488 206.877 127.68C207.197 127.861 207.437 128.171 207.597 128.608C207.81 128.235 208.104 127.941 208.477 127.728C208.85 127.504 209.25 127.392 209.677 127.392C210.072 127.392 210.418 127.477 210.717 127.648C211.026 127.808 211.266 128.08 211.437 128.464C211.608 128.837 211.693 129.344 211.693 129.984V136H210.189V130.224C210.189 129.648 210.093 129.259 209.901 129.056C209.709 128.843 209.458 128.736 209.149 128.736C208.776 128.736 208.456 128.923 208.189 129.296C207.922 129.659 207.789 130.165 207.789 130.816V136H206.301V130.224C206.301 129.648 206.205 129.259 206.013 129.056C205.821 128.843 205.565 128.736 205.245 128.736C204.872 128.736 204.552 128.928 204.285 129.312C204.018 129.685 203.885 130.197 203.885 130.848V136H202.381ZM213.137 129.04V128.8C213.137 128.341 213.276 127.936 213.553 127.584C213.83 127.221 214.124 126.88 214.433 126.56C214.71 126.283 214.95 126.016 215.153 125.76C215.366 125.504 215.473 125.232 215.473 124.944C215.473 124.752 215.43 124.576 215.345 124.416C215.26 124.256 215.089 124.176 214.833 124.176C214.598 124.176 214.433 124.272 214.337 124.464C214.241 124.645 214.193 124.843 214.193 125.056L214.209 125.504H213.185C213.185 125.504 213.174 125.461 213.153 125.376C213.132 125.28 213.121 125.179 213.121 125.072C213.121 124.464 213.286 124.005 213.617 123.696C213.948 123.376 214.358 123.216 214.849 123.216C215.318 123.216 215.713 123.355 216.033 123.632C216.364 123.909 216.529 124.336 216.529 124.912C216.529 125.381 216.39 125.792 216.113 126.144C215.836 126.496 215.553 126.816 215.265 127.104C215.094 127.275 214.934 127.44 214.785 127.6C214.646 127.76 214.55 127.925 214.497 128.096H216.577V129.04H213.137Z" fill="black"/>
<rect x="16.5" y="149.5" width="200" height="39" rx="3.5" stroke="#2E4683"/>
<g clip-path="url(#clip0_280_3106)">
<path d="M76.3332 166.5H72.9998V161.5H67.9998V166.5H64.6665L70.4998 172.333L76.3332 166.5ZM64.6665 174V175.667H76.3332V174H64.6665Z" fill="#2E4683"/>
</g>
<path d="M89.62 175V164.024H95.956V165.304H91.028V168.856H95.38V170.136H91.028V175H89.62ZM97.6356 175V164.024H99.0436V173.72H103.524V175H97.6356ZM108.917 175.192C107.573 175.192 106.517 174.723 105.749 173.784C104.981 172.835 104.597 171.411 104.597 169.512C104.597 167.603 104.981 166.179 105.749 165.24C106.517 164.301 107.573 163.832 108.917 163.832C110.261 163.832 111.317 164.301 112.085 165.24C112.853 166.179 113.237 167.603 113.237 169.512C113.237 171.411 112.853 172.835 112.085 173.784C111.317 174.723 110.261 175.192 108.917 175.192ZM108.917 173.896C109.802 173.896 110.495 173.565 110.997 172.904C111.509 172.243 111.765 171.245 111.765 169.912V169.112C111.765 167.779 111.509 166.781 110.997 166.12C110.495 165.459 109.802 165.128 108.917 165.128C108.042 165.128 107.349 165.459 106.837 166.12C106.325 166.781 106.069 167.779 106.069 169.112V169.912C106.069 171.245 106.325 172.243 106.837 172.904C107.349 173.565 108.042 173.896 108.917 173.896ZM119.12 175.192C117.776 175.192 116.72 174.723 115.952 173.784C115.184 172.835 114.8 171.411 114.8 169.512C114.8 167.603 115.184 166.179 115.952 165.24C116.72 164.301 117.776 163.832 119.12 163.832C120.464 163.832 121.52 164.301 122.288 165.24C123.056 166.179 123.44 167.603 123.44 169.512C123.44 171.411 123.056 172.835 122.288 173.784C121.52 174.723 120.464 175.192 119.12 175.192ZM119.12 173.896C120.005 173.896 120.698 173.565 121.2 172.904C121.712 172.243 121.968 171.245 121.968 169.912V169.112C121.968 167.779 121.712 166.781 121.2 166.12C120.698 165.459 120.005 165.128 119.12 165.128C118.245 165.128 117.552 165.459 117.04 166.12C116.528 166.781 116.272 167.779 116.272 169.112V169.912C116.272 171.245 116.528 172.243 117.04 172.904C117.552 173.565 118.245 173.896 119.12 173.896ZM125.339 175V164.024H129.755C130.832 164.024 131.648 164.307 132.203 164.872C132.757 165.427 133.035 166.157 133.035 167.064C133.035 167.747 132.864 168.339 132.523 168.84C132.181 169.331 131.701 169.683 131.083 169.896L133.291 175H131.723L129.691 170.152H126.747V175H125.339ZM126.747 168.872H129.707C130.272 168.872 130.72 168.707 131.051 168.376C131.392 168.045 131.563 167.608 131.563 167.064C131.563 166.52 131.403 166.093 131.083 165.784C130.763 165.464 130.304 165.304 129.707 165.304H126.747V168.872ZM138.448 175V164.024H142.368C143.093 164.024 143.696 164.157 144.176 164.424C144.667 164.691 145.035 165.064 145.28 165.544C145.525 166.024 145.648 166.584 145.648 167.224C145.648 167.864 145.515 168.429 145.248 168.92C144.981 169.411 144.603 169.795 144.112 170.072C143.632 170.339 143.051 170.472 142.368 170.472H139.856V175H138.448ZM139.856 169.192H142.32C142.885 169.192 143.333 169.011 143.664 168.648C144.005 168.285 144.176 167.811 144.176 167.224C144.176 166.627 144.016 166.157 143.696 165.816C143.376 165.475 142.917 165.304 142.32 165.304H139.856V169.192ZM147.198 175V164.024H148.606V173.72H153.086V175H147.198ZM153.359 175L156.847 164.024H158.655L162.143 175H160.623L159.871 172.552H155.519L154.767 175H153.359ZM155.903 171.272H159.471L157.983 166.392C157.951 166.264 157.914 166.104 157.871 165.912C157.828 165.72 157.791 165.549 157.759 165.4C157.738 165.251 157.727 165.176 157.727 165.176H157.663C157.663 165.176 157.647 165.256 157.615 165.416C157.594 165.565 157.562 165.736 157.519 165.928C157.487 166.12 157.45 166.275 157.407 166.392L155.903 171.272ZM163.245 175V164.024H164.461L168.541 170.92C168.626 171.059 168.717 171.245 168.813 171.48C168.92 171.715 169.01 171.928 169.085 172.12C169.17 172.301 169.213 172.392 169.213 172.392L169.261 172.376C169.261 172.376 169.256 172.28 169.245 172.088C169.245 171.896 169.24 171.683 169.229 171.448C169.218 171.213 169.213 171.037 169.213 170.92V164.024H170.477V175H169.309L165.197 168.008C165.112 167.848 165.01 167.656 164.893 167.432C164.786 167.197 164.69 166.989 164.605 166.808C164.53 166.627 164.493 166.536 164.493 166.536L164.445 166.552C164.445 166.552 164.45 166.643 164.461 166.824C164.472 167.005 164.482 167.213 164.493 167.448C164.504 167.672 164.509 167.859 164.509 168.008V175H163.245Z" fill="#2E4683"/>
<path d="M117 240L98.8135 207L135.187 207L117 240Z" fill="white"/>
<defs>
<clipPath id="clip0_280_3106">
<rect width="20" height="20" fill="white" transform="translate(60.5 159)"/>
</clipPath>
</defs>
</svg>
