<svg width="32" height="32" viewBox="0 0 32 32" fill="none" xmlns="http://www.w3.org/2000/svg">
<path d="M16.0003 16.9132C14.6903 16.9132 13.4541 16.4046 12.5448 15.4583C11.6355 14.5489 11.0898 13.3128 11.0898 12.0028C11.0898 10.6927 11.5985 9.45659 12.5448 8.54724C13.4541 7.63789 14.6903 7.09229 16.0003 7.09229C17.3104 7.09229 18.5465 7.60094 19.4558 8.54724C20.3652 9.45659 20.9108 10.6927 20.9108 12.0028C20.9108 13.3128 20.4022 14.5489 19.4558 15.4583C18.5465 16.4032 17.3104 16.9132 16.0003 16.9132ZM16.0003 8.1835C13.8903 8.1835 12.1811 9.89279 12.1811 12.0028C12.1811 14.1127 13.8903 15.822 16.0003 15.822C18.1103 15.822 19.8196 14.1127 19.8196 12.0028C19.8196 9.89279 18.1103 8.1835 16.0003 8.1835Z" fill="#2E4683"/>
<path d="M15.9991 29.4622L8.68718 18.84C8.57778 18.6581 5.99609 14.6941 5.99609 12.0013C5.99609 10.6558 6.25043 9.34572 6.79603 8.10966C7.30468 6.90903 8.03216 5.85476 8.94151 4.94542C9.85086 4.03607 10.9421 3.30859 12.1057 2.79994C13.3419 2.29128 14.6519 2 15.9974 2C17.3429 2 18.653 2.25433 19.889 2.79994C21.0897 3.30859 22.1439 4.03607 23.0533 4.94542C23.9626 5.85476 24.6901 6.94598 25.1988 8.10966C25.7074 9.34579 25.9987 10.6558 25.9987 12.0013C25.9987 14.6924 23.3801 18.6934 23.2707 18.8752L15.9991 29.4622ZM9.59653 18.222L15.9991 27.5344L22.3645 18.2591C22.437 18.1141 24.9107 14.3303 24.9107 12.0031C24.9107 7.09264 20.9096 3.09151 15.9991 3.09151C11.0886 3.09151 7.08746 7.09264 7.08746 12.0031C7.08746 14.3305 9.48872 18.0772 9.59668 18.2223L9.59653 18.222Z" fill="#2E4683"/>
<path d="M16 31.0249C14.4356 31.0249 12.9451 30.8061 11.817 30.3699C11.2344 30.1511 10.7627 29.8967 10.4345 29.6054C9.92582 29.1323 9.81641 28.6961 9.81641 28.3693C9.81641 28.0056 9.96133 27.423 10.7258 26.9143C11.1989 26.5875 11.8894 26.2963 12.6894 26.0775L12.9437 27.1317C11.4518 27.5324 10.9062 28.078 10.9062 28.3323C10.9062 28.5867 11.3069 28.9874 12.2162 29.3142C13.235 29.6779 14.5805 29.8967 15.9984 29.8967C17.4164 29.8967 18.7989 29.6779 19.7805 29.3142C20.6899 28.9874 21.0906 28.5867 21.0906 28.3323C21.0906 28.0411 20.545 27.4955 19.0176 27.1317L19.2719 26.0775C20.1088 26.2963 20.7638 26.5506 21.2355 26.9143C21.9999 27.423 22.1449 28.0056 22.1449 28.3693C22.1449 28.6606 22.0355 29.1337 21.5268 29.6054C21.2 29.8967 20.7269 30.151 20.1443 30.3699C19.0545 30.8075 17.564 31.0249 15.9995 31.0249H16Z" fill="#2E4683"/>
</svg>
